<svg width="40" height="40" viewBox="0 0 40 40" fill="none" xmlns="http://www.w3.org/2000/svg">
<g clip-path="url(#clip0_1_1345)">
<path d="M20 0C16.0444 0 12.1776 1.17298 8.8886 3.37061C5.59962 5.56824 3.03617 8.69181 1.52242 12.3463C0.00866568 16.0009 -0.387401 20.0222 0.384303 23.9018C1.15601 27.7814 3.06082 31.3451 5.85787 34.1421C8.65492 36.9392 12.2186 38.844 16.0982 39.6157C19.9778 40.3874 23.9992 39.9913 27.6537 38.4776C31.3082 36.9638 34.4318 34.4004 36.6294 31.1114C38.827 27.8224 40 23.9556 40 20C40 14.6957 37.8929 9.60859 34.1421 5.85786C30.3914 2.10714 25.3043 0 20 0Z" fill="#7F3A6A"/>
<g clip-path="url(#clip1_1_1345)">
<path d="M30.9784 15.4681C30.9269 14.2991 30.7378 13.4955 30.467 12.7991C30.1877 12.0599 29.7579 11.3982 29.1949 10.848C28.6447 10.2893 27.9786 9.85518 27.248 9.58019C26.5476 9.3094 25.7481 9.12037 24.5792 9.06883C23.4015 9.01293 23.0276 9 20.0407 9C17.0538 9 16.6799 9.01293 15.5066 9.06447C14.3377 9.116 13.5341 9.3052 12.8379 9.57583C12.0985 9.85518 11.4367 10.2849 10.8866 10.848C10.3279 11.3982 9.89392 12.0643 9.61877 12.7949C9.34798 13.4955 9.15894 14.2948 9.1074 15.4637C9.0515 16.6414 9.03857 17.0152 9.03857 20.0021C9.03857 22.9891 9.0515 23.3629 9.10304 24.5362C9.15458 25.7052 9.34378 26.5088 9.61457 27.2052C9.89392 27.9444 10.3279 28.6061 10.8866 29.1563C11.4367 29.715 12.1029 30.1491 12.8335 30.4241C13.5341 30.6949 14.3333 30.8839 15.5024 30.9355C16.6756 30.9872 17.0496 30.9999 20.0365 30.9999C23.0234 30.9999 23.3973 30.9872 24.5706 30.9355C25.7396 30.8839 26.5432 30.6949 27.2394 30.4241C28.7179 29.8525 29.8869 28.6835 30.4585 27.2052C30.7291 26.5046 30.9183 25.7052 30.9698 24.5362C31.0214 23.3629 31.0343 22.9891 31.0343 20.0021C31.0343 17.0152 31.0299 16.6414 30.9784 15.4681ZM28.9973 24.4503C28.9499 25.5247 28.7694 26.1049 28.619 26.4917C28.2494 27.4501 27.4887 28.2108 26.5303 28.5805C26.1435 28.7309 25.5591 28.9113 24.4889 28.9585C23.3285 29.0102 22.9805 29.023 20.0451 29.023C17.1097 29.023 16.7573 29.0102 15.6012 28.9585C14.5267 28.9113 13.9465 28.7309 13.5597 28.5805C13.0828 28.4042 12.6487 28.1248 12.2963 27.7595C11.931 27.4028 11.6516 26.973 11.4753 26.4961C11.3249 26.1093 11.1445 25.5247 11.0973 24.4546C11.0456 23.2943 11.0328 22.9461 11.0328 20.0107C11.0328 17.0753 11.0456 16.723 11.0973 15.5669C11.1445 14.4925 11.3249 13.9123 11.4753 13.5255C11.6516 13.0484 11.931 12.6144 12.3006 12.2619C12.6572 11.8966 13.087 11.6172 13.5641 11.4411C13.9509 11.2907 14.5355 11.1102 15.6055 11.0629C16.7659 11.0114 17.1141 10.9984 20.0493 10.9984C22.989 10.9984 23.337 11.0114 24.4932 11.0629C25.5677 11.1102 26.1478 11.2907 26.5346 11.4411C27.0116 11.6172 27.4457 11.8966 27.7981 12.2619C28.1634 12.6186 28.4428 13.0484 28.619 13.5255C28.7694 13.9123 28.9499 14.4967 28.9973 15.5669C29.0488 16.7273 29.0617 17.0753 29.0617 20.0107C29.0617 22.9461 29.0488 23.2899 28.9973 24.4503Z" fill="white"/>
<path d="M20.0409 14.3506C16.9209 14.3506 14.3894 16.8819 14.3894 20.0021C14.3894 23.1223 16.9209 25.6536 20.0409 25.6536C23.1611 25.6536 25.6924 23.1223 25.6924 20.0021C25.6924 16.8819 23.1611 14.3506 20.0409 14.3506ZM20.0409 23.6681C18.0168 23.6681 16.3749 22.0264 16.3749 20.0021C16.3749 17.9779 18.0168 16.3362 20.0409 16.3362C22.0652 16.3362 23.7069 17.9779 23.7069 20.0021C23.7069 22.0264 22.0652 23.6681 20.0409 23.6681Z" fill="white"/>
<path d="M27.2353 14.1272C27.2353 14.8558 26.6446 15.4466 25.9158 15.4466C25.1872 15.4466 24.5964 14.8558 24.5964 14.1272C24.5964 13.3985 25.1872 12.8079 25.9158 12.8079C26.6446 12.8079 27.2353 13.3985 27.2353 14.1272Z" fill="white"/>
</g>
</g>
<defs>
<clipPath id="clip0_1_1345">
<rect width="40" height="40" fill="white"/>
</clipPath>
<clipPath id="clip1_1_1345">
<rect width="22" height="22" fill="white" transform="translate(9 9)"/>
</clipPath>
</defs>
</svg>
