<svg width="1455" height="61" viewBox="0 0 1455 61" fill="none" xmlns="http://www.w3.org/2000/svg">
<g clip-path="url(#clip0_1_2682)">
<rect width="1454.1" height="61" transform="matrix(1 0 1.85081e-05 1 0 0)" fill="#7F3A6A"/>
<path d="M4.65673 39L0.408402 21.24H4.0804L6.93663 33.768L10.2724 21.24H13.5364L16.8486 33.768L19.7044 21.24H23.3764L19.1287 39H15.5047L11.9045 26.472L8.28073 39H4.65673ZM29.0364 39.12C28.6524 39.12 28.2124 39.08 27.7164 39C27.2204 38.936 26.7404 38.776 26.2764 38.52C25.8284 38.264 25.4524 37.88 25.1484 37.368C24.8604 36.84 24.7164 36.12 24.7163 35.208L24.7162 25.296C24.7162 24.512 24.8361 23.856 25.0761 23.328C25.3161 22.8 25.6361 22.384 26.0361 22.08C26.4361 21.776 26.8761 21.56 27.3561 21.432C27.8361 21.304 28.3081 21.24 28.7721 21.24C29.9721 21.24 31.0281 21.256 31.9401 21.288C32.8681 21.32 33.7001 21.36 34.4361 21.408C35.1721 21.44 35.8441 21.488 36.4521 21.552L36.4522 24.528H29.8282C29.3322 24.528 28.9482 24.648 28.6762 24.888C28.4042 25.128 28.2682 25.496 28.2682 25.992L28.2682 28.56L35.3002 28.752L35.3003 31.56L28.2683 31.752L28.2683 34.2C28.2683 34.616 28.3323 34.944 28.4603 35.184C28.6044 35.408 28.7884 35.568 29.0124 35.664C29.2524 35.744 29.5004 35.784 29.7564 35.784H36.4524L36.4524 38.76C35.7484 38.84 34.9644 38.904 34.1004 38.952C33.2524 39 32.3884 39.04 31.5084 39.072C30.6444 39.104 29.8204 39.12 29.0364 39.12ZM45.2242 39L45.2239 21.24H52.2079C53.9679 21.24 55.2479 21.648 56.0479 22.464C56.8639 23.264 57.272 24.408 57.272 25.896C57.272 26.6 57.168 27.224 56.96 27.768C56.768 28.296 56.488 28.736 56.12 29.088C55.7521 29.424 55.3121 29.656 54.8001 29.784C55.1841 29.88 55.5521 30.032 55.9041 30.24C56.2721 30.448 56.6001 30.728 56.8881 31.08C57.1921 31.432 57.4241 31.864 57.5841 32.376C57.7601 32.872 57.8481 33.448 57.8481 34.104C57.8482 35.304 57.6402 36.264 57.2242 36.984C56.8242 37.704 56.2242 38.224 55.4242 38.544C54.6402 38.848 53.6722 39 52.5202 39H45.2242ZM48.7762 35.808H52.4242C52.8402 35.808 53.2002 35.728 53.5042 35.568C53.8082 35.408 54.0402 35.16 54.2002 34.824C54.3761 34.488 54.4641 34.04 54.4641 33.48C54.4641 33.016 54.3761 32.624 54.2001 32.304C54.0241 31.984 53.7841 31.736 53.4801 31.56C53.1761 31.384 52.8241 31.296 52.4241 31.296H48.7761L48.7762 35.808ZM48.776 28.56H52.232C52.744 28.56 53.144 28.376 53.432 28.008C53.736 27.624 53.888 27.128 53.888 26.52C53.904 25.736 53.744 25.192 53.408 24.888C53.072 24.584 52.664 24.432 52.184 24.432H48.776L48.776 28.56ZM66.9671 39.12C65.9911 39.12 65.0791 39.04 64.2311 38.88C63.3831 38.704 62.6391 38.408 61.9991 37.992C61.3751 37.56 60.8871 36.968 60.5351 36.216C60.199 35.448 60.031 34.472 60.031 33.288L60.0308 21.24H63.5828L63.583 33.264C63.583 33.92 63.711 34.44 63.967 34.824C64.239 35.208 64.623 35.488 65.119 35.664C65.631 35.84 66.247 35.928 66.967 35.928C67.671 35.928 68.271 35.84 68.767 35.664C69.279 35.488 69.663 35.208 69.919 34.824C70.191 34.44 70.327 33.92 70.327 33.264L70.3268 21.24H73.9028L73.903 33.288C73.903 34.472 73.727 35.448 73.3751 36.216C73.0231 36.968 72.5351 37.56 71.9111 37.992C71.2871 38.408 70.5511 38.704 69.7031 38.88C68.8711 39.04 67.9591 39.12 66.9671 39.12ZM80.9482 39L80.9481 33.624L75.5959 21.24H79.2919L82.7961 30L86.2759 21.24H89.8279L84.5001 33.624L84.5002 39H80.9482ZM101.702 39L101.702 24.432H96.8298L96.8297 21.24H110.15L110.15 24.432H105.254L105.254 39H101.702ZM112.068 39L112.068 21.24H119.412C120.116 21.24 120.772 21.328 121.38 21.504C121.988 21.664 122.524 21.952 122.988 22.368C123.452 22.784 123.812 23.36 124.068 24.096C124.34 24.832 124.476 25.776 124.476 26.928C124.476 27.744 124.396 28.44 124.236 29.016C124.076 29.592 123.86 30.064 123.588 30.432C123.332 30.8 123.036 31.096 122.7 31.32C122.364 31.544 122.02 31.728 121.668 31.872L124.98 39H121.356L118.5 32.424C118.308 32.424 118.084 32.424 117.828 32.424C117.588 32.408 117.34 32.4 117.084 32.4C116.828 32.4 116.572 32.4 116.316 32.4C116.06 32.4 115.828 32.392 115.62 32.376L115.62 39H112.068ZM115.62 29.568H118.788C119.108 29.568 119.396 29.528 119.652 29.448C119.908 29.368 120.132 29.232 120.324 29.04C120.516 28.832 120.66 28.56 120.756 28.224C120.868 27.888 120.924 27.456 120.924 26.928C120.924 26.432 120.868 26.024 120.756 25.704C120.66 25.368 120.516 25.112 120.324 24.936C120.132 24.744 119.908 24.616 119.652 24.552C119.396 24.472 119.108 24.432 118.788 24.432H115.62L115.62 29.568ZM125.987 39L131.555 21.24H136.043L141.611 39H137.915L136.787 35.28H130.739L129.635 39H125.987ZM131.579 32.088H135.947L133.763 24.288L131.579 32.088ZM143.076 39L143.076 25.296C143.076 24.512 143.196 23.856 143.436 23.328C143.675 22.8 143.995 22.384 144.395 22.08C144.795 21.776 145.235 21.56 145.715 21.432C146.195 21.304 146.667 21.24 147.131 21.24C147.707 21.24 148.419 21.248 149.267 21.264C150.131 21.264 151.043 21.288 152.003 21.336C152.979 21.384 153.915 21.456 154.811 21.552L154.812 24.528H148.116C147.62 24.528 147.244 24.664 146.988 24.936C146.748 25.192 146.628 25.536 146.628 25.968L146.628 28.992L153.66 29.184L153.66 31.992L146.628 32.184L146.628 39H143.076ZM156.834 39L156.833 25.296C156.833 24.512 156.953 23.856 157.193 23.328C157.433 22.8 157.753 22.384 158.153 22.08C158.553 21.776 158.993 21.56 159.473 21.432C159.953 21.304 160.425 21.24 160.889 21.24C161.465 21.24 162.177 21.248 163.025 21.264C163.889 21.264 164.801 21.288 165.761 21.336C166.737 21.384 167.673 21.456 168.569 21.552L168.569 24.528H161.873C161.377 24.528 161.001 24.664 160.745 24.936C160.505 25.192 160.385 25.536 160.385 25.968L160.385 28.992L167.417 29.184L167.417 31.992L160.385 32.184L160.386 39H156.834ZM170.826 39L170.825 21.24H174.377L174.378 39H170.826ZM183.435 39.144C182.395 39.144 181.475 39.024 180.675 38.784C179.891 38.544 179.219 38.104 178.659 37.464C178.115 36.824 177.699 35.912 177.411 34.728C177.139 33.528 177.002 31.976 177.002 30.072C177.002 28.232 177.146 26.728 177.434 25.56C177.738 24.376 178.17 23.464 178.73 22.824C179.29 22.168 179.97 21.712 180.77 21.456C181.57 21.2 182.474 21.072 183.482 21.072C184.282 21.072 185.026 21.12 185.714 21.216C186.418 21.296 187.05 21.4 187.61 21.528C188.17 21.64 188.642 21.768 189.026 21.912L189.026 24.672C188.738 24.608 188.346 24.544 187.85 24.48C187.37 24.416 186.818 24.368 186.194 24.336C185.57 24.288 184.914 24.264 184.226 24.264C183.554 24.264 182.978 24.344 182.498 24.504C182.034 24.648 181.658 24.928 181.37 25.344C181.098 25.744 180.89 26.328 180.746 27.096C180.618 27.864 180.554 28.864 180.554 30.096C180.554 31.28 180.61 32.256 180.722 33.024C180.851 33.792 181.051 34.392 181.323 34.824C181.595 35.24 181.963 35.536 182.427 35.712C182.907 35.872 183.507 35.952 184.227 35.952C185.443 35.952 186.427 35.928 187.179 35.88C187.947 35.832 188.563 35.776 189.027 35.712L189.027 38.448C188.595 38.592 188.099 38.72 187.539 38.832C186.979 38.928 186.363 39 185.691 39.048C185.019 39.112 184.267 39.144 183.435 39.144Z" fill="white"/>
<mask id="path-2-outside-1_1_2682" maskUnits="userSpaceOnUse" x="228" y="18.464" width="193" height="23" fill="black">
<rect fill="white" x="228" y="18.464" width="193" height="23"/>
<path d="M234.249 39.392L230 21.632H233.672L236.529 34.16L239.864 21.632H243.128L246.441 34.16L249.296 21.632H252.968L248.721 39.392H245.097L241.496 26.864L237.873 39.392H234.249Z"/>
<path d="M258.628 39.512C258.244 39.512 257.804 39.472 257.308 39.392C256.812 39.328 256.332 39.168 255.868 38.912C255.42 38.656 255.044 38.272 254.74 37.76C254.452 37.232 254.308 36.512 254.308 35.6L254.308 25.688C254.308 24.904 254.428 24.248 254.668 23.72C254.908 23.192 255.228 22.776 255.628 22.472C256.028 22.168 256.468 21.952 256.948 21.824C257.428 21.696 257.9 21.632 258.364 21.632C259.564 21.632 260.62 21.648 261.532 21.68C262.46 21.712 263.292 21.752 264.028 21.8C264.764 21.832 265.436 21.88 266.044 21.944L266.044 24.92H259.42C258.924 24.92 258.54 25.04 258.268 25.28C257.996 25.52 257.86 25.888 257.86 26.384L257.86 28.952L264.892 29.144L264.892 31.952L257.86 32.144L257.86 34.592C257.86 35.008 257.924 35.336 258.052 35.576C258.196 35.8 258.38 35.96 258.604 36.056C258.844 36.136 259.092 36.176 259.348 36.176H266.044L266.044 39.152C265.34 39.232 264.556 39.296 263.692 39.344C262.844 39.392 261.98 39.432 261.1 39.464C260.236 39.496 259.412 39.512 258.628 39.512Z"/>
<path d="M274.816 39.392L274.816 21.632H281.8C283.56 21.632 284.84 22.04 285.64 22.856C286.456 23.656 286.864 24.8 286.864 26.288C286.864 26.992 286.76 27.616 286.552 28.16C286.36 28.688 286.08 29.128 285.712 29.48C285.344 29.816 284.904 30.048 284.392 30.176C284.776 30.272 285.144 30.424 285.496 30.632C285.864 30.84 286.192 31.12 286.48 31.472C286.784 31.824 287.016 32.256 287.176 32.768C287.352 33.264 287.44 33.84 287.44 34.496C287.44 35.696 287.232 36.656 286.816 37.376C286.416 38.096 285.816 38.616 285.016 38.936C284.232 39.24 283.264 39.392 282.112 39.392H274.816ZM278.368 36.2H282.016C282.432 36.2 282.792 36.12 283.096 35.96C283.4 35.8 283.632 35.552 283.792 35.216C283.968 34.88 284.056 34.432 284.056 33.872C284.056 33.408 283.968 33.016 283.792 32.696C283.616 32.376 283.376 32.128 283.072 31.952C282.768 31.776 282.416 31.688 282.016 31.688H278.368L278.368 36.2ZM278.368 28.952H281.824C282.336 28.952 282.736 28.768 283.024 28.4C283.328 28.016 283.48 27.52 283.48 26.912C283.496 26.128 283.336 25.584 283 25.28C282.664 24.976 282.256 24.824 281.776 24.824H278.368L278.368 28.952Z"/>
<path d="M296.559 39.512C295.583 39.512 294.671 39.432 293.823 39.272C292.975 39.096 292.231 38.8 291.591 38.384C290.967 37.952 290.479 37.36 290.127 36.608C289.791 35.84 289.623 34.864 289.623 33.68L289.623 21.632H293.175L293.175 33.656C293.175 34.312 293.303 34.832 293.559 35.216C293.831 35.6 294.215 35.88 294.711 36.056C295.223 36.232 295.839 36.32 296.559 36.32C297.263 36.32 297.863 36.232 298.359 36.056C298.871 35.88 299.255 35.6 299.511 35.216C299.783 34.832 299.919 34.312 299.919 33.656L299.919 21.632H303.495L303.495 33.68C303.495 34.864 303.319 35.84 302.967 36.608C302.615 37.36 302.127 37.952 301.503 38.384C300.879 38.8 300.143 39.096 299.295 39.272C298.463 39.432 297.551 39.512 296.559 39.512Z"/>
<path d="M310.54 39.392L310.54 34.016L305.188 21.632H308.884L312.388 30.392L315.868 21.632H319.42L314.092 34.016L314.092 39.392H310.54Z"/>
<path d="M331.294 39.392L331.294 24.824H326.422L326.422 21.632H339.742L339.742 24.824H334.846L334.846 39.392H331.294Z"/>
<path d="M341.66 39.392L341.66 21.632H349.004C349.708 21.632 350.364 21.72 350.972 21.896C351.58 22.056 352.116 22.344 352.58 22.76C353.044 23.176 353.404 23.752 353.66 24.488C353.932 25.224 354.068 26.168 354.068 27.32C354.068 28.136 353.988 28.832 353.828 29.408C353.668 29.984 353.452 30.456 353.18 30.824C352.924 31.192 352.628 31.488 352.292 31.712C351.956 31.936 351.612 32.12 351.26 32.264L354.572 39.392H350.948L348.092 32.816C347.9 32.816 347.676 32.816 347.42 32.816C347.18 32.8 346.932 32.792 346.676 32.792C346.42 32.792 346.164 32.792 345.908 32.792C345.652 32.792 345.42 32.784 345.212 32.768L345.212 39.392H341.66ZM345.212 29.96H348.38C348.7 29.96 348.988 29.92 349.244 29.84C349.5 29.76 349.724 29.624 349.916 29.432C350.108 29.224 350.252 28.952 350.348 28.616C350.46 28.28 350.516 27.848 350.516 27.32C350.516 26.824 350.46 26.416 350.348 26.096C350.252 25.76 350.108 25.504 349.916 25.328C349.724 25.136 349.5 25.008 349.244 24.944C348.988 24.864 348.7 24.824 348.38 24.824H345.212L345.212 29.96Z"/>
<path d="M355.579 39.392L361.147 21.632H365.635L371.203 39.392H367.507L366.379 35.672H360.331L359.227 39.392H355.579ZM361.171 32.48H365.539L363.355 24.68L361.171 32.48Z"/>
<path d="M372.668 39.392L372.668 25.688C372.668 24.904 372.787 24.248 373.027 23.72C373.267 23.192 373.587 22.776 373.987 22.472C374.387 22.168 374.827 21.952 375.307 21.824C375.787 21.696 376.259 21.632 376.723 21.632C377.299 21.632 378.011 21.64 378.859 21.656C379.723 21.656 380.635 21.68 381.595 21.728C382.571 21.776 383.507 21.848 384.403 21.944L384.404 24.92H377.708C377.212 24.92 376.836 25.056 376.58 25.328C376.34 25.584 376.22 25.928 376.22 26.36L376.22 29.384L383.252 29.576L383.252 32.384L376.22 32.576L376.22 39.392H372.668Z"/>
<path d="M386.426 39.392L386.425 25.688C386.425 24.904 386.545 24.248 386.785 23.72C387.025 23.192 387.345 22.776 387.745 22.472C388.145 22.168 388.585 21.952 389.065 21.824C389.545 21.696 390.017 21.632 390.481 21.632C391.057 21.632 391.769 21.64 392.617 21.656C393.481 21.656 394.393 21.68 395.353 21.728C396.329 21.776 397.265 21.848 398.161 21.944L398.161 24.92H391.465C390.969 24.92 390.593 25.056 390.337 25.328C390.097 25.584 389.977 25.928 389.977 26.36L389.977 29.384L397.009 29.576L397.009 32.384L389.977 32.576L389.978 39.392H386.426Z"/>
<path d="M400.418 39.392L400.417 21.632H403.969L403.97 39.392H400.418Z"/>
<path d="M413.027 39.536C411.987 39.536 411.067 39.416 410.267 39.176C409.483 38.936 408.811 38.496 408.251 37.856C407.707 37.216 407.291 36.304 407.003 35.12C406.731 33.92 406.594 32.368 406.594 30.464C406.594 28.624 406.738 27.12 407.026 25.952C407.33 24.768 407.762 23.856 408.322 23.216C408.882 22.56 409.562 22.104 410.362 21.848C411.162 21.592 412.066 21.464 413.074 21.464C413.874 21.464 414.618 21.512 415.306 21.608C416.01 21.688 416.642 21.792 417.202 21.92C417.762 22.032 418.234 22.16 418.618 22.304L418.618 25.064C418.33 25 417.938 24.936 417.442 24.872C416.962 24.808 416.41 24.76 415.786 24.728C415.162 24.68 414.506 24.656 413.818 24.656C413.146 24.656 412.57 24.736 412.09 24.896C411.626 25.04 411.25 25.32 410.962 25.736C410.69 26.136 410.482 26.72 410.338 27.488C410.21 28.256 410.146 29.256 410.146 30.488C410.146 31.672 410.202 32.648 410.314 33.416C410.443 34.184 410.643 34.784 410.915 35.216C411.187 35.632 411.555 35.928 412.019 36.104C412.499 36.264 413.099 36.344 413.819 36.344C415.035 36.344 416.019 36.32 416.771 36.272C417.539 36.224 418.155 36.168 418.619 36.104L418.619 38.84C418.187 38.984 417.691 39.112 417.131 39.224C416.571 39.32 415.955 39.392 415.283 39.44C414.611 39.504 413.859 39.536 413.027 39.536Z"/>
</mask>
<path d="M234.249 39.392L230 21.632H233.672L236.529 34.16L239.864 21.632H243.128L246.441 34.16L249.296 21.632H252.968L248.721 39.392H245.097L241.496 26.864L237.873 39.392H234.249Z" stroke="white" stroke-width="3" mask="url(#path-2-outside-1_1_2682)"/>
<path d="M258.628 39.512C258.244 39.512 257.804 39.472 257.308 39.392C256.812 39.328 256.332 39.168 255.868 38.912C255.42 38.656 255.044 38.272 254.74 37.76C254.452 37.232 254.308 36.512 254.308 35.6L254.308 25.688C254.308 24.904 254.428 24.248 254.668 23.72C254.908 23.192 255.228 22.776 255.628 22.472C256.028 22.168 256.468 21.952 256.948 21.824C257.428 21.696 257.9 21.632 258.364 21.632C259.564 21.632 260.62 21.648 261.532 21.68C262.46 21.712 263.292 21.752 264.028 21.8C264.764 21.832 265.436 21.88 266.044 21.944L266.044 24.92H259.42C258.924 24.92 258.54 25.04 258.268 25.28C257.996 25.52 257.86 25.888 257.86 26.384L257.86 28.952L264.892 29.144L264.892 31.952L257.86 32.144L257.86 34.592C257.86 35.008 257.924 35.336 258.052 35.576C258.196 35.8 258.38 35.96 258.604 36.056C258.844 36.136 259.092 36.176 259.348 36.176H266.044L266.044 39.152C265.34 39.232 264.556 39.296 263.692 39.344C262.844 39.392 261.98 39.432 261.1 39.464C260.236 39.496 259.412 39.512 258.628 39.512Z" stroke="white" stroke-width="3" mask="url(#path-2-outside-1_1_2682)"/>
<path d="M274.816 39.392L274.816 21.632H281.8C283.56 21.632 284.84 22.04 285.64 22.856C286.456 23.656 286.864 24.8 286.864 26.288C286.864 26.992 286.76 27.616 286.552 28.16C286.36 28.688 286.08 29.128 285.712 29.48C285.344 29.816 284.904 30.048 284.392 30.176C284.776 30.272 285.144 30.424 285.496 30.632C285.864 30.84 286.192 31.12 286.48 31.472C286.784 31.824 287.016 32.256 287.176 32.768C287.352 33.264 287.44 33.84 287.44 34.496C287.44 35.696 287.232 36.656 286.816 37.376C286.416 38.096 285.816 38.616 285.016 38.936C284.232 39.24 283.264 39.392 282.112 39.392H274.816ZM278.368 36.2H282.016C282.432 36.2 282.792 36.12 283.096 35.96C283.4 35.8 283.632 35.552 283.792 35.216C283.968 34.88 284.056 34.432 284.056 33.872C284.056 33.408 283.968 33.016 283.792 32.696C283.616 32.376 283.376 32.128 283.072 31.952C282.768 31.776 282.416 31.688 282.016 31.688H278.368L278.368 36.2ZM278.368 28.952H281.824C282.336 28.952 282.736 28.768 283.024 28.4C283.328 28.016 283.48 27.52 283.48 26.912C283.496 26.128 283.336 25.584 283 25.28C282.664 24.976 282.256 24.824 281.776 24.824H278.368L278.368 28.952Z" stroke="white" stroke-width="3" mask="url(#path-2-outside-1_1_2682)"/>
<path d="M296.559 39.512C295.583 39.512 294.671 39.432 293.823 39.272C292.975 39.096 292.231 38.8 291.591 38.384C290.967 37.952 290.479 37.36 290.127 36.608C289.791 35.84 289.623 34.864 289.623 33.68L289.623 21.632H293.175L293.175 33.656C293.175 34.312 293.303 34.832 293.559 35.216C293.831 35.6 294.215 35.88 294.711 36.056C295.223 36.232 295.839 36.32 296.559 36.32C297.263 36.32 297.863 36.232 298.359 36.056C298.871 35.88 299.255 35.6 299.511 35.216C299.783 34.832 299.919 34.312 299.919 33.656L299.919 21.632H303.495L303.495 33.68C303.495 34.864 303.319 35.84 302.967 36.608C302.615 37.36 302.127 37.952 301.503 38.384C300.879 38.8 300.143 39.096 299.295 39.272C298.463 39.432 297.551 39.512 296.559 39.512Z" stroke="white" stroke-width="3" mask="url(#path-2-outside-1_1_2682)"/>
<path d="M310.54 39.392L310.54 34.016L305.188 21.632H308.884L312.388 30.392L315.868 21.632H319.42L314.092 34.016L314.092 39.392H310.54Z" stroke="white" stroke-width="3" mask="url(#path-2-outside-1_1_2682)"/>
<path d="M331.294 39.392L331.294 24.824H326.422L326.422 21.632H339.742L339.742 24.824H334.846L334.846 39.392H331.294Z" stroke="white" stroke-width="3" mask="url(#path-2-outside-1_1_2682)"/>
<path d="M341.66 39.392L341.66 21.632H349.004C349.708 21.632 350.364 21.72 350.972 21.896C351.58 22.056 352.116 22.344 352.58 22.76C353.044 23.176 353.404 23.752 353.66 24.488C353.932 25.224 354.068 26.168 354.068 27.32C354.068 28.136 353.988 28.832 353.828 29.408C353.668 29.984 353.452 30.456 353.18 30.824C352.924 31.192 352.628 31.488 352.292 31.712C351.956 31.936 351.612 32.12 351.26 32.264L354.572 39.392H350.948L348.092 32.816C347.9 32.816 347.676 32.816 347.42 32.816C347.18 32.8 346.932 32.792 346.676 32.792C346.42 32.792 346.164 32.792 345.908 32.792C345.652 32.792 345.42 32.784 345.212 32.768L345.212 39.392H341.66ZM345.212 29.96H348.38C348.7 29.96 348.988 29.92 349.244 29.84C349.5 29.76 349.724 29.624 349.916 29.432C350.108 29.224 350.252 28.952 350.348 28.616C350.46 28.28 350.516 27.848 350.516 27.32C350.516 26.824 350.46 26.416 350.348 26.096C350.252 25.76 350.108 25.504 349.916 25.328C349.724 25.136 349.5 25.008 349.244 24.944C348.988 24.864 348.7 24.824 348.38 24.824H345.212L345.212 29.96Z" stroke="white" stroke-width="3" mask="url(#path-2-outside-1_1_2682)"/>
<path d="M355.579 39.392L361.147 21.632H365.635L371.203 39.392H367.507L366.379 35.672H360.331L359.227 39.392H355.579ZM361.171 32.48H365.539L363.355 24.68L361.171 32.48Z" stroke="white" stroke-width="3" mask="url(#path-2-outside-1_1_2682)"/>
<path d="M372.668 39.392L372.668 25.688C372.668 24.904 372.787 24.248 373.027 23.72C373.267 23.192 373.587 22.776 373.987 22.472C374.387 22.168 374.827 21.952 375.307 21.824C375.787 21.696 376.259 21.632 376.723 21.632C377.299 21.632 378.011 21.64 378.859 21.656C379.723 21.656 380.635 21.68 381.595 21.728C382.571 21.776 383.507 21.848 384.403 21.944L384.404 24.92H377.708C377.212 24.92 376.836 25.056 376.58 25.328C376.34 25.584 376.22 25.928 376.22 26.36L376.22 29.384L383.252 29.576L383.252 32.384L376.22 32.576L376.22 39.392H372.668Z" stroke="white" stroke-width="3" mask="url(#path-2-outside-1_1_2682)"/>
<path d="M386.426 39.392L386.425 25.688C386.425 24.904 386.545 24.248 386.785 23.72C387.025 23.192 387.345 22.776 387.745 22.472C388.145 22.168 388.585 21.952 389.065 21.824C389.545 21.696 390.017 21.632 390.481 21.632C391.057 21.632 391.769 21.64 392.617 21.656C393.481 21.656 394.393 21.68 395.353 21.728C396.329 21.776 397.265 21.848 398.161 21.944L398.161 24.92H391.465C390.969 24.92 390.593 25.056 390.337 25.328C390.097 25.584 389.977 25.928 389.977 26.36L389.977 29.384L397.009 29.576L397.009 32.384L389.977 32.576L389.978 39.392H386.426Z" stroke="white" stroke-width="3" mask="url(#path-2-outside-1_1_2682)"/>
<path d="M400.418 39.392L400.417 21.632H403.969L403.97 39.392H400.418Z" stroke="white" stroke-width="3" mask="url(#path-2-outside-1_1_2682)"/>
<path d="M413.027 39.536C411.987 39.536 411.067 39.416 410.267 39.176C409.483 38.936 408.811 38.496 408.251 37.856C407.707 37.216 407.291 36.304 407.003 35.12C406.731 33.92 406.594 32.368 406.594 30.464C406.594 28.624 406.738 27.12 407.026 25.952C407.33 24.768 407.762 23.856 408.322 23.216C408.882 22.56 409.562 22.104 410.362 21.848C411.162 21.592 412.066 21.464 413.074 21.464C413.874 21.464 414.618 21.512 415.306 21.608C416.01 21.688 416.642 21.792 417.202 21.92C417.762 22.032 418.234 22.16 418.618 22.304L418.618 25.064C418.33 25 417.938 24.936 417.442 24.872C416.962 24.808 416.41 24.76 415.786 24.728C415.162 24.68 414.506 24.656 413.818 24.656C413.146 24.656 412.57 24.736 412.09 24.896C411.626 25.04 411.25 25.32 410.962 25.736C410.69 26.136 410.482 26.72 410.338 27.488C410.21 28.256 410.146 29.256 410.146 30.488C410.146 31.672 410.202 32.648 410.314 33.416C410.443 34.184 410.643 34.784 410.915 35.216C411.187 35.632 411.555 35.928 412.019 36.104C412.499 36.264 413.099 36.344 413.819 36.344C415.035 36.344 416.019 36.32 416.771 36.272C417.539 36.224 418.155 36.168 418.619 36.104L418.619 38.84C418.187 38.984 417.691 39.112 417.131 39.224C416.571 39.32 415.955 39.392 415.283 39.44C414.611 39.504 413.859 39.536 413.027 39.536Z" stroke="white" stroke-width="3" mask="url(#path-2-outside-1_1_2682)"/>
<path d="M463.275 39L459.026 21.24H462.698L465.554 33.768L468.89 21.24H472.154L475.466 33.768L478.322 21.24H481.994L477.747 39H474.123L470.522 26.472L466.899 39H463.275ZM487.654 39.12C487.27 39.12 486.83 39.08 486.334 39C485.838 38.936 485.358 38.776 484.894 38.52C484.446 38.264 484.07 37.88 483.766 37.368C483.478 36.84 483.334 36.12 483.334 35.208L483.334 25.296C483.334 24.512 483.454 23.856 483.694 23.328C483.934 22.8 484.254 22.384 484.654 22.08C485.054 21.776 485.494 21.56 485.974 21.432C486.454 21.304 486.926 21.24 487.39 21.24C488.59 21.24 489.646 21.256 490.558 21.288C491.486 21.32 492.318 21.36 493.054 21.408C493.79 21.44 494.462 21.488 495.07 21.552L495.07 24.528H488.446C487.95 24.528 487.566 24.648 487.294 24.888C487.022 25.128 486.886 25.496 486.886 25.992L486.886 28.56L493.918 28.752L493.918 31.56L486.886 31.752L486.886 34.2C486.886 34.616 486.95 34.944 487.078 35.184C487.222 35.408 487.406 35.568 487.63 35.664C487.87 35.744 488.118 35.784 488.374 35.784H495.07L495.07 38.76C494.366 38.84 493.582 38.904 492.718 38.952C491.87 39 491.006 39.04 490.126 39.072C489.262 39.104 488.438 39.12 487.654 39.12ZM503.842 39L503.842 21.24H510.826C512.586 21.24 513.866 21.648 514.666 22.464C515.482 23.264 515.89 24.408 515.89 25.896C515.89 26.6 515.786 27.224 515.578 27.768C515.386 28.296 515.106 28.736 514.738 29.088C514.37 29.424 513.93 29.656 513.418 29.784C513.802 29.88 514.17 30.032 514.522 30.24C514.89 30.448 515.218 30.728 515.506 31.08C515.81 31.432 516.042 31.864 516.202 32.376C516.378 32.872 516.466 33.448 516.466 34.104C516.466 35.304 516.258 36.264 515.842 36.984C515.442 37.704 514.842 38.224 514.042 38.544C513.258 38.848 512.29 39 511.138 39H503.842ZM507.394 35.808H511.042C511.458 35.808 511.818 35.728 512.122 35.568C512.426 35.408 512.658 35.16 512.818 34.824C512.994 34.488 513.082 34.04 513.082 33.48C513.082 33.016 512.994 32.624 512.818 32.304C512.642 31.984 512.402 31.736 512.098 31.56C511.794 31.384 511.442 31.296 511.042 31.296H507.394L507.394 35.808ZM507.394 28.56H510.85C511.362 28.56 511.762 28.376 512.05 28.008C512.354 27.624 512.506 27.128 512.506 26.52C512.522 25.736 512.362 25.192 512.026 24.888C511.69 24.584 511.282 24.432 510.802 24.432H507.394L507.394 28.56ZM525.585 39.12C524.609 39.12 523.697 39.04 522.849 38.88C522.001 38.704 521.257 38.408 520.617 37.992C519.993 37.56 519.505 36.968 519.153 36.216C518.817 35.448 518.649 34.472 518.649 33.288L518.649 21.24H522.201L522.201 33.264C522.201 33.92 522.329 34.44 522.585 34.824C522.857 35.208 523.241 35.488 523.737 35.664C524.249 35.84 524.865 35.928 525.585 35.928C526.289 35.928 526.889 35.84 527.385 35.664C527.897 35.488 528.281 35.208 528.537 34.824C528.809 34.44 528.945 33.92 528.945 33.264L528.945 21.24H532.521L532.521 33.288C532.521 34.472 532.345 35.448 531.993 36.216C531.641 36.968 531.153 37.56 530.529 37.992C529.905 38.408 529.169 38.704 528.321 38.88C527.489 39.04 526.577 39.12 525.585 39.12ZM539.566 39L539.566 33.624L534.214 21.24H537.91L541.414 30L544.894 21.24H548.446L543.118 33.624L543.118 39H539.566ZM560.32 39L560.32 24.432H555.448L555.448 21.24H568.768L568.768 24.432H563.872L563.872 39H560.32ZM570.686 39L570.686 21.24H578.03C578.734 21.24 579.39 21.328 579.998 21.504C580.606 21.664 581.142 21.952 581.606 22.368C582.07 22.784 582.43 23.36 582.686 24.096C582.958 24.832 583.094 25.776 583.094 26.928C583.094 27.744 583.014 28.44 582.854 29.016C582.694 29.592 582.478 30.064 582.206 30.432C581.95 30.8 581.654 31.096 581.318 31.32C580.982 31.544 580.638 31.728 580.286 31.872L583.598 39H579.974L577.118 32.424C576.926 32.424 576.702 32.424 576.446 32.424C576.206 32.408 575.958 32.4 575.702 32.4C575.446 32.4 575.19 32.4 574.934 32.4C574.678 32.4 574.446 32.392 574.238 32.376L574.238 39H570.686ZM574.238 29.568H577.406C577.726 29.568 578.014 29.528 578.27 29.448C578.526 29.368 578.75 29.232 578.942 29.04C579.134 28.832 579.278 28.56 579.374 28.224C579.486 27.888 579.542 27.456 579.542 26.928C579.542 26.432 579.486 26.024 579.374 25.704C579.278 25.368 579.134 25.112 578.942 24.936C578.75 24.744 578.526 24.616 578.27 24.552C578.014 24.472 577.726 24.432 577.406 24.432H574.238L574.238 29.568ZM584.605 39L590.172 21.24H594.66L600.229 39H596.533L595.405 35.28H589.357L588.253 39H584.605ZM590.197 32.088H594.565L592.38 24.288L590.197 32.088ZM601.694 39L601.693 25.296C601.693 24.512 601.813 23.856 602.053 23.328C602.293 22.8 602.613 22.384 603.013 22.08C603.413 21.776 603.853 21.56 604.333 21.432C604.813 21.304 605.285 21.24 605.749 21.24C606.325 21.24 607.037 21.248 607.885 21.264C608.749 21.264 609.661 21.288 610.621 21.336C611.597 21.384 612.533 21.456 613.429 21.552L613.429 24.528H606.733C606.237 24.528 605.861 24.664 605.605 24.936C605.365 25.192 605.245 25.536 605.245 25.968L605.245 28.992L612.277 29.184L612.278 31.992L605.246 32.184L605.246 39H601.694ZM615.451 39L615.451 25.296C615.451 24.512 615.571 23.856 615.811 23.328C616.051 22.8 616.371 22.384 616.771 22.08C617.171 21.776 617.611 21.56 618.091 21.432C618.571 21.304 619.043 21.24 619.507 21.24C620.083 21.24 620.795 21.248 621.643 21.264C622.507 21.264 623.419 21.288 624.379 21.336C625.355 21.384 626.291 21.456 627.187 21.552L627.187 24.528H620.491C619.995 24.528 619.619 24.664 619.363 24.936C619.123 25.192 619.003 25.536 619.003 25.968L619.003 28.992L626.035 29.184L626.035 31.992L619.003 32.184L619.003 39H615.451ZM629.444 39L629.443 21.24H632.995L632.996 39H629.444ZM642.052 39.144C641.012 39.144 640.092 39.024 639.292 38.784C638.508 38.544 637.836 38.104 637.276 37.464C636.732 36.824 636.316 35.912 636.028 34.728C635.756 33.528 635.62 31.976 635.62 30.072C635.62 28.232 635.764 26.728 636.052 25.56C636.356 24.376 636.788 23.464 637.348 22.824C637.908 22.168 638.588 21.712 639.388 21.456C640.188 21.2 641.092 21.072 642.1 21.072C642.9 21.072 643.644 21.12 644.332 21.216C645.036 21.296 645.668 21.4 646.228 21.528C646.788 21.64 647.26 21.768 647.644 21.912L647.644 24.672C647.356 24.608 646.964 24.544 646.468 24.48C645.988 24.416 645.436 24.368 644.812 24.336C644.188 24.288 643.532 24.264 642.844 24.264C642.172 24.264 641.596 24.344 641.116 24.504C640.652 24.648 640.276 24.928 639.988 25.344C639.716 25.744 639.508 26.328 639.364 27.096C639.236 27.864 639.172 28.864 639.172 30.096C639.172 31.28 639.228 32.256 639.34 33.024C639.468 33.792 639.668 34.392 639.94 34.824C640.212 35.24 640.58 35.536 641.044 35.712C641.524 35.872 642.124 35.952 642.844 35.952C644.06 35.952 645.044 35.928 645.796 35.88C646.564 35.832 647.18 35.776 647.644 35.712L647.644 38.448C647.212 38.592 646.716 38.72 646.156 38.832C645.596 38.928 644.98 39 644.308 39.048C643.636 39.112 642.884 39.144 642.052 39.144Z" fill="white"/>
<mask id="path-4-outside-2_1_2682" maskUnits="userSpaceOnUse" x="686.618" y="18.464" width="193" height="23" fill="black">
<rect fill="white" x="686.618" y="18.464" width="193" height="23"/>
<path d="M692.867 39.392L688.618 21.632H692.29L695.146 34.16L698.482 21.632H701.746L705.058 34.16L707.914 21.632H711.586L707.339 39.392H703.715L700.114 26.864L696.491 39.392H692.867Z"/>
<path d="M717.246 39.512C716.862 39.512 716.422 39.472 715.926 39.392C715.43 39.328 714.95 39.168 714.486 38.912C714.038 38.656 713.662 38.272 713.358 37.76C713.07 37.232 712.926 36.512 712.926 35.6L712.926 25.688C712.926 24.904 713.046 24.248 713.286 23.72C713.526 23.192 713.846 22.776 714.246 22.472C714.646 22.168 715.086 21.952 715.566 21.824C716.046 21.696 716.518 21.632 716.982 21.632C718.182 21.632 719.238 21.648 720.15 21.68C721.078 21.712 721.91 21.752 722.646 21.8C723.382 21.832 724.054 21.88 724.662 21.944L724.662 24.92H718.038C717.542 24.92 717.158 25.04 716.886 25.28C716.614 25.52 716.478 25.888 716.478 26.384L716.478 28.952L723.51 29.144L723.51 31.952L716.478 32.144L716.478 34.592C716.478 35.008 716.542 35.336 716.67 35.576C716.814 35.8 716.998 35.96 717.222 36.056C717.462 36.136 717.71 36.176 717.966 36.176H724.662L724.662 39.152C723.958 39.232 723.174 39.296 722.31 39.344C721.462 39.392 720.598 39.432 719.718 39.464C718.854 39.496 718.03 39.512 717.246 39.512Z"/>
<path d="M733.434 39.392L733.434 21.632H740.418C742.178 21.632 743.458 22.04 744.258 22.856C745.074 23.656 745.482 24.8 745.482 26.288C745.482 26.992 745.378 27.616 745.17 28.16C744.978 28.688 744.698 29.128 744.33 29.48C743.962 29.816 743.522 30.048 743.01 30.176C743.394 30.272 743.762 30.424 744.114 30.632C744.482 30.84 744.81 31.12 745.098 31.472C745.402 31.824 745.634 32.256 745.794 32.768C745.97 33.264 746.058 33.84 746.058 34.496C746.058 35.696 745.85 36.656 745.434 37.376C745.034 38.096 744.434 38.616 743.634 38.936C742.85 39.24 741.882 39.392 740.73 39.392H733.434ZM736.986 36.2H740.634C741.05 36.2 741.41 36.12 741.714 35.96C742.018 35.8 742.25 35.552 742.41 35.216C742.586 34.88 742.674 34.432 742.674 33.872C742.674 33.408 742.586 33.016 742.41 32.696C742.234 32.376 741.994 32.128 741.69 31.952C741.386 31.776 741.034 31.688 740.634 31.688H736.986L736.986 36.2ZM736.986 28.952H740.442C740.954 28.952 741.354 28.768 741.642 28.4C741.946 28.016 742.098 27.52 742.098 26.912C742.114 26.128 741.954 25.584 741.618 25.28C741.282 24.976 740.874 24.824 740.394 24.824H736.986L736.986 28.952Z"/>
<path d="M755.177 39.512C754.201 39.512 753.289 39.432 752.441 39.272C751.593 39.096 750.849 38.8 750.209 38.384C749.585 37.952 749.097 37.36 748.745 36.608C748.409 35.84 748.241 34.864 748.241 33.68L748.241 21.632H751.793L751.793 33.656C751.793 34.312 751.921 34.832 752.177 35.216C752.449 35.6 752.833 35.88 753.329 36.056C753.841 36.232 754.457 36.32 755.177 36.32C755.881 36.32 756.481 36.232 756.977 36.056C757.489 35.88 757.873 35.6 758.129 35.216C758.401 34.832 758.537 34.312 758.537 33.656L758.537 21.632H762.113L762.113 33.68C762.113 34.864 761.937 35.84 761.585 36.608C761.233 37.36 760.745 37.952 760.121 38.384C759.497 38.8 758.761 39.096 757.913 39.272C757.081 39.432 756.169 39.512 755.177 39.512Z"/>
<path d="M769.158 39.392L769.158 34.016L763.806 21.632H767.502L771.006 30.392L774.486 21.632H778.038L772.71 34.016L772.71 39.392H769.158Z"/>
<path d="M789.912 39.392L789.912 24.824H785.04L785.04 21.632H798.36L798.36 24.824H793.464L793.464 39.392H789.912Z"/>
<path d="M800.278 39.392L800.278 21.632H807.622C808.326 21.632 808.982 21.72 809.59 21.896C810.198 22.056 810.734 22.344 811.198 22.76C811.662 23.176 812.022 23.752 812.278 24.488C812.55 25.224 812.686 26.168 812.686 27.32C812.686 28.136 812.606 28.832 812.446 29.408C812.286 29.984 812.07 30.456 811.798 30.824C811.542 31.192 811.246 31.488 810.91 31.712C810.574 31.936 810.23 32.12 809.878 32.264L813.19 39.392H809.566L806.71 32.816C806.518 32.816 806.294 32.816 806.038 32.816C805.798 32.8 805.55 32.792 805.294 32.792C805.038 32.792 804.782 32.792 804.526 32.792C804.27 32.792 804.038 32.784 803.83 32.768L803.83 39.392H800.278ZM803.83 29.96H806.998C807.318 29.96 807.606 29.92 807.862 29.84C808.118 29.76 808.342 29.624 808.534 29.432C808.726 29.224 808.87 28.952 808.966 28.616C809.078 28.28 809.134 27.848 809.134 27.32C809.134 26.824 809.078 26.416 808.966 26.096C808.87 25.76 808.726 25.504 808.534 25.328C808.342 25.136 808.118 25.008 807.862 24.944C807.606 24.864 807.318 24.824 806.998 24.824H803.83L803.83 29.96Z"/>
<path d="M814.197 39.392L819.764 21.632H824.252L829.821 39.392H826.125L824.997 35.672H818.949L817.845 39.392H814.197ZM819.789 32.48H824.157L821.972 24.68L819.789 32.48Z"/>
<path d="M831.286 39.392L831.285 25.688C831.285 24.904 831.405 24.248 831.645 23.72C831.885 23.192 832.205 22.776 832.605 22.472C833.005 22.168 833.445 21.952 833.925 21.824C834.405 21.696 834.877 21.632 835.341 21.632C835.917 21.632 836.629 21.64 837.477 21.656C838.341 21.656 839.253 21.68 840.213 21.728C841.189 21.776 842.125 21.848 843.021 21.944L843.021 24.92H836.325C835.829 24.92 835.453 25.056 835.197 25.328C834.957 25.584 834.837 25.928 834.837 26.36L834.837 29.384L841.869 29.576L841.87 32.384L834.838 32.576L834.838 39.392H831.286Z"/>
<path d="M845.043 39.392L845.043 25.688C845.043 24.904 845.163 24.248 845.403 23.72C845.643 23.192 845.963 22.776 846.363 22.472C846.763 22.168 847.203 21.952 847.683 21.824C848.163 21.696 848.635 21.632 849.099 21.632C849.675 21.632 850.387 21.64 851.235 21.656C852.099 21.656 853.011 21.68 853.971 21.728C854.947 21.776 855.883 21.848 856.779 21.944L856.779 24.92H850.083C849.587 24.92 849.211 25.056 848.955 25.328C848.715 25.584 848.595 25.928 848.595 26.36L848.595 29.384L855.627 29.576L855.627 32.384L848.595 32.576L848.595 39.392H845.043Z"/>
<path d="M859.036 39.392L859.035 21.632H862.587L862.588 39.392H859.036Z"/>
<path d="M871.644 39.536C870.604 39.536 869.684 39.416 868.884 39.176C868.1 38.936 867.428 38.496 866.868 37.856C866.324 37.216 865.908 36.304 865.62 35.12C865.348 33.92 865.212 32.368 865.212 30.464C865.212 28.624 865.356 27.12 865.644 25.952C865.948 24.768 866.38 23.856 866.94 23.216C867.5 22.56 868.18 22.104 868.98 21.848C869.78 21.592 870.684 21.464 871.692 21.464C872.492 21.464 873.236 21.512 873.924 21.608C874.628 21.688 875.26 21.792 875.82 21.92C876.38 22.032 876.852 22.16 877.236 22.304L877.236 25.064C876.948 25 876.556 24.936 876.06 24.872C875.58 24.808 875.028 24.76 874.404 24.728C873.78 24.68 873.124 24.656 872.436 24.656C871.764 24.656 871.188 24.736 870.708 24.896C870.244 25.04 869.868 25.32 869.58 25.736C869.308 26.136 869.1 26.72 868.956 27.488C868.828 28.256 868.764 29.256 868.764 30.488C868.764 31.672 868.82 32.648 868.932 33.416C869.06 34.184 869.26 34.784 869.532 35.216C869.804 35.632 870.172 35.928 870.636 36.104C871.116 36.264 871.716 36.344 872.436 36.344C873.652 36.344 874.636 36.32 875.388 36.272C876.156 36.224 876.772 36.168 877.236 36.104L877.236 38.84C876.804 38.984 876.308 39.112 875.748 39.224C875.188 39.32 874.572 39.392 873.9 39.44C873.228 39.504 872.476 39.536 871.644 39.536Z"/>
</mask>
<path d="M692.867 39.392L688.618 21.632H692.29L695.146 34.16L698.482 21.632H701.746L705.058 34.16L707.914 21.632H711.586L707.339 39.392H703.715L700.114 26.864L696.491 39.392H692.867Z" stroke="white" stroke-width="3" mask="url(#path-4-outside-2_1_2682)"/>
<path d="M717.246 39.512C716.862 39.512 716.422 39.472 715.926 39.392C715.43 39.328 714.95 39.168 714.486 38.912C714.038 38.656 713.662 38.272 713.358 37.76C713.07 37.232 712.926 36.512 712.926 35.6L712.926 25.688C712.926 24.904 713.046 24.248 713.286 23.72C713.526 23.192 713.846 22.776 714.246 22.472C714.646 22.168 715.086 21.952 715.566 21.824C716.046 21.696 716.518 21.632 716.982 21.632C718.182 21.632 719.238 21.648 720.15 21.68C721.078 21.712 721.91 21.752 722.646 21.8C723.382 21.832 724.054 21.88 724.662 21.944L724.662 24.92H718.038C717.542 24.92 717.158 25.04 716.886 25.28C716.614 25.52 716.478 25.888 716.478 26.384L716.478 28.952L723.51 29.144L723.51 31.952L716.478 32.144L716.478 34.592C716.478 35.008 716.542 35.336 716.67 35.576C716.814 35.8 716.998 35.96 717.222 36.056C717.462 36.136 717.71 36.176 717.966 36.176H724.662L724.662 39.152C723.958 39.232 723.174 39.296 722.31 39.344C721.462 39.392 720.598 39.432 719.718 39.464C718.854 39.496 718.03 39.512 717.246 39.512Z" stroke="white" stroke-width="3" mask="url(#path-4-outside-2_1_2682)"/>
<path d="M733.434 39.392L733.434 21.632H740.418C742.178 21.632 743.458 22.04 744.258 22.856C745.074 23.656 745.482 24.8 745.482 26.288C745.482 26.992 745.378 27.616 745.17 28.16C744.978 28.688 744.698 29.128 744.33 29.48C743.962 29.816 743.522 30.048 743.01 30.176C743.394 30.272 743.762 30.424 744.114 30.632C744.482 30.84 744.81 31.12 745.098 31.472C745.402 31.824 745.634 32.256 745.794 32.768C745.97 33.264 746.058 33.84 746.058 34.496C746.058 35.696 745.85 36.656 745.434 37.376C745.034 38.096 744.434 38.616 743.634 38.936C742.85 39.24 741.882 39.392 740.73 39.392H733.434ZM736.986 36.2H740.634C741.05 36.2 741.41 36.12 741.714 35.96C742.018 35.8 742.25 35.552 742.41 35.216C742.586 34.88 742.674 34.432 742.674 33.872C742.674 33.408 742.586 33.016 742.41 32.696C742.234 32.376 741.994 32.128 741.69 31.952C741.386 31.776 741.034 31.688 740.634 31.688H736.986L736.986 36.2ZM736.986 28.952H740.442C740.954 28.952 741.354 28.768 741.642 28.4C741.946 28.016 742.098 27.52 742.098 26.912C742.114 26.128 741.954 25.584 741.618 25.28C741.282 24.976 740.874 24.824 740.394 24.824H736.986L736.986 28.952Z" stroke="white" stroke-width="3" mask="url(#path-4-outside-2_1_2682)"/>
<path d="M755.177 39.512C754.201 39.512 753.289 39.432 752.441 39.272C751.593 39.096 750.849 38.8 750.209 38.384C749.585 37.952 749.097 37.36 748.745 36.608C748.409 35.84 748.241 34.864 748.241 33.68L748.241 21.632H751.793L751.793 33.656C751.793 34.312 751.921 34.832 752.177 35.216C752.449 35.6 752.833 35.88 753.329 36.056C753.841 36.232 754.457 36.32 755.177 36.32C755.881 36.32 756.481 36.232 756.977 36.056C757.489 35.88 757.873 35.6 758.129 35.216C758.401 34.832 758.537 34.312 758.537 33.656L758.537 21.632H762.113L762.113 33.68C762.113 34.864 761.937 35.84 761.585 36.608C761.233 37.36 760.745 37.952 760.121 38.384C759.497 38.8 758.761 39.096 757.913 39.272C757.081 39.432 756.169 39.512 755.177 39.512Z" stroke="white" stroke-width="3" mask="url(#path-4-outside-2_1_2682)"/>
<path d="M769.158 39.392L769.158 34.016L763.806 21.632H767.502L771.006 30.392L774.486 21.632H778.038L772.71 34.016L772.71 39.392H769.158Z" stroke="white" stroke-width="3" mask="url(#path-4-outside-2_1_2682)"/>
<path d="M789.912 39.392L789.912 24.824H785.04L785.04 21.632H798.36L798.36 24.824H793.464L793.464 39.392H789.912Z" stroke="white" stroke-width="3" mask="url(#path-4-outside-2_1_2682)"/>
<path d="M800.278 39.392L800.278 21.632H807.622C808.326 21.632 808.982 21.72 809.59 21.896C810.198 22.056 810.734 22.344 811.198 22.76C811.662 23.176 812.022 23.752 812.278 24.488C812.55 25.224 812.686 26.168 812.686 27.32C812.686 28.136 812.606 28.832 812.446 29.408C812.286 29.984 812.07 30.456 811.798 30.824C811.542 31.192 811.246 31.488 810.91 31.712C810.574 31.936 810.23 32.12 809.878 32.264L813.19 39.392H809.566L806.71 32.816C806.518 32.816 806.294 32.816 806.038 32.816C805.798 32.8 805.55 32.792 805.294 32.792C805.038 32.792 804.782 32.792 804.526 32.792C804.27 32.792 804.038 32.784 803.83 32.768L803.83 39.392H800.278ZM803.83 29.96H806.998C807.318 29.96 807.606 29.92 807.862 29.84C808.118 29.76 808.342 29.624 808.534 29.432C808.726 29.224 808.87 28.952 808.966 28.616C809.078 28.28 809.134 27.848 809.134 27.32C809.134 26.824 809.078 26.416 808.966 26.096C808.87 25.76 808.726 25.504 808.534 25.328C808.342 25.136 808.118 25.008 807.862 24.944C807.606 24.864 807.318 24.824 806.998 24.824H803.83L803.83 29.96Z" stroke="white" stroke-width="3" mask="url(#path-4-outside-2_1_2682)"/>
<path d="M814.197 39.392L819.764 21.632H824.252L829.821 39.392H826.125L824.997 35.672H818.949L817.845 39.392H814.197ZM819.789 32.48H824.157L821.972 24.68L819.789 32.48Z" stroke="white" stroke-width="3" mask="url(#path-4-outside-2_1_2682)"/>
<path d="M831.286 39.392L831.285 25.688C831.285 24.904 831.405 24.248 831.645 23.72C831.885 23.192 832.205 22.776 832.605 22.472C833.005 22.168 833.445 21.952 833.925 21.824C834.405 21.696 834.877 21.632 835.341 21.632C835.917 21.632 836.629 21.64 837.477 21.656C838.341 21.656 839.253 21.68 840.213 21.728C841.189 21.776 842.125 21.848 843.021 21.944L843.021 24.92H836.325C835.829 24.92 835.453 25.056 835.197 25.328C834.957 25.584 834.837 25.928 834.837 26.36L834.837 29.384L841.869 29.576L841.87 32.384L834.838 32.576L834.838 39.392H831.286Z" stroke="white" stroke-width="3" mask="url(#path-4-outside-2_1_2682)"/>
<path d="M845.043 39.392L845.043 25.688C845.043 24.904 845.163 24.248 845.403 23.72C845.643 23.192 845.963 22.776 846.363 22.472C846.763 22.168 847.203 21.952 847.683 21.824C848.163 21.696 848.635 21.632 849.099 21.632C849.675 21.632 850.387 21.64 851.235 21.656C852.099 21.656 853.011 21.68 853.971 21.728C854.947 21.776 855.883 21.848 856.779 21.944L856.779 24.92H850.083C849.587 24.92 849.211 25.056 848.955 25.328C848.715 25.584 848.595 25.928 848.595 26.36L848.595 29.384L855.627 29.576L855.627 32.384L848.595 32.576L848.595 39.392H845.043Z" stroke="white" stroke-width="3" mask="url(#path-4-outside-2_1_2682)"/>
<path d="M859.036 39.392L859.035 21.632H862.587L862.588 39.392H859.036Z" stroke="white" stroke-width="3" mask="url(#path-4-outside-2_1_2682)"/>
<path d="M871.644 39.536C870.604 39.536 869.684 39.416 868.884 39.176C868.1 38.936 867.428 38.496 866.868 37.856C866.324 37.216 865.908 36.304 865.62 35.12C865.348 33.92 865.212 32.368 865.212 30.464C865.212 28.624 865.356 27.12 865.644 25.952C865.948 24.768 866.38 23.856 866.94 23.216C867.5 22.56 868.18 22.104 868.98 21.848C869.78 21.592 870.684 21.464 871.692 21.464C872.492 21.464 873.236 21.512 873.924 21.608C874.628 21.688 875.26 21.792 875.82 21.92C876.38 22.032 876.852 22.16 877.236 22.304L877.236 25.064C876.948 25 876.556 24.936 876.06 24.872C875.58 24.808 875.028 24.76 874.404 24.728C873.78 24.68 873.124 24.656 872.436 24.656C871.764 24.656 871.188 24.736 870.708 24.896C870.244 25.04 869.868 25.32 869.58 25.736C869.308 26.136 869.1 26.72 868.956 27.488C868.828 28.256 868.764 29.256 868.764 30.488C868.764 31.672 868.82 32.648 868.932 33.416C869.06 34.184 869.26 34.784 869.532 35.216C869.804 35.632 870.172 35.928 870.636 36.104C871.116 36.264 871.716 36.344 872.436 36.344C873.652 36.344 874.636 36.32 875.388 36.272C876.156 36.224 876.772 36.168 877.236 36.104L877.236 38.84C876.804 38.984 876.308 39.112 875.748 39.224C875.188 39.32 874.572 39.392 873.9 39.44C873.228 39.504 872.476 39.536 871.644 39.536Z" stroke="white" stroke-width="3" mask="url(#path-4-outside-2_1_2682)"/>
<path d="M921.892 39L917.644 21.24H921.316L924.172 33.768L927.508 21.24H930.772L934.084 33.768L936.94 21.24H940.612L936.364 39H932.74L929.14 26.472L925.516 39H921.892ZM946.272 39.12C945.888 39.12 945.448 39.08 944.952 39C944.456 38.936 943.976 38.776 943.512 38.52C943.064 38.264 942.688 37.88 942.384 37.368C942.096 36.84 941.952 36.12 941.952 35.208L941.952 25.296C941.952 24.512 942.072 23.856 942.312 23.328C942.552 22.8 942.872 22.384 943.272 22.08C943.672 21.776 944.112 21.56 944.592 21.432C945.072 21.304 945.544 21.24 946.008 21.24C947.208 21.24 948.264 21.256 949.176 21.288C950.104 21.32 950.936 21.36 951.672 21.408C952.408 21.44 953.08 21.488 953.688 21.552L953.688 24.528H947.064C946.568 24.528 946.184 24.648 945.912 24.888C945.64 25.128 945.504 25.496 945.504 25.992L945.504 28.56L952.536 28.752L952.536 31.56L945.504 31.752L945.504 34.2C945.504 34.616 945.568 34.944 945.696 35.184C945.84 35.408 946.024 35.568 946.248 35.664C946.488 35.744 946.736 35.784 946.992 35.784H953.688L953.688 38.76C952.984 38.84 952.2 38.904 951.336 38.952C950.488 39 949.624 39.04 948.744 39.072C947.88 39.104 947.056 39.12 946.272 39.12ZM962.46 39L962.46 21.24H969.444C971.204 21.24 972.484 21.648 973.284 22.464C974.1 23.264 974.508 24.408 974.508 25.896C974.508 26.6 974.404 27.224 974.196 27.768C974.004 28.296 973.724 28.736 973.356 29.088C972.988 29.424 972.548 29.656 972.036 29.784C972.42 29.88 972.788 30.032 973.14 30.24C973.508 30.448 973.836 30.728 974.124 31.08C974.428 31.432 974.66 31.864 974.82 32.376C974.996 32.872 975.084 33.448 975.084 34.104C975.084 35.304 974.876 36.264 974.46 36.984C974.06 37.704 973.46 38.224 972.66 38.544C971.876 38.848 970.908 39 969.756 39H962.46ZM966.012 35.808H969.66C970.076 35.808 970.436 35.728 970.74 35.568C971.044 35.408 971.276 35.16 971.436 34.824C971.612 34.488 971.7 34.04 971.7 33.48C971.7 33.016 971.612 32.624 971.436 32.304C971.26 31.984 971.02 31.736 970.716 31.56C970.412 31.384 970.06 31.296 969.66 31.296H966.012L966.012 35.808ZM966.012 28.56H969.468C969.98 28.56 970.38 28.376 970.668 28.008C970.972 27.624 971.124 27.128 971.124 26.52C971.14 25.736 970.98 25.192 970.644 24.888C970.308 24.584 969.9 24.432 969.42 24.432H966.012L966.012 28.56ZM984.203 39.12C983.227 39.12 982.315 39.04 981.467 38.88C980.619 38.704 979.875 38.408 979.235 37.992C978.611 37.56 978.123 36.968 977.771 36.216C977.435 35.448 977.267 34.472 977.267 33.288L977.266 21.24H980.818L980.819 33.264C980.819 33.92 980.947 34.44 981.203 34.824C981.475 35.208 981.859 35.488 982.355 35.664C982.867 35.84 983.483 35.928 984.203 35.928C984.907 35.928 985.507 35.84 986.003 35.664C986.515 35.488 986.899 35.208 987.155 34.824C987.427 34.44 987.563 33.92 987.563 33.264L987.562 21.24H991.138L991.139 33.288C991.139 34.472 990.963 35.448 990.611 36.216C990.259 36.968 989.771 37.56 989.147 37.992C988.523 38.408 987.787 38.704 986.939 38.88C986.107 39.04 985.195 39.12 984.203 39.12ZM998.184 39L998.184 33.624L992.832 21.24H996.528L1000.03 30L1003.51 21.24H1007.06L1001.74 33.624L1001.74 39H998.184ZM1018.94 39L1018.94 24.432H1014.07L1014.07 21.24H1027.39L1027.39 24.432H1022.49L1022.49 39H1018.94ZM1029.3 39L1029.3 21.24H1036.65C1037.35 21.24 1038.01 21.328 1038.62 21.504C1039.22 21.664 1039.76 21.952 1040.22 22.368C1040.69 22.784 1041.05 23.36 1041.3 24.096C1041.58 24.832 1041.71 25.776 1041.71 26.928C1041.71 27.744 1041.63 28.44 1041.47 29.016C1041.31 29.592 1041.1 30.064 1040.82 30.432C1040.57 30.8 1040.27 31.096 1039.94 31.32C1039.6 31.544 1039.26 31.728 1038.9 31.872L1042.22 39H1038.59L1035.74 32.424C1035.54 32.424 1035.32 32.424 1035.06 32.424C1034.82 32.408 1034.58 32.4 1034.32 32.4C1034.06 32.4 1033.81 32.4 1033.55 32.4C1033.3 32.4 1033.06 32.392 1032.86 32.376L1032.86 39H1029.3ZM1032.86 29.568H1036.02C1036.34 29.568 1036.63 29.528 1036.89 29.448C1037.14 29.368 1037.37 29.232 1037.56 29.04C1037.75 28.832 1037.9 28.56 1037.99 28.224C1038.1 27.888 1038.16 27.456 1038.16 26.928C1038.16 26.432 1038.1 26.024 1037.99 25.704C1037.9 25.368 1037.75 25.112 1037.56 24.936C1037.37 24.744 1037.14 24.616 1036.89 24.552C1036.63 24.472 1036.34 24.432 1036.02 24.432H1032.86L1032.86 29.568ZM1043.22 39L1048.79 21.24H1053.28L1058.85 39H1055.15L1054.02 35.28H1047.97L1046.87 39H1043.22ZM1048.81 32.088H1053.18L1051 24.288L1048.81 32.088ZM1060.31 39L1060.31 25.296C1060.31 24.512 1060.43 23.856 1060.67 23.328C1060.91 22.8 1061.23 22.384 1061.63 22.08C1062.03 21.776 1062.47 21.56 1062.95 21.432C1063.43 21.304 1063.9 21.24 1064.37 21.24C1064.94 21.24 1065.66 21.248 1066.5 21.264C1067.37 21.264 1068.28 21.288 1069.24 21.336C1070.22 21.384 1071.15 21.456 1072.05 21.552L1072.05 24.528H1065.35C1064.86 24.528 1064.48 24.664 1064.22 24.936C1063.98 25.192 1063.86 25.536 1063.86 25.968L1063.86 28.992L1070.9 29.184L1070.9 31.992L1063.86 32.184L1063.86 39H1060.31ZM1074.07 39L1074.07 25.296C1074.07 24.512 1074.19 23.856 1074.43 23.328C1074.67 22.8 1074.99 22.384 1075.39 22.08C1075.79 21.776 1076.23 21.56 1076.71 21.432C1077.19 21.304 1077.66 21.24 1078.12 21.24C1078.7 21.24 1079.41 21.248 1080.26 21.264C1081.12 21.264 1082.04 21.288 1083 21.336C1083.97 21.384 1084.91 21.456 1085.81 21.552L1085.81 24.528H1079.11C1078.61 24.528 1078.24 24.664 1077.98 24.936C1077.74 25.192 1077.62 25.536 1077.62 25.968L1077.62 28.992L1084.65 29.184L1084.65 31.992L1077.62 32.184L1077.62 39H1074.07ZM1088.06 39L1088.06 21.24H1091.61L1091.61 39H1088.06ZM1100.67 39.144C1099.63 39.144 1098.71 39.024 1097.91 38.784C1097.13 38.544 1096.45 38.104 1095.89 37.464C1095.35 36.824 1094.93 35.912 1094.65 34.728C1094.37 33.528 1094.24 31.976 1094.24 30.072C1094.24 28.232 1094.38 26.728 1094.67 25.56C1094.97 24.376 1095.41 23.464 1095.97 22.824C1096.53 22.168 1097.21 21.712 1098.01 21.456C1098.81 21.2 1099.71 21.072 1100.72 21.072C1101.52 21.072 1102.26 21.12 1102.95 21.216C1103.65 21.296 1104.29 21.4 1104.85 21.528C1105.41 21.64 1105.88 21.768 1106.26 21.912L1106.26 24.672C1105.97 24.608 1105.58 24.544 1105.09 24.48C1104.61 24.416 1104.05 24.368 1103.43 24.336C1102.81 24.288 1102.15 24.264 1101.46 24.264C1100.79 24.264 1100.21 24.344 1099.73 24.504C1099.27 24.648 1098.89 24.928 1098.61 25.344C1098.33 25.744 1098.13 26.328 1097.98 27.096C1097.85 27.864 1097.79 28.864 1097.79 30.096C1097.79 31.28 1097.85 32.256 1097.96 33.024C1098.09 33.792 1098.29 34.392 1098.56 34.824C1098.83 35.24 1099.2 35.536 1099.66 35.712C1100.14 35.872 1100.74 35.952 1101.46 35.952C1102.68 35.952 1103.66 35.928 1104.41 35.88C1105.18 35.832 1105.8 35.776 1106.26 35.712L1106.26 38.448C1105.83 38.592 1105.33 38.72 1104.77 38.832C1104.21 38.928 1103.6 39 1102.93 39.048C1102.25 39.112 1101.5 39.144 1100.67 39.144Z" fill="white"/>
<mask id="path-6-outside-3_1_2682" maskUnits="userSpaceOnUse" x="1145.24" y="18.464" width="193" height="23" fill="black">
<rect fill="white" x="1145.24" y="18.464" width="193" height="23"/>
<path d="M1151.48 39.392L1147.24 21.632H1150.91L1153.76 34.16L1157.1 21.632H1160.36L1163.68 34.16L1166.53 21.632H1170.2L1165.96 39.392H1162.33L1158.73 26.864L1155.11 39.392H1151.48Z"/>
<path d="M1175.86 39.512C1175.48 39.512 1175.04 39.472 1174.54 39.392C1174.05 39.328 1173.57 39.168 1173.1 38.912C1172.66 38.656 1172.28 38.272 1171.98 37.76C1171.69 37.232 1171.54 36.512 1171.54 35.6L1171.54 25.688C1171.54 24.904 1171.66 24.248 1171.9 23.72C1172.14 23.192 1172.46 22.776 1172.86 22.472C1173.26 22.168 1173.7 21.952 1174.18 21.824C1174.66 21.696 1175.14 21.632 1175.6 21.632C1176.8 21.632 1177.86 21.648 1178.77 21.68C1179.7 21.712 1180.53 21.752 1181.26 21.8C1182 21.832 1182.67 21.88 1183.28 21.944L1183.28 24.92H1176.66C1176.16 24.92 1175.78 25.04 1175.5 25.28C1175.23 25.52 1175.1 25.888 1175.1 26.384L1175.1 28.952L1182.13 29.144L1182.13 31.952L1175.1 32.144L1175.1 34.592C1175.1 35.008 1175.16 35.336 1175.29 35.576C1175.43 35.8 1175.62 35.96 1175.84 36.056C1176.08 36.136 1176.33 36.176 1176.58 36.176H1183.28L1183.28 39.152C1182.58 39.232 1181.79 39.296 1180.93 39.344C1180.08 39.392 1179.22 39.432 1178.34 39.464C1177.47 39.496 1176.65 39.512 1175.86 39.512Z"/>
<path d="M1192.05 39.392L1192.05 21.632H1199.04C1200.8 21.632 1202.08 22.04 1202.88 22.856C1203.69 23.656 1204.1 24.8 1204.1 26.288C1204.1 26.992 1204 27.616 1203.79 28.16C1203.6 28.688 1203.32 29.128 1202.95 29.48C1202.58 29.816 1202.14 30.048 1201.63 30.176C1202.01 30.272 1202.38 30.424 1202.73 30.632C1203.1 30.84 1203.43 31.12 1203.72 31.472C1204.02 31.824 1204.25 32.256 1204.41 32.768C1204.59 33.264 1204.68 33.84 1204.68 34.496C1204.68 35.696 1204.47 36.656 1204.05 37.376C1203.65 38.096 1203.05 38.616 1202.25 38.936C1201.47 39.24 1200.5 39.392 1199.35 39.392H1192.05ZM1195.6 36.2H1199.25C1199.67 36.2 1200.03 36.12 1200.33 35.96C1200.64 35.8 1200.87 35.552 1201.03 35.216C1201.2 34.88 1201.29 34.432 1201.29 33.872C1201.29 33.408 1201.2 33.016 1201.03 32.696C1200.85 32.376 1200.61 32.128 1200.31 31.952C1200 31.776 1199.65 31.688 1199.25 31.688H1195.6L1195.6 36.2ZM1195.6 28.952H1199.06C1199.57 28.952 1199.97 28.768 1200.26 28.4C1200.56 28.016 1200.72 27.52 1200.72 26.912C1200.73 26.128 1200.57 25.584 1200.24 25.28C1199.9 24.976 1199.49 24.824 1199.01 24.824H1195.6L1195.6 28.952Z"/>
<path d="M1213.79 39.512C1212.82 39.512 1211.91 39.432 1211.06 39.272C1210.21 39.096 1209.47 38.8 1208.83 38.384C1208.2 37.952 1207.71 37.36 1207.36 36.608C1207.03 35.84 1206.86 34.864 1206.86 33.68L1206.86 21.632H1210.41L1210.41 33.656C1210.41 34.312 1210.54 34.832 1210.79 35.216C1211.07 35.6 1211.45 35.88 1211.95 36.056C1212.46 36.232 1213.07 36.32 1213.79 36.32C1214.5 36.32 1215.1 36.232 1215.59 36.056C1216.11 35.88 1216.49 35.6 1216.75 35.216C1217.02 34.832 1217.15 34.312 1217.15 33.656L1217.15 21.632H1220.73L1220.73 33.68C1220.73 34.864 1220.55 35.84 1220.2 36.608C1219.85 37.36 1219.36 37.952 1218.74 38.384C1218.11 38.8 1217.38 39.096 1216.53 39.272C1215.7 39.432 1214.79 39.512 1213.79 39.512Z"/>
<path d="M1227.78 39.392L1227.78 34.016L1222.42 21.632H1226.12L1229.62 30.392L1233.1 21.632H1236.66L1231.33 34.016L1231.33 39.392H1227.78Z"/>
<path d="M1248.53 39.392L1248.53 24.824H1243.66L1243.66 21.632H1256.98L1256.98 24.824H1252.08L1252.08 39.392H1248.53Z"/>
<path d="M1258.9 39.392L1258.9 21.632H1266.24C1266.94 21.632 1267.6 21.72 1268.21 21.896C1268.82 22.056 1269.35 22.344 1269.82 22.76C1270.28 23.176 1270.64 23.752 1270.9 24.488C1271.17 25.224 1271.3 26.168 1271.3 27.32C1271.3 28.136 1271.22 28.832 1271.06 29.408C1270.9 29.984 1270.69 30.456 1270.42 30.824C1270.16 31.192 1269.86 31.488 1269.53 31.712C1269.19 31.936 1268.85 32.12 1268.5 32.264L1271.81 39.392H1268.18L1265.33 32.816C1265.14 32.816 1264.91 32.816 1264.66 32.816C1264.42 32.8 1264.17 32.792 1263.91 32.792C1263.66 32.792 1263.4 32.792 1263.14 32.792C1262.89 32.792 1262.66 32.784 1262.45 32.768L1262.45 39.392H1258.9ZM1262.45 29.96H1265.62C1265.94 29.96 1266.22 29.92 1266.48 29.84C1266.74 29.76 1266.96 29.624 1267.15 29.432C1267.34 29.224 1267.49 28.952 1267.58 28.616C1267.7 28.28 1267.75 27.848 1267.75 27.32C1267.75 26.824 1267.7 26.416 1267.58 26.096C1267.49 25.76 1267.34 25.504 1267.15 25.328C1266.96 25.136 1266.74 25.008 1266.48 24.944C1266.22 24.864 1265.94 24.824 1265.62 24.824H1262.45L1262.45 29.96Z"/>
<path d="M1272.81 39.392L1278.38 21.632H1282.87L1288.44 39.392H1284.74L1283.61 35.672H1277.57L1276.46 39.392H1272.81ZM1278.41 32.48H1282.77L1280.59 24.68L1278.41 32.48Z"/>
<path d="M1289.9 39.392L1289.9 25.688C1289.9 24.904 1290.02 24.248 1290.26 23.72C1290.5 23.192 1290.82 22.776 1291.22 22.472C1291.62 22.168 1292.06 21.952 1292.54 21.824C1293.02 21.696 1293.5 21.632 1293.96 21.632C1294.54 21.632 1295.25 21.64 1296.1 21.656C1296.96 21.656 1297.87 21.68 1298.83 21.728C1299.81 21.776 1300.74 21.848 1301.64 21.944L1301.64 24.92H1294.94C1294.45 24.92 1294.07 25.056 1293.82 25.328C1293.58 25.584 1293.46 25.928 1293.46 26.36L1293.46 29.384L1300.49 29.576L1300.49 32.384L1293.46 32.576L1293.46 39.392H1289.9Z"/>
<path d="M1303.66 39.392L1303.66 25.688C1303.66 24.904 1303.78 24.248 1304.02 23.72C1304.26 23.192 1304.58 22.776 1304.98 22.472C1305.38 22.168 1305.82 21.952 1306.3 21.824C1306.78 21.696 1307.25 21.632 1307.72 21.632C1308.29 21.632 1309.01 21.64 1309.85 21.656C1310.72 21.656 1311.63 21.68 1312.59 21.728C1313.57 21.776 1314.5 21.848 1315.4 21.944L1315.4 24.92H1308.7C1308.21 24.92 1307.83 25.056 1307.57 25.328C1307.33 25.584 1307.21 25.928 1307.21 26.36L1307.21 29.384L1314.25 29.576L1314.25 32.384L1307.21 32.576L1307.21 39.392H1303.66Z"/>
<path d="M1317.65 39.392L1317.65 21.632H1321.21L1321.21 39.392H1317.65Z"/>
<path d="M1330.26 39.536C1329.22 39.536 1328.3 39.416 1327.5 39.176C1326.72 38.936 1326.05 38.496 1325.49 37.856C1324.94 37.216 1324.53 36.304 1324.24 35.12C1323.97 33.92 1323.83 32.368 1323.83 30.464C1323.83 28.624 1323.97 27.12 1324.26 25.952C1324.57 24.768 1325 23.856 1325.56 23.216C1326.12 22.56 1326.8 22.104 1327.6 21.848C1328.4 21.592 1329.3 21.464 1330.31 21.464C1331.11 21.464 1331.85 21.512 1332.54 21.608C1333.25 21.688 1333.88 21.792 1334.44 21.92C1335 22.032 1335.47 22.16 1335.85 22.304L1335.85 25.064C1335.57 25 1335.17 24.936 1334.68 24.872C1334.2 24.808 1333.65 24.76 1333.02 24.728C1332.4 24.68 1331.74 24.656 1331.05 24.656C1330.38 24.656 1329.81 24.736 1329.33 24.896C1328.86 25.04 1328.49 25.32 1328.2 25.736C1327.93 26.136 1327.72 26.72 1327.57 27.488C1327.45 28.256 1327.38 29.256 1327.38 30.488C1327.38 31.672 1327.44 32.648 1327.55 33.416C1327.68 34.184 1327.88 34.784 1328.15 35.216C1328.42 35.632 1328.79 35.928 1329.25 36.104C1329.73 36.264 1330.33 36.344 1331.05 36.344C1332.27 36.344 1333.25 36.32 1334.01 36.272C1334.77 36.224 1335.39 36.168 1335.85 36.104L1335.85 38.84C1335.42 38.984 1334.93 39.112 1334.37 39.224C1333.81 39.32 1333.19 39.392 1332.52 39.44C1331.85 39.504 1331.09 39.536 1330.26 39.536Z"/>
</mask>
<path d="M1151.48 39.392L1147.24 21.632H1150.91L1153.76 34.16L1157.1 21.632H1160.36L1163.68 34.16L1166.53 21.632H1170.2L1165.96 39.392H1162.33L1158.73 26.864L1155.11 39.392H1151.48Z" stroke="white" stroke-width="3" mask="url(#path-6-outside-3_1_2682)"/>
<path d="M1175.86 39.512C1175.48 39.512 1175.04 39.472 1174.54 39.392C1174.05 39.328 1173.57 39.168 1173.1 38.912C1172.66 38.656 1172.28 38.272 1171.98 37.76C1171.69 37.232 1171.54 36.512 1171.54 35.6L1171.54 25.688C1171.54 24.904 1171.66 24.248 1171.9 23.72C1172.14 23.192 1172.46 22.776 1172.86 22.472C1173.26 22.168 1173.7 21.952 1174.18 21.824C1174.66 21.696 1175.14 21.632 1175.6 21.632C1176.8 21.632 1177.86 21.648 1178.77 21.68C1179.7 21.712 1180.53 21.752 1181.26 21.8C1182 21.832 1182.67 21.88 1183.28 21.944L1183.28 24.92H1176.66C1176.16 24.92 1175.78 25.04 1175.5 25.28C1175.23 25.52 1175.1 25.888 1175.1 26.384L1175.1 28.952L1182.13 29.144L1182.13 31.952L1175.1 32.144L1175.1 34.592C1175.1 35.008 1175.16 35.336 1175.29 35.576C1175.43 35.8 1175.62 35.96 1175.84 36.056C1176.08 36.136 1176.33 36.176 1176.58 36.176H1183.28L1183.28 39.152C1182.58 39.232 1181.79 39.296 1180.93 39.344C1180.08 39.392 1179.22 39.432 1178.34 39.464C1177.47 39.496 1176.65 39.512 1175.86 39.512Z" stroke="white" stroke-width="3" mask="url(#path-6-outside-3_1_2682)"/>
<path d="M1192.05 39.392L1192.05 21.632H1199.04C1200.8 21.632 1202.08 22.04 1202.88 22.856C1203.69 23.656 1204.1 24.8 1204.1 26.288C1204.1 26.992 1204 27.616 1203.79 28.16C1203.6 28.688 1203.32 29.128 1202.95 29.48C1202.58 29.816 1202.14 30.048 1201.63 30.176C1202.01 30.272 1202.38 30.424 1202.73 30.632C1203.1 30.84 1203.43 31.12 1203.72 31.472C1204.02 31.824 1204.25 32.256 1204.41 32.768C1204.59 33.264 1204.68 33.84 1204.68 34.496C1204.68 35.696 1204.47 36.656 1204.05 37.376C1203.65 38.096 1203.05 38.616 1202.25 38.936C1201.47 39.24 1200.5 39.392 1199.35 39.392H1192.05ZM1195.6 36.2H1199.25C1199.67 36.2 1200.03 36.12 1200.33 35.96C1200.64 35.8 1200.87 35.552 1201.03 35.216C1201.2 34.88 1201.29 34.432 1201.29 33.872C1201.29 33.408 1201.2 33.016 1201.03 32.696C1200.85 32.376 1200.61 32.128 1200.31 31.952C1200 31.776 1199.65 31.688 1199.25 31.688H1195.6L1195.6 36.2ZM1195.6 28.952H1199.06C1199.57 28.952 1199.97 28.768 1200.26 28.4C1200.56 28.016 1200.72 27.52 1200.72 26.912C1200.73 26.128 1200.57 25.584 1200.24 25.28C1199.9 24.976 1199.49 24.824 1199.01 24.824H1195.6L1195.6 28.952Z" stroke="white" stroke-width="3" mask="url(#path-6-outside-3_1_2682)"/>
<path d="M1213.79 39.512C1212.82 39.512 1211.91 39.432 1211.06 39.272C1210.21 39.096 1209.47 38.8 1208.83 38.384C1208.2 37.952 1207.71 37.36 1207.36 36.608C1207.03 35.84 1206.86 34.864 1206.86 33.68L1206.86 21.632H1210.41L1210.41 33.656C1210.41 34.312 1210.54 34.832 1210.79 35.216C1211.07 35.6 1211.45 35.88 1211.95 36.056C1212.46 36.232 1213.07 36.32 1213.79 36.32C1214.5 36.32 1215.1 36.232 1215.59 36.056C1216.11 35.88 1216.49 35.6 1216.75 35.216C1217.02 34.832 1217.15 34.312 1217.15 33.656L1217.15 21.632H1220.73L1220.73 33.68C1220.73 34.864 1220.55 35.84 1220.2 36.608C1219.85 37.36 1219.36 37.952 1218.74 38.384C1218.11 38.8 1217.38 39.096 1216.53 39.272C1215.7 39.432 1214.79 39.512 1213.79 39.512Z" stroke="white" stroke-width="3" mask="url(#path-6-outside-3_1_2682)"/>
<path d="M1227.78 39.392L1227.78 34.016L1222.42 21.632H1226.12L1229.62 30.392L1233.1 21.632H1236.66L1231.33 34.016L1231.33 39.392H1227.78Z" stroke="white" stroke-width="3" mask="url(#path-6-outside-3_1_2682)"/>
<path d="M1248.53 39.392L1248.53 24.824H1243.66L1243.66 21.632H1256.98L1256.98 24.824H1252.08L1252.08 39.392H1248.53Z" stroke="white" stroke-width="3" mask="url(#path-6-outside-3_1_2682)"/>
<path d="M1258.9 39.392L1258.9 21.632H1266.24C1266.94 21.632 1267.6 21.72 1268.21 21.896C1268.82 22.056 1269.35 22.344 1269.82 22.76C1270.28 23.176 1270.64 23.752 1270.9 24.488C1271.17 25.224 1271.3 26.168 1271.3 27.32C1271.3 28.136 1271.22 28.832 1271.06 29.408C1270.9 29.984 1270.69 30.456 1270.42 30.824C1270.16 31.192 1269.86 31.488 1269.53 31.712C1269.19 31.936 1268.85 32.12 1268.5 32.264L1271.81 39.392H1268.18L1265.33 32.816C1265.14 32.816 1264.91 32.816 1264.66 32.816C1264.42 32.8 1264.17 32.792 1263.91 32.792C1263.66 32.792 1263.4 32.792 1263.14 32.792C1262.89 32.792 1262.66 32.784 1262.45 32.768L1262.45 39.392H1258.9ZM1262.45 29.96H1265.62C1265.94 29.96 1266.22 29.92 1266.48 29.84C1266.74 29.76 1266.96 29.624 1267.15 29.432C1267.34 29.224 1267.49 28.952 1267.58 28.616C1267.7 28.28 1267.75 27.848 1267.75 27.32C1267.75 26.824 1267.7 26.416 1267.58 26.096C1267.49 25.76 1267.34 25.504 1267.15 25.328C1266.96 25.136 1266.74 25.008 1266.48 24.944C1266.22 24.864 1265.94 24.824 1265.62 24.824H1262.45L1262.45 29.96Z" stroke="white" stroke-width="3" mask="url(#path-6-outside-3_1_2682)"/>
<path d="M1272.81 39.392L1278.38 21.632H1282.87L1288.44 39.392H1284.74L1283.61 35.672H1277.57L1276.46 39.392H1272.81ZM1278.41 32.48H1282.77L1280.59 24.68L1278.41 32.48Z" stroke="white" stroke-width="3" mask="url(#path-6-outside-3_1_2682)"/>
<path d="M1289.9 39.392L1289.9 25.688C1289.9 24.904 1290.02 24.248 1290.26 23.72C1290.5 23.192 1290.82 22.776 1291.22 22.472C1291.62 22.168 1292.06 21.952 1292.54 21.824C1293.02 21.696 1293.5 21.632 1293.96 21.632C1294.54 21.632 1295.25 21.64 1296.1 21.656C1296.96 21.656 1297.87 21.68 1298.83 21.728C1299.81 21.776 1300.74 21.848 1301.64 21.944L1301.64 24.92H1294.94C1294.45 24.92 1294.07 25.056 1293.82 25.328C1293.58 25.584 1293.46 25.928 1293.46 26.36L1293.46 29.384L1300.49 29.576L1300.49 32.384L1293.46 32.576L1293.46 39.392H1289.9Z" stroke="white" stroke-width="3" mask="url(#path-6-outside-3_1_2682)"/>
<path d="M1303.66 39.392L1303.66 25.688C1303.66 24.904 1303.78 24.248 1304.02 23.72C1304.26 23.192 1304.58 22.776 1304.98 22.472C1305.38 22.168 1305.82 21.952 1306.3 21.824C1306.78 21.696 1307.25 21.632 1307.72 21.632C1308.29 21.632 1309.01 21.64 1309.85 21.656C1310.72 21.656 1311.63 21.68 1312.59 21.728C1313.57 21.776 1314.5 21.848 1315.4 21.944L1315.4 24.92H1308.7C1308.21 24.92 1307.83 25.056 1307.57 25.328C1307.33 25.584 1307.21 25.928 1307.21 26.36L1307.21 29.384L1314.25 29.576L1314.25 32.384L1307.21 32.576L1307.21 39.392H1303.66Z" stroke="white" stroke-width="3" mask="url(#path-6-outside-3_1_2682)"/>
<path d="M1317.65 39.392L1317.65 21.632H1321.21L1321.21 39.392H1317.65Z" stroke="white" stroke-width="3" mask="url(#path-6-outside-3_1_2682)"/>
<path d="M1330.26 39.536C1329.22 39.536 1328.3 39.416 1327.5 39.176C1326.72 38.936 1326.05 38.496 1325.49 37.856C1324.94 37.216 1324.53 36.304 1324.24 35.12C1323.97 33.92 1323.83 32.368 1323.83 30.464C1323.83 28.624 1323.97 27.12 1324.26 25.952C1324.57 24.768 1325 23.856 1325.56 23.216C1326.12 22.56 1326.8 22.104 1327.6 21.848C1328.4 21.592 1329.3 21.464 1330.31 21.464C1331.11 21.464 1331.85 21.512 1332.54 21.608C1333.25 21.688 1333.88 21.792 1334.44 21.92C1335 22.032 1335.47 22.16 1335.85 22.304L1335.85 25.064C1335.57 25 1335.17 24.936 1334.68 24.872C1334.2 24.808 1333.65 24.76 1333.02 24.728C1332.4 24.68 1331.74 24.656 1331.05 24.656C1330.38 24.656 1329.81 24.736 1329.33 24.896C1328.86 25.04 1328.49 25.32 1328.2 25.736C1327.93 26.136 1327.72 26.72 1327.57 27.488C1327.45 28.256 1327.38 29.256 1327.38 30.488C1327.38 31.672 1327.44 32.648 1327.55 33.416C1327.68 34.184 1327.88 34.784 1328.15 35.216C1328.42 35.632 1328.79 35.928 1329.25 36.104C1329.73 36.264 1330.33 36.344 1331.05 36.344C1332.27 36.344 1333.25 36.32 1334.01 36.272C1334.77 36.224 1335.39 36.168 1335.85 36.104L1335.85 38.84C1335.42 38.984 1334.93 39.112 1334.37 39.224C1333.81 39.32 1333.19 39.392 1332.52 39.44C1331.85 39.504 1331.09 39.536 1330.26 39.536Z" stroke="white" stroke-width="3" mask="url(#path-6-outside-3_1_2682)"/>
<path d="M1380.51 39L1376.26 21.24H1379.93L1382.79 33.768L1386.13 21.24H1389.39L1392.7 33.768L1395.56 21.24H1399.23L1394.98 39H1391.36L1387.76 26.472L1384.13 39H1380.51ZM1404.89 39.12C1404.51 39.12 1404.07 39.08 1403.57 39C1403.07 38.936 1402.59 38.776 1402.13 38.52C1401.68 38.264 1401.31 37.88 1401 37.368C1400.71 36.84 1400.57 36.12 1400.57 35.208L1400.57 25.296C1400.57 24.512 1400.69 23.856 1400.93 23.328C1401.17 22.8 1401.49 22.384 1401.89 22.08C1402.29 21.776 1402.73 21.56 1403.21 21.432C1403.69 21.304 1404.16 21.24 1404.63 21.24C1405.83 21.24 1406.88 21.256 1407.79 21.288C1408.72 21.32 1409.55 21.36 1410.29 21.408C1411.03 21.44 1411.7 21.488 1412.31 21.552L1412.31 24.528H1405.68C1405.19 24.528 1404.8 24.648 1404.53 24.888C1404.26 25.128 1404.12 25.496 1404.12 25.992L1404.12 28.56L1411.15 28.752L1411.15 31.56L1404.12 31.752L1404.12 34.2C1404.12 34.616 1404.19 34.944 1404.31 35.184C1404.46 35.408 1404.64 35.568 1404.87 35.664C1405.11 35.744 1405.35 35.784 1405.61 35.784H1412.31L1412.31 38.76C1411.6 38.84 1410.82 38.904 1409.95 38.952C1409.11 39 1408.24 39.04 1407.36 39.072C1406.5 39.104 1405.67 39.12 1404.89 39.12ZM1421.08 39L1421.08 21.24H1428.06C1429.82 21.24 1431.1 21.648 1431.9 22.464C1432.72 23.264 1433.13 24.408 1433.13 25.896C1433.13 26.6 1433.02 27.224 1432.81 27.768C1432.62 28.296 1432.34 28.736 1431.97 29.088C1431.61 29.424 1431.17 29.656 1430.65 29.784C1431.04 29.88 1431.41 30.032 1431.76 30.24C1432.13 30.448 1432.45 30.728 1432.74 31.08C1433.05 31.432 1433.28 31.864 1433.44 32.376C1433.61 32.872 1433.7 33.448 1433.7 34.104C1433.7 35.304 1433.49 36.264 1433.08 36.984C1432.68 37.704 1432.08 38.224 1431.28 38.544C1430.49 38.848 1429.53 39 1428.37 39H1421.08ZM1424.63 35.808H1428.28C1428.69 35.808 1429.05 35.728 1429.36 35.568C1429.66 35.408 1429.89 35.16 1430.05 34.824C1430.23 34.488 1430.32 34.04 1430.32 33.48C1430.32 33.016 1430.23 32.624 1430.05 32.304C1429.88 31.984 1429.64 31.736 1429.33 31.56C1429.03 31.384 1428.68 31.296 1428.28 31.296H1424.63L1424.63 35.808ZM1424.63 28.56H1428.09C1428.6 28.56 1429 28.376 1429.29 28.008C1429.59 27.624 1429.74 27.128 1429.74 26.52C1429.76 25.736 1429.6 25.192 1429.26 24.888C1428.93 24.584 1428.52 24.432 1428.04 24.432H1424.63L1424.63 28.56ZM1442.82 39.12C1441.84 39.12 1440.93 39.04 1440.08 38.88C1439.24 38.704 1438.49 38.408 1437.85 37.992C1437.23 37.56 1436.74 36.968 1436.39 36.216C1436.05 35.448 1435.88 34.472 1435.88 33.288L1435.88 21.24H1439.44L1439.44 33.264C1439.44 33.92 1439.56 34.44 1439.82 34.824C1440.09 35.208 1440.48 35.488 1440.97 35.664C1441.48 35.84 1442.1 35.928 1442.82 35.928C1443.52 35.928 1444.12 35.84 1444.62 35.664C1445.13 35.488 1445.52 35.208 1445.77 34.824C1446.04 34.44 1446.18 33.92 1446.18 33.264L1446.18 21.24H1449.76L1449.76 33.288C1449.76 34.472 1449.58 35.448 1449.23 36.216C1448.88 36.968 1448.39 37.56 1447.76 37.992C1447.14 38.408 1446.4 38.704 1445.56 38.88C1444.72 39.04 1443.81 39.12 1442.82 39.12ZM1456.8 39L1456.8 33.624L1451.45 21.24H1455.15L1458.65 30L1462.13 21.24H1465.68L1460.35 33.624L1460.35 39H1456.8ZM1477.56 39L1477.56 24.432H1472.68L1472.68 21.24H1486L1486 24.432H1481.11L1481.11 39H1477.56ZM1487.92 39L1487.92 21.24H1495.27C1495.97 21.24 1496.63 21.328 1497.23 21.504C1497.84 21.664 1498.38 21.952 1498.84 22.368C1499.31 22.784 1499.67 23.36 1499.92 24.096C1500.19 24.832 1500.33 25.776 1500.33 26.928C1500.33 27.744 1500.25 28.44 1500.09 29.016C1499.93 29.592 1499.71 30.064 1499.44 30.432C1499.19 30.8 1498.89 31.096 1498.55 31.32C1498.22 31.544 1497.87 31.728 1497.52 31.872L1500.83 39H1497.21L1494.35 32.424C1494.16 32.424 1493.94 32.424 1493.68 32.424C1493.44 32.408 1493.19 32.4 1492.94 32.4C1492.68 32.4 1492.43 32.4 1492.17 32.4C1491.91 32.4 1491.68 32.392 1491.47 32.376L1491.47 39H1487.92ZM1491.47 29.568H1494.64C1494.96 29.568 1495.25 29.528 1495.51 29.448C1495.76 29.368 1495.99 29.232 1496.18 29.04C1496.37 28.832 1496.51 28.56 1496.61 28.224C1496.72 27.888 1496.78 27.456 1496.78 26.928C1496.78 26.432 1496.72 26.024 1496.61 25.704C1496.51 25.368 1496.37 25.112 1496.18 24.936C1495.99 24.744 1495.76 24.616 1495.51 24.552C1495.25 24.472 1494.96 24.432 1494.64 24.432H1491.47L1491.47 29.568ZM1501.84 39L1507.41 21.24H1511.9L1517.46 39H1513.77L1512.64 35.28H1506.59L1505.49 39H1501.84ZM1507.43 32.088H1511.8L1509.62 24.288L1507.43 32.088ZM1518.93 39L1518.93 25.296C1518.93 24.512 1519.05 23.856 1519.29 23.328C1519.53 22.8 1519.85 22.384 1520.25 22.08C1520.65 21.776 1521.09 21.56 1521.57 21.432C1522.05 21.304 1522.52 21.24 1522.99 21.24C1523.56 21.24 1524.27 21.248 1525.12 21.264C1525.99 21.264 1526.9 21.288 1527.86 21.336C1528.83 21.384 1529.77 21.456 1530.67 21.552L1530.67 24.528H1523.97C1523.47 24.528 1523.1 24.664 1522.84 24.936C1522.6 25.192 1522.48 25.536 1522.48 25.968L1522.48 28.992L1529.51 29.184L1529.51 31.992L1522.48 32.184L1522.48 39H1518.93ZM1532.69 39L1532.69 25.296C1532.69 24.512 1532.81 23.856 1533.05 23.328C1533.29 22.8 1533.61 22.384 1534.01 22.08C1534.41 21.776 1534.85 21.56 1535.33 21.432C1535.81 21.304 1536.28 21.24 1536.74 21.24C1537.32 21.24 1538.03 21.248 1538.88 21.264C1539.74 21.264 1540.65 21.288 1541.61 21.336C1542.59 21.384 1543.53 21.456 1544.42 21.552L1544.42 24.528H1537.73C1537.23 24.528 1536.85 24.664 1536.6 24.936C1536.36 25.192 1536.24 25.536 1536.24 25.968L1536.24 28.992L1543.27 29.184L1543.27 31.992L1536.24 32.184L1536.24 39H1532.69ZM1546.68 39L1546.68 21.24H1550.23L1550.23 39H1546.68ZM1559.29 39.144C1558.25 39.144 1557.33 39.024 1556.53 38.784C1555.74 38.544 1555.07 38.104 1554.51 37.464C1553.97 36.824 1553.55 35.912 1553.26 34.728C1552.99 33.528 1552.86 31.976 1552.86 30.072C1552.86 28.232 1553 26.728 1553.29 25.56C1553.59 24.376 1554.02 23.464 1554.58 22.824C1555.14 22.168 1555.82 21.712 1556.62 21.456C1557.42 21.2 1558.33 21.072 1559.34 21.072C1560.14 21.072 1560.88 21.12 1561.57 21.216C1562.27 21.296 1562.9 21.4 1563.46 21.528C1564.02 21.64 1564.5 21.768 1564.88 21.912L1564.88 24.672C1564.59 24.608 1564.2 24.544 1563.7 24.48C1563.22 24.416 1562.67 24.368 1562.05 24.336C1561.42 24.288 1560.77 24.264 1560.08 24.264C1559.41 24.264 1558.83 24.344 1558.35 24.504C1557.89 24.648 1557.51 24.928 1557.22 25.344C1556.95 25.744 1556.74 26.328 1556.6 27.096C1556.47 27.864 1556.41 28.864 1556.41 30.096C1556.41 31.28 1556.46 32.256 1556.58 33.024C1556.7 33.792 1556.9 34.392 1557.18 34.824C1557.45 35.24 1557.82 35.536 1558.28 35.712C1558.76 35.872 1559.36 35.952 1560.08 35.952C1561.3 35.952 1562.28 35.928 1563.03 35.88C1563.8 35.832 1564.42 35.776 1564.88 35.712L1564.88 38.448C1564.45 38.592 1563.95 38.72 1563.39 38.832C1562.83 38.928 1562.22 39 1561.54 39.048C1560.87 39.112 1560.12 39.144 1559.29 39.144Z" fill="white"/>
</g>
<defs>
<clipPath id="clip0_1_2682">
<rect width="1454.1" height="61" fill="white" transform="matrix(1 0 1.85081e-05 1 0 0)"/>
</clipPath>
</defs>
</svg>
