<svg width="1455" height="61" viewBox="0 0 1455 61" fill="none" xmlns="http://www.w3.org/2000/svg">
<g clip-path="url(#clip0_1_2707)">
<rect width="1454.1" height="61" transform="matrix(1 0 1.85081e-05 1 0 0)" fill="#E9A923"/>
<mask id="path-1-outside-1_1_2707" maskUnits="userSpaceOnUse" x="-112.272" y="18.464" width="193" height="23" fill="black">
<rect fill="white" x="-112.272" y="18.464" width="193" height="23"/>
<path d="M-106.024 39.392L-110.272 21.632H-106.6L-103.744 34.16L-100.408 21.632H-97.1442L-93.8319 34.16L-90.9762 21.632H-87.3042L-91.5518 39.392H-95.1758L-98.7761 26.864L-102.4 39.392H-106.024Z"/>
<path d="M-81.6441 39.512C-82.0281 39.512 -82.4681 39.472 -82.9641 39.392C-83.4601 39.328 -83.9401 39.168 -84.4041 38.912C-84.8522 38.656 -85.2282 38.272 -85.5322 37.76C-85.8202 37.232 -85.9642 36.512 -85.9642 35.6L-85.9644 25.688C-85.9644 24.904 -85.8444 24.248 -85.6044 23.72C-85.3644 23.192 -85.0444 22.776 -84.6444 22.472C-84.2445 22.168 -83.8045 21.952 -83.3245 21.824C-82.8445 21.696 -82.3725 21.632 -81.9085 21.632C-80.7085 21.632 -79.6525 21.648 -78.7405 21.68C-77.8125 21.712 -76.9805 21.752 -76.2445 21.8C-75.5085 21.832 -74.8365 21.88 -74.2285 21.944L-74.2284 24.92H-80.8524C-81.3484 24.92 -81.7324 25.04 -82.0044 25.28C-82.2764 25.52 -82.4124 25.888 -82.4124 26.384L-82.4123 28.952L-75.3803 29.144L-75.3803 31.952L-82.4123 32.144L-82.4122 34.592C-82.4122 35.008 -82.3482 35.336 -82.2202 35.576C-82.0762 35.8 -81.8922 35.96 -81.6682 36.056C-81.4282 36.136 -81.1802 36.176 -80.9242 36.176H-74.2282L-74.2281 39.152C-74.9321 39.232 -75.7161 39.296 -76.5801 39.344C-77.4281 39.392 -78.2921 39.432 -79.1721 39.464C-80.0361 39.496 -80.8601 39.512 -81.6441 39.512Z"/>
<path d="M-65.4563 39.392L-65.4567 21.632H-58.4727C-56.7127 21.632 -55.4326 22.04 -54.6326 22.856C-53.8166 23.656 -53.4086 24.8 -53.4086 26.288C-53.4086 26.992 -53.5125 27.616 -53.7205 28.16C-53.9125 28.688 -54.1925 29.128 -54.5605 29.48C-54.9285 29.816 -55.3685 30.048 -55.8805 30.176C-55.4965 30.272 -55.1285 30.424 -54.7765 30.632C-54.4085 30.84 -54.0805 31.12 -53.7925 31.472C-53.4885 31.824 -53.2565 32.256 -53.0964 32.768C-52.9204 33.264 -52.8324 33.84 -52.8324 34.496C-52.8324 35.696 -53.0404 36.656 -53.4564 37.376C-53.8564 38.096 -54.4563 38.616 -55.2563 38.936C-56.0403 39.24 -57.0083 39.392 -58.1603 39.392H-65.4563ZM-61.9044 36.2H-58.2564C-57.8404 36.2 -57.4804 36.12 -57.1764 35.96C-56.8724 35.8 -56.6404 35.552 -56.4804 35.216C-56.3044 34.88 -56.2164 34.432 -56.2164 33.872C-56.2164 33.408 -56.3044 33.016 -56.4804 32.696C-56.6565 32.376 -56.8965 32.128 -57.2005 31.952C-57.5045 31.776 -57.8565 31.688 -58.2565 31.688H-61.9045L-61.9044 36.2ZM-61.9045 28.952H-58.4485C-57.9365 28.952 -57.5365 28.768 -57.2485 28.4C-56.9445 28.016 -56.7925 27.52 -56.7926 26.912C-56.7766 26.128 -56.9366 25.584 -57.2726 25.28C-57.6086 24.976 -58.0166 24.824 -58.4966 24.824H-61.9046L-61.9045 28.952Z"/>
<path d="M-43.7134 39.512C-44.6894 39.512 -45.6014 39.432 -46.4494 39.272C-47.2975 39.096 -48.0415 38.8 -48.6815 38.384C-49.3055 37.952 -49.7935 37.36 -50.1455 36.608C-50.4815 35.84 -50.6495 34.864 -50.6496 33.68L-50.6498 21.632H-47.0978L-47.0976 33.656C-47.0975 34.312 -46.9695 34.832 -46.7135 35.216C-46.4415 35.6 -46.0575 35.88 -45.5615 36.056C-45.0495 36.232 -44.4335 36.32 -43.7135 36.32C-43.0095 36.32 -42.4095 36.232 -41.9135 36.056C-41.4015 35.88 -41.0175 35.6 -40.7615 35.216C-40.4895 34.832 -40.3535 34.312 -40.3535 33.656L-40.3538 21.632H-36.7778L-36.7776 33.68C-36.7775 34.864 -36.9535 35.84 -37.3055 36.608C-37.6575 37.36 -38.1455 37.952 -38.7695 38.384C-39.3935 38.8 -40.1294 39.096 -40.9774 39.272C-41.8094 39.432 -42.7214 39.512 -43.7134 39.512Z"/>
<path d="M-29.7323 39.392L-29.7324 34.016L-35.0847 21.632H-31.3886L-27.8845 30.392L-24.4047 21.632H-20.8527L-26.1804 34.016L-26.1803 39.392H-29.7323Z"/>
<path d="M-8.97851 39.392L-8.97878 24.824H-13.8508L-13.8508 21.632H-0.530835L-0.530776 24.824H-5.42678L-5.42651 39.392H-8.97851Z"/>
<path d="M1.38743 39.392L1.3871 21.632H8.7311C9.4351 21.632 10.0911 21.72 10.6991 21.896C11.3071 22.056 11.8431 22.344 12.3071 22.76C12.7711 23.176 13.1311 23.752 13.3872 24.488C13.6592 25.224 13.7952 26.168 13.7952 27.32C13.7952 28.136 13.7152 28.832 13.5552 29.408C13.3953 29.984 13.1793 30.456 12.9073 30.824C12.6513 31.192 12.3553 31.488 12.0193 31.712C11.6833 31.936 11.3393 32.12 10.9873 32.264L14.2994 39.392H10.6754L7.81931 32.816C7.62731 32.816 7.4033 32.816 7.1473 32.816C6.90731 32.8 6.65931 32.792 6.40331 32.792C6.14731 32.792 5.8913 32.792 5.6353 32.792C5.37931 32.792 5.1473 32.784 4.9393 32.768L4.93943 39.392H1.38743ZM4.93925 29.96H8.10725C8.42725 29.96 8.71526 29.92 8.97125 29.84C9.22725 29.76 9.45125 29.624 9.64324 29.432C9.83524 29.224 9.97923 28.952 10.0752 28.616C10.1872 28.28 10.2432 27.848 10.2432 27.32C10.2432 26.824 10.1872 26.416 10.0752 26.096C9.97917 25.76 9.83517 25.504 9.64317 25.328C9.45116 25.136 9.22716 25.008 8.97116 24.944C8.71517 24.864 8.42716 24.824 8.10716 24.824H4.93916L4.93925 29.96Z"/>
<path d="M15.3063 39.392L20.874 21.632H25.362L30.9303 39.392H27.2343L26.1062 35.672H20.0582L18.9543 39.392H15.3063ZM20.8982 32.48H25.2662L23.082 24.68L20.8982 32.48Z"/>
<path d="M32.3952 39.392L32.395 25.688C32.395 24.904 32.5149 24.248 32.7549 23.72C32.9949 23.192 33.3149 22.776 33.7149 22.472C34.1149 22.168 34.5549 21.952 35.0349 21.824C35.5149 21.696 35.9869 21.632 36.4509 21.632C37.0269 21.632 37.7389 21.64 38.5869 21.656C39.4509 21.656 40.3629 21.68 41.3229 21.728C42.2989 21.776 43.2349 21.848 44.1309 21.944L44.131 24.92H37.435C36.939 24.92 36.563 25.056 36.307 25.328C36.067 25.584 35.947 25.928 35.947 26.36L35.947 29.384L42.979 29.576L42.9791 32.384L35.9471 32.576L35.9472 39.392H32.3952Z"/>
<path d="M46.153 39.392L46.1528 25.688C46.1528 24.904 46.2728 24.248 46.5128 23.72C46.7527 23.192 47.0727 22.776 47.4727 22.472C47.8727 22.168 48.3127 21.952 48.7927 21.824C49.2727 21.696 49.7447 21.632 50.2087 21.632C50.7847 21.632 51.4967 21.64 52.3447 21.656C53.2087 21.656 54.1207 21.68 55.0807 21.728C56.0567 21.776 56.9927 21.848 57.8887 21.944L57.8888 24.92H51.1928C50.6968 24.92 50.3208 25.056 50.0648 25.328C49.8248 25.584 49.7048 25.928 49.7048 26.36L49.7049 29.384L56.7369 29.576L56.7369 32.384L49.7049 32.576L49.705 39.392H46.153Z"/>
<path d="M60.1452 39.392L60.1449 21.632H63.6969L63.6972 39.392H60.1452Z"/>
<path d="M72.754 39.536C71.714 39.536 70.794 39.416 69.994 39.176C69.21 38.936 68.538 38.496 67.978 37.856C67.434 37.216 67.018 36.304 66.73 35.12C66.4579 33.92 66.3219 32.368 66.3219 30.464C66.3218 28.624 66.4658 27.12 66.7538 25.952C67.0578 24.768 67.4898 23.856 68.0497 23.216C68.6097 22.56 69.2897 22.104 70.0897 21.848C70.8897 21.592 71.7937 21.464 72.8017 21.464C73.6017 21.464 74.3457 21.512 75.0337 21.608C75.7377 21.688 76.3697 21.792 76.9297 21.92C77.4897 22.032 77.9617 22.16 78.3457 22.304L78.3458 25.064C78.0578 25 77.6658 24.936 77.1698 24.872C76.6898 24.808 76.1378 24.76 75.5138 24.728C74.8898 24.68 74.2338 24.656 73.5458 24.656C72.8738 24.656 72.2978 24.736 71.8178 24.896C71.3538 25.04 70.9778 25.32 70.6898 25.736C70.4178 26.136 70.2098 26.72 70.0658 27.488C69.9378 28.256 69.8739 29.256 69.8739 30.488C69.8739 31.672 69.9299 32.648 70.0419 33.416C70.17 34.184 70.37 34.784 70.642 35.216C70.914 35.632 71.282 35.928 71.746 36.104C72.226 36.264 72.826 36.344 73.546 36.344C74.762 36.344 75.746 36.32 76.498 36.272C77.266 36.224 77.882 36.168 78.346 36.104L78.346 38.84C77.9141 38.984 77.418 39.112 76.858 39.224C76.298 39.32 75.682 39.392 75.0101 39.44C74.3381 39.504 73.586 39.536 72.754 39.536Z"/>
</mask>
<path d="M-106.024 39.392L-110.272 21.632H-106.6L-103.744 34.16L-100.408 21.632H-97.1442L-93.8319 34.16L-90.9762 21.632H-87.3042L-91.5518 39.392H-95.1758L-98.7761 26.864L-102.4 39.392H-106.024Z" stroke="white" stroke-width="3" mask="url(#path-1-outside-1_1_2707)"/>
<path d="M-81.6441 39.512C-82.0281 39.512 -82.4681 39.472 -82.9641 39.392C-83.4601 39.328 -83.9401 39.168 -84.4041 38.912C-84.8522 38.656 -85.2282 38.272 -85.5322 37.76C-85.8202 37.232 -85.9642 36.512 -85.9642 35.6L-85.9644 25.688C-85.9644 24.904 -85.8444 24.248 -85.6044 23.72C-85.3644 23.192 -85.0444 22.776 -84.6444 22.472C-84.2445 22.168 -83.8045 21.952 -83.3245 21.824C-82.8445 21.696 -82.3725 21.632 -81.9085 21.632C-80.7085 21.632 -79.6525 21.648 -78.7405 21.68C-77.8125 21.712 -76.9805 21.752 -76.2445 21.8C-75.5085 21.832 -74.8365 21.88 -74.2285 21.944L-74.2284 24.92H-80.8524C-81.3484 24.92 -81.7324 25.04 -82.0044 25.28C-82.2764 25.52 -82.4124 25.888 -82.4124 26.384L-82.4123 28.952L-75.3803 29.144L-75.3803 31.952L-82.4123 32.144L-82.4122 34.592C-82.4122 35.008 -82.3482 35.336 -82.2202 35.576C-82.0762 35.8 -81.8922 35.96 -81.6682 36.056C-81.4282 36.136 -81.1802 36.176 -80.9242 36.176H-74.2282L-74.2281 39.152C-74.9321 39.232 -75.7161 39.296 -76.5801 39.344C-77.4281 39.392 -78.2921 39.432 -79.1721 39.464C-80.0361 39.496 -80.8601 39.512 -81.6441 39.512Z" stroke="white" stroke-width="3" mask="url(#path-1-outside-1_1_2707)"/>
<path d="M-65.4563 39.392L-65.4567 21.632H-58.4727C-56.7127 21.632 -55.4326 22.04 -54.6326 22.856C-53.8166 23.656 -53.4086 24.8 -53.4086 26.288C-53.4086 26.992 -53.5125 27.616 -53.7205 28.16C-53.9125 28.688 -54.1925 29.128 -54.5605 29.48C-54.9285 29.816 -55.3685 30.048 -55.8805 30.176C-55.4965 30.272 -55.1285 30.424 -54.7765 30.632C-54.4085 30.84 -54.0805 31.12 -53.7925 31.472C-53.4885 31.824 -53.2565 32.256 -53.0964 32.768C-52.9204 33.264 -52.8324 33.84 -52.8324 34.496C-52.8324 35.696 -53.0404 36.656 -53.4564 37.376C-53.8564 38.096 -54.4563 38.616 -55.2563 38.936C-56.0403 39.24 -57.0083 39.392 -58.1603 39.392H-65.4563ZM-61.9044 36.2H-58.2564C-57.8404 36.2 -57.4804 36.12 -57.1764 35.96C-56.8724 35.8 -56.6404 35.552 -56.4804 35.216C-56.3044 34.88 -56.2164 34.432 -56.2164 33.872C-56.2164 33.408 -56.3044 33.016 -56.4804 32.696C-56.6565 32.376 -56.8965 32.128 -57.2005 31.952C-57.5045 31.776 -57.8565 31.688 -58.2565 31.688H-61.9045L-61.9044 36.2ZM-61.9045 28.952H-58.4485C-57.9365 28.952 -57.5365 28.768 -57.2485 28.4C-56.9445 28.016 -56.7925 27.52 -56.7926 26.912C-56.7766 26.128 -56.9366 25.584 -57.2726 25.28C-57.6086 24.976 -58.0166 24.824 -58.4966 24.824H-61.9046L-61.9045 28.952Z" stroke="white" stroke-width="3" mask="url(#path-1-outside-1_1_2707)"/>
<path d="M-43.7134 39.512C-44.6894 39.512 -45.6014 39.432 -46.4494 39.272C-47.2975 39.096 -48.0415 38.8 -48.6815 38.384C-49.3055 37.952 -49.7935 37.36 -50.1455 36.608C-50.4815 35.84 -50.6495 34.864 -50.6496 33.68L-50.6498 21.632H-47.0978L-47.0976 33.656C-47.0975 34.312 -46.9695 34.832 -46.7135 35.216C-46.4415 35.6 -46.0575 35.88 -45.5615 36.056C-45.0495 36.232 -44.4335 36.32 -43.7135 36.32C-43.0095 36.32 -42.4095 36.232 -41.9135 36.056C-41.4015 35.88 -41.0175 35.6 -40.7615 35.216C-40.4895 34.832 -40.3535 34.312 -40.3535 33.656L-40.3538 21.632H-36.7778L-36.7776 33.68C-36.7775 34.864 -36.9535 35.84 -37.3055 36.608C-37.6575 37.36 -38.1455 37.952 -38.7695 38.384C-39.3935 38.8 -40.1294 39.096 -40.9774 39.272C-41.8094 39.432 -42.7214 39.512 -43.7134 39.512Z" stroke="white" stroke-width="3" mask="url(#path-1-outside-1_1_2707)"/>
<path d="M-29.7323 39.392L-29.7324 34.016L-35.0847 21.632H-31.3886L-27.8845 30.392L-24.4047 21.632H-20.8527L-26.1804 34.016L-26.1803 39.392H-29.7323Z" stroke="white" stroke-width="3" mask="url(#path-1-outside-1_1_2707)"/>
<path d="M-8.97851 39.392L-8.97878 24.824H-13.8508L-13.8508 21.632H-0.530835L-0.530776 24.824H-5.42678L-5.42651 39.392H-8.97851Z" stroke="white" stroke-width="3" mask="url(#path-1-outside-1_1_2707)"/>
<path d="M1.38743 39.392L1.3871 21.632H8.7311C9.4351 21.632 10.0911 21.72 10.6991 21.896C11.3071 22.056 11.8431 22.344 12.3071 22.76C12.7711 23.176 13.1311 23.752 13.3872 24.488C13.6592 25.224 13.7952 26.168 13.7952 27.32C13.7952 28.136 13.7152 28.832 13.5552 29.408C13.3953 29.984 13.1793 30.456 12.9073 30.824C12.6513 31.192 12.3553 31.488 12.0193 31.712C11.6833 31.936 11.3393 32.12 10.9873 32.264L14.2994 39.392H10.6754L7.81931 32.816C7.62731 32.816 7.4033 32.816 7.1473 32.816C6.90731 32.8 6.65931 32.792 6.40331 32.792C6.14731 32.792 5.8913 32.792 5.6353 32.792C5.37931 32.792 5.1473 32.784 4.9393 32.768L4.93943 39.392H1.38743ZM4.93925 29.96H8.10725C8.42725 29.96 8.71526 29.92 8.97125 29.84C9.22725 29.76 9.45125 29.624 9.64324 29.432C9.83524 29.224 9.97923 28.952 10.0752 28.616C10.1872 28.28 10.2432 27.848 10.2432 27.32C10.2432 26.824 10.1872 26.416 10.0752 26.096C9.97917 25.76 9.83517 25.504 9.64317 25.328C9.45116 25.136 9.22716 25.008 8.97116 24.944C8.71517 24.864 8.42716 24.824 8.10716 24.824H4.93916L4.93925 29.96Z" stroke="white" stroke-width="3" mask="url(#path-1-outside-1_1_2707)"/>
<path d="M15.3063 39.392L20.874 21.632H25.362L30.9303 39.392H27.2343L26.1062 35.672H20.0582L18.9543 39.392H15.3063ZM20.8982 32.48H25.2662L23.082 24.68L20.8982 32.48Z" stroke="white" stroke-width="3" mask="url(#path-1-outside-1_1_2707)"/>
<path d="M32.3952 39.392L32.395 25.688C32.395 24.904 32.5149 24.248 32.7549 23.72C32.9949 23.192 33.3149 22.776 33.7149 22.472C34.1149 22.168 34.5549 21.952 35.0349 21.824C35.5149 21.696 35.9869 21.632 36.4509 21.632C37.0269 21.632 37.7389 21.64 38.5869 21.656C39.4509 21.656 40.3629 21.68 41.3229 21.728C42.2989 21.776 43.2349 21.848 44.1309 21.944L44.131 24.92H37.435C36.939 24.92 36.563 25.056 36.307 25.328C36.067 25.584 35.947 25.928 35.947 26.36L35.947 29.384L42.979 29.576L42.9791 32.384L35.9471 32.576L35.9472 39.392H32.3952Z" stroke="white" stroke-width="3" mask="url(#path-1-outside-1_1_2707)"/>
<path d="M46.153 39.392L46.1528 25.688C46.1528 24.904 46.2728 24.248 46.5128 23.72C46.7527 23.192 47.0727 22.776 47.4727 22.472C47.8727 22.168 48.3127 21.952 48.7927 21.824C49.2727 21.696 49.7447 21.632 50.2087 21.632C50.7847 21.632 51.4967 21.64 52.3447 21.656C53.2087 21.656 54.1207 21.68 55.0807 21.728C56.0567 21.776 56.9927 21.848 57.8887 21.944L57.8888 24.92H51.1928C50.6968 24.92 50.3208 25.056 50.0648 25.328C49.8248 25.584 49.7048 25.928 49.7048 26.36L49.7049 29.384L56.7369 29.576L56.7369 32.384L49.7049 32.576L49.705 39.392H46.153Z" stroke="white" stroke-width="3" mask="url(#path-1-outside-1_1_2707)"/>
<path d="M60.1452 39.392L60.1449 21.632H63.6969L63.6972 39.392H60.1452Z" stroke="white" stroke-width="3" mask="url(#path-1-outside-1_1_2707)"/>
<path d="M72.754 39.536C71.714 39.536 70.794 39.416 69.994 39.176C69.21 38.936 68.538 38.496 67.978 37.856C67.434 37.216 67.018 36.304 66.73 35.12C66.4579 33.92 66.3219 32.368 66.3219 30.464C66.3218 28.624 66.4658 27.12 66.7538 25.952C67.0578 24.768 67.4898 23.856 68.0497 23.216C68.6097 22.56 69.2897 22.104 70.0897 21.848C70.8897 21.592 71.7937 21.464 72.8017 21.464C73.6017 21.464 74.3457 21.512 75.0337 21.608C75.7377 21.688 76.3697 21.792 76.9297 21.92C77.4897 22.032 77.9617 22.16 78.3457 22.304L78.3458 25.064C78.0578 25 77.6658 24.936 77.1698 24.872C76.6898 24.808 76.1378 24.76 75.5138 24.728C74.8898 24.68 74.2338 24.656 73.5458 24.656C72.8738 24.656 72.2978 24.736 71.8178 24.896C71.3538 25.04 70.9778 25.32 70.6898 25.736C70.4178 26.136 70.2098 26.72 70.0658 27.488C69.9378 28.256 69.8739 29.256 69.8739 30.488C69.8739 31.672 69.9299 32.648 70.0419 33.416C70.17 34.184 70.37 34.784 70.642 35.216C70.914 35.632 71.282 35.928 71.746 36.104C72.226 36.264 72.826 36.344 73.546 36.344C74.762 36.344 75.746 36.32 76.498 36.272C77.266 36.224 77.882 36.168 78.346 36.104L78.346 38.84C77.9141 38.984 77.418 39.112 76.858 39.224C76.298 39.32 75.682 39.392 75.0101 39.44C74.3381 39.504 73.586 39.536 72.754 39.536Z" stroke="white" stroke-width="3" mask="url(#path-1-outside-1_1_2707)"/>
<path d="M123.002 39L118.754 21.24H122.426L125.282 33.768L128.618 21.24H131.882L135.194 33.768L138.05 21.24H141.722L137.474 39H133.85L130.25 26.472L126.626 39H123.002ZM147.382 39.12C146.998 39.12 146.558 39.08 146.062 39C145.566 38.936 145.086 38.776 144.622 38.52C144.174 38.264 143.798 37.88 143.494 37.368C143.206 36.84 143.062 36.12 143.062 35.208L143.061 25.296C143.061 24.512 143.181 23.856 143.421 23.328C143.661 22.8 143.981 22.384 144.381 22.08C144.781 21.776 145.221 21.56 145.701 21.432C146.181 21.304 146.653 21.24 147.117 21.24C148.317 21.24 149.373 21.256 150.285 21.288C151.213 21.32 152.045 21.36 152.781 21.408C153.517 21.44 154.189 21.488 154.797 21.552L154.797 24.528H148.173C147.677 24.528 147.293 24.648 147.021 24.888C146.749 25.128 146.613 25.496 146.613 25.992L146.614 28.56L153.646 28.752L153.646 31.56L146.614 31.752L146.614 34.2C146.614 34.616 146.678 34.944 146.806 35.184C146.95 35.408 147.134 35.568 147.358 35.664C147.598 35.744 147.846 35.784 148.102 35.784H154.798L154.798 38.76C154.094 38.84 153.31 38.904 152.446 38.952C151.598 39 150.734 39.04 149.854 39.072C148.99 39.104 148.166 39.12 147.382 39.12ZM163.57 39L163.569 21.24H170.553C172.313 21.24 173.593 21.648 174.393 22.464C175.209 23.264 175.617 24.408 175.617 25.896C175.617 26.6 175.513 27.224 175.305 27.768C175.113 28.296 174.833 28.736 174.465 29.088C174.097 29.424 173.657 29.656 173.145 29.784C173.529 29.88 173.897 30.032 174.249 30.24C174.617 30.448 174.945 30.728 175.233 31.08C175.537 31.432 175.769 31.864 175.929 32.376C176.105 32.872 176.193 33.448 176.193 34.104C176.193 35.304 175.985 36.264 175.569 36.984C175.169 37.704 174.569 38.224 173.769 38.544C172.986 38.848 172.018 39 170.866 39H163.57ZM167.121 35.808H170.769C171.185 35.808 171.545 35.728 171.849 35.568C172.153 35.408 172.385 35.16 172.545 34.824C172.721 34.488 172.809 34.04 172.809 33.48C172.809 33.016 172.721 32.624 172.545 32.304C172.369 31.984 172.129 31.736 171.825 31.56C171.521 31.384 171.169 31.296 170.769 31.296H167.121L167.121 35.808ZM167.121 28.56H170.577C171.089 28.56 171.489 28.376 171.777 28.008C172.081 27.624 172.233 27.128 172.233 26.52C172.249 25.736 172.089 25.192 171.753 24.888C171.417 24.584 171.009 24.432 170.529 24.432H167.121L167.121 28.56ZM185.312 39.12C184.336 39.12 183.424 39.04 182.576 38.88C181.728 38.704 180.984 38.408 180.344 37.992C179.72 37.56 179.232 36.968 178.88 36.216C178.544 35.448 178.376 34.472 178.376 33.288L178.376 21.24H181.928L181.928 33.264C181.928 33.92 182.056 34.44 182.312 34.824C182.584 35.208 182.968 35.488 183.464 35.664C183.976 35.84 184.592 35.928 185.312 35.928C186.016 35.928 186.616 35.84 187.112 35.664C187.624 35.488 188.008 35.208 188.264 34.824C188.536 34.44 188.672 33.92 188.672 33.264L188.672 21.24H192.248L192.248 33.288C192.248 34.472 192.072 35.448 191.72 36.216C191.368 36.968 190.88 37.56 190.256 37.992C189.632 38.408 188.896 38.704 188.048 38.88C187.216 39.04 186.304 39.12 185.312 39.12ZM199.294 39L199.293 33.624L193.941 21.24H197.637L201.141 30L204.621 21.24H208.173L202.845 33.624L202.846 39H199.294ZM220.047 39L220.047 24.432H215.175L215.175 21.24H228.495L228.495 24.432H223.599L223.599 39H220.047ZM230.413 39L230.413 21.24H237.757C238.461 21.24 239.117 21.328 239.725 21.504C240.333 21.664 240.869 21.952 241.333 22.368C241.797 22.784 242.157 23.36 242.413 24.096C242.685 24.832 242.821 25.776 242.821 26.928C242.821 27.744 242.741 28.44 242.581 29.016C242.421 29.592 242.205 30.064 241.933 30.432C241.677 30.8 241.381 31.096 241.045 31.32C240.709 31.544 240.365 31.728 240.013 31.872L243.325 39H239.701L236.845 32.424C236.653 32.424 236.429 32.424 236.173 32.424C235.933 32.408 235.685 32.4 235.429 32.4C235.173 32.4 234.917 32.4 234.661 32.4C234.405 32.4 234.173 32.392 233.965 32.376L233.965 39H230.413ZM233.965 29.568H237.133C237.453 29.568 237.741 29.528 237.997 29.448C238.253 29.368 238.477 29.232 238.669 29.04C238.861 28.832 239.005 28.56 239.101 28.224C239.213 27.888 239.269 27.456 239.269 26.928C239.269 26.432 239.213 26.024 239.101 25.704C239.005 25.368 238.861 25.112 238.669 24.936C238.477 24.744 238.253 24.616 237.997 24.552C237.741 24.472 237.453 24.432 237.133 24.432H233.965L233.965 29.568ZM244.332 39L249.9 21.24H254.388L259.956 39H256.26L255.132 35.28H249.084L247.98 39H244.332ZM249.924 32.088H254.292L252.108 24.288L249.924 32.088ZM261.421 39L261.421 25.296C261.421 24.512 261.541 23.856 261.781 23.328C262.021 22.8 262.341 22.384 262.741 22.08C263.141 21.776 263.581 21.56 264.061 21.432C264.541 21.304 265.013 21.24 265.477 21.24C266.053 21.24 266.765 21.248 267.613 21.264C268.477 21.264 269.389 21.288 270.349 21.336C271.325 21.384 272.261 21.456 273.157 21.552L273.157 24.528H266.461C265.965 24.528 265.589 24.664 265.333 24.936C265.093 25.192 264.973 25.536 264.973 25.968L264.973 28.992L272.005 29.184L272.005 31.992L264.973 32.184L264.973 39H261.421ZM275.179 39L275.179 25.296C275.179 24.512 275.299 23.856 275.539 23.328C275.779 22.8 276.099 22.384 276.499 22.08C276.899 21.776 277.339 21.56 277.819 21.432C278.299 21.304 278.771 21.24 279.235 21.24C279.811 21.24 280.523 21.248 281.371 21.264C282.235 21.264 283.147 21.288 284.107 21.336C285.083 21.384 286.019 21.456 286.915 21.552L286.915 24.528H280.219C279.723 24.528 279.347 24.664 279.091 24.936C278.851 25.192 278.731 25.536 278.731 25.968L278.731 28.992L285.763 29.184L285.763 31.992L278.731 32.184L278.731 39H275.179ZM289.171 39L289.171 21.24H292.723L292.723 39H289.171ZM301.78 39.144C300.74 39.144 299.82 39.024 299.02 38.784C298.236 38.544 297.564 38.104 297.004 37.464C296.46 36.824 296.044 35.912 295.756 34.728C295.484 33.528 295.348 31.976 295.348 30.072C295.348 28.232 295.492 26.728 295.78 25.56C296.084 24.376 296.516 23.464 297.076 22.824C297.636 22.168 298.316 21.712 299.116 21.456C299.916 21.2 300.82 21.072 301.828 21.072C302.628 21.072 303.372 21.12 304.06 21.216C304.764 21.296 305.396 21.4 305.956 21.528C306.516 21.64 306.988 21.768 307.372 21.912L307.372 24.672C307.084 24.608 306.692 24.544 306.196 24.48C305.716 24.416 305.164 24.368 304.54 24.336C303.916 24.288 303.26 24.264 302.572 24.264C301.9 24.264 301.324 24.344 300.844 24.504C300.38 24.648 300.004 24.928 299.716 25.344C299.444 25.744 299.236 26.328 299.092 27.096C298.964 27.864 298.9 28.864 298.9 30.096C298.9 31.28 298.956 32.256 299.068 33.024C299.196 33.792 299.396 34.392 299.668 34.824C299.94 35.24 300.308 35.536 300.772 35.712C301.252 35.872 301.852 35.952 302.572 35.952C303.788 35.952 304.772 35.928 305.524 35.88C306.292 35.832 306.908 35.776 307.372 35.712L307.372 38.448C306.94 38.592 306.444 38.72 305.884 38.832C305.324 38.928 304.708 39 304.036 39.048C303.364 39.112 302.612 39.144 301.78 39.144Z" fill="white"/>
<mask id="path-3-outside-2_1_2707" maskUnits="userSpaceOnUse" x="346.346" y="18.464" width="193" height="23" fill="black">
<rect fill="white" x="346.346" y="18.464" width="193" height="23"/>
<path d="M352.594 39.392L348.346 21.632H352.018L354.874 34.16L358.21 21.632H361.474L364.786 34.16L367.642 21.632H371.314L367.066 39.392H363.442L359.842 26.864L356.218 39.392H352.594Z"/>
<path d="M376.974 39.512C376.59 39.512 376.15 39.472 375.654 39.392C375.158 39.328 374.678 39.168 374.214 38.912C373.766 38.656 373.39 38.272 373.086 37.76C372.798 37.232 372.654 36.512 372.654 35.6L372.653 25.688C372.653 24.904 372.773 24.248 373.013 23.72C373.253 23.192 373.573 22.776 373.973 22.472C374.373 22.168 374.813 21.952 375.293 21.824C375.773 21.696 376.245 21.632 376.709 21.632C377.909 21.632 378.965 21.648 379.877 21.68C380.805 21.712 381.637 21.752 382.373 21.8C383.109 21.832 383.781 21.88 384.389 21.944L384.389 24.92H377.765C377.269 24.92 376.885 25.04 376.613 25.28C376.341 25.52 376.205 25.888 376.205 26.384L376.206 28.952L383.238 29.144L383.238 31.952L376.206 32.144L376.206 34.592C376.206 35.008 376.27 35.336 376.398 35.576C376.542 35.8 376.726 35.96 376.95 36.056C377.19 36.136 377.438 36.176 377.694 36.176H384.39L384.39 39.152C383.686 39.232 382.902 39.296 382.038 39.344C381.19 39.392 380.326 39.432 379.446 39.464C378.582 39.496 377.758 39.512 376.974 39.512Z"/>
<path d="M393.162 39.392L393.161 21.632H400.145C401.905 21.632 403.185 22.04 403.985 22.856C404.801 23.656 405.209 24.8 405.209 26.288C405.209 26.992 405.105 27.616 404.897 28.16C404.705 28.688 404.425 29.128 404.057 29.48C403.689 29.816 403.249 30.048 402.737 30.176C403.121 30.272 403.489 30.424 403.841 30.632C404.209 30.84 404.537 31.12 404.825 31.472C405.129 31.824 405.361 32.256 405.521 32.768C405.697 33.264 405.785 33.84 405.785 34.496C405.785 35.696 405.577 36.656 405.161 37.376C404.761 38.096 404.162 38.616 403.362 38.936C402.578 39.24 401.61 39.392 400.458 39.392H393.162ZM396.713 36.2H400.361C400.777 36.2 401.137 36.12 401.441 35.96C401.745 35.8 401.977 35.552 402.137 35.216C402.313 34.88 402.401 34.432 402.401 33.872C402.401 33.408 402.313 33.016 402.137 32.696C401.961 32.376 401.721 32.128 401.417 31.952C401.113 31.776 400.761 31.688 400.361 31.688H396.713L396.713 36.2ZM396.713 28.952H400.169C400.681 28.952 401.081 28.768 401.369 28.4C401.673 28.016 401.825 27.52 401.825 26.912C401.841 26.128 401.681 25.584 401.345 25.28C401.009 24.976 400.601 24.824 400.121 24.824H396.713L396.713 28.952Z"/>
<path d="M414.904 39.512C413.928 39.512 413.016 39.432 412.168 39.272C411.32 39.096 410.576 38.8 409.936 38.384C409.312 37.952 408.824 37.36 408.472 36.608C408.136 35.84 407.968 34.864 407.968 33.68L407.968 21.632H411.52L411.52 33.656C411.52 34.312 411.648 34.832 411.904 35.216C412.176 35.6 412.56 35.88 413.056 36.056C413.568 36.232 414.184 36.32 414.904 36.32C415.608 36.32 416.208 36.232 416.704 36.056C417.216 35.88 417.6 35.6 417.856 35.216C418.128 34.832 418.264 34.312 418.264 33.656L418.264 21.632H421.84L421.84 33.68C421.84 34.864 421.664 35.84 421.312 36.608C420.96 37.36 420.472 37.952 419.848 38.384C419.224 38.8 418.488 39.096 417.64 39.272C416.808 39.432 415.896 39.512 414.904 39.512Z"/>
<path d="M428.886 39.392L428.885 34.016L423.533 21.632H427.229L430.733 30.392L434.213 21.632H437.765L432.437 34.016L432.438 39.392H428.886Z"/>
<path d="M449.639 39.392L449.639 24.824H444.767L444.767 21.632H458.087L458.087 24.824H453.191L453.191 39.392H449.639Z"/>
<path d="M460.005 39.392L460.005 21.632H467.349C468.053 21.632 468.709 21.72 469.317 21.896C469.925 22.056 470.461 22.344 470.925 22.76C471.389 23.176 471.749 23.752 472.005 24.488C472.277 25.224 472.413 26.168 472.413 27.32C472.413 28.136 472.333 28.832 472.173 29.408C472.013 29.984 471.797 30.456 471.525 30.824C471.269 31.192 470.973 31.488 470.637 31.712C470.301 31.936 469.957 32.12 469.605 32.264L472.917 39.392H469.293L466.437 32.816C466.245 32.816 466.021 32.816 465.765 32.816C465.525 32.8 465.277 32.792 465.021 32.792C464.765 32.792 464.509 32.792 464.253 32.792C463.997 32.792 463.765 32.784 463.557 32.768L463.557 39.392H460.005ZM463.557 29.96H466.725C467.045 29.96 467.333 29.92 467.589 29.84C467.845 29.76 468.069 29.624 468.261 29.432C468.453 29.224 468.597 28.952 468.693 28.616C468.805 28.28 468.861 27.848 468.861 27.32C468.861 26.824 468.805 26.416 468.693 26.096C468.597 25.76 468.453 25.504 468.261 25.328C468.069 25.136 467.845 25.008 467.589 24.944C467.333 24.864 467.045 24.824 466.725 24.824H463.557L463.557 29.96Z"/>
<path d="M473.924 39.392L479.492 21.632H483.98L489.548 39.392H485.852L484.724 35.672H478.676L477.572 39.392H473.924ZM479.516 32.48H483.884L481.7 24.68L479.516 32.48Z"/>
<path d="M491.013 39.392L491.013 25.688C491.013 24.904 491.133 24.248 491.373 23.72C491.613 23.192 491.933 22.776 492.333 22.472C492.733 22.168 493.173 21.952 493.653 21.824C494.133 21.696 494.605 21.632 495.069 21.632C495.645 21.632 496.357 21.64 497.205 21.656C498.069 21.656 498.981 21.68 499.941 21.728C500.917 21.776 501.853 21.848 502.749 21.944L502.749 24.92H496.053C495.557 24.92 495.181 25.056 494.925 25.328C494.685 25.584 494.565 25.928 494.565 26.36L494.565 29.384L501.597 29.576L501.597 32.384L494.565 32.576L494.565 39.392H491.013Z"/>
<path d="M504.771 39.392L504.771 25.688C504.771 24.904 504.891 24.248 505.131 23.72C505.371 23.192 505.691 22.776 506.091 22.472C506.491 22.168 506.931 21.952 507.411 21.824C507.891 21.696 508.363 21.632 508.827 21.632C509.403 21.632 510.115 21.64 510.963 21.656C511.827 21.656 512.739 21.68 513.699 21.728C514.675 21.776 515.611 21.848 516.507 21.944L516.507 24.92H509.811C509.315 24.92 508.939 25.056 508.683 25.328C508.443 25.584 508.323 25.928 508.323 26.36L508.323 29.384L515.355 29.576L515.355 32.384L508.323 32.576L508.323 39.392H504.771Z"/>
<path d="M518.763 39.392L518.763 21.632H522.315L522.315 39.392H518.763Z"/>
<path d="M531.372 39.536C530.332 39.536 529.412 39.416 528.612 39.176C527.828 38.936 527.156 38.496 526.596 37.856C526.052 37.216 525.636 36.304 525.348 35.12C525.076 33.92 524.94 32.368 524.94 30.464C524.94 28.624 525.084 27.12 525.372 25.952C525.676 24.768 526.108 23.856 526.668 23.216C527.228 22.56 527.908 22.104 528.708 21.848C529.508 21.592 530.412 21.464 531.42 21.464C532.22 21.464 532.964 21.512 533.652 21.608C534.356 21.688 534.988 21.792 535.548 21.92C536.108 22.032 536.58 22.16 536.964 22.304L536.964 25.064C536.676 25 536.284 24.936 535.788 24.872C535.308 24.808 534.756 24.76 534.132 24.728C533.508 24.68 532.852 24.656 532.164 24.656C531.492 24.656 530.916 24.736 530.436 24.896C529.972 25.04 529.596 25.32 529.308 25.736C529.036 26.136 528.828 26.72 528.684 27.488C528.556 28.256 528.492 29.256 528.492 30.488C528.492 31.672 528.548 32.648 528.66 33.416C528.788 34.184 528.988 34.784 529.26 35.216C529.532 35.632 529.9 35.928 530.364 36.104C530.844 36.264 531.444 36.344 532.164 36.344C533.38 36.344 534.364 36.32 535.116 36.272C535.884 36.224 536.5 36.168 536.964 36.104L536.964 38.84C536.532 38.984 536.036 39.112 535.476 39.224C534.916 39.32 534.3 39.392 533.628 39.44C532.956 39.504 532.204 39.536 531.372 39.536Z"/>
</mask>
<path d="M352.594 39.392L348.346 21.632H352.018L354.874 34.16L358.21 21.632H361.474L364.786 34.16L367.642 21.632H371.314L367.066 39.392H363.442L359.842 26.864L356.218 39.392H352.594Z" stroke="white" stroke-width="3" mask="url(#path-3-outside-2_1_2707)"/>
<path d="M376.974 39.512C376.59 39.512 376.15 39.472 375.654 39.392C375.158 39.328 374.678 39.168 374.214 38.912C373.766 38.656 373.39 38.272 373.086 37.76C372.798 37.232 372.654 36.512 372.654 35.6L372.653 25.688C372.653 24.904 372.773 24.248 373.013 23.72C373.253 23.192 373.573 22.776 373.973 22.472C374.373 22.168 374.813 21.952 375.293 21.824C375.773 21.696 376.245 21.632 376.709 21.632C377.909 21.632 378.965 21.648 379.877 21.68C380.805 21.712 381.637 21.752 382.373 21.8C383.109 21.832 383.781 21.88 384.389 21.944L384.389 24.92H377.765C377.269 24.92 376.885 25.04 376.613 25.28C376.341 25.52 376.205 25.888 376.205 26.384L376.206 28.952L383.238 29.144L383.238 31.952L376.206 32.144L376.206 34.592C376.206 35.008 376.27 35.336 376.398 35.576C376.542 35.8 376.726 35.96 376.95 36.056C377.19 36.136 377.438 36.176 377.694 36.176H384.39L384.39 39.152C383.686 39.232 382.902 39.296 382.038 39.344C381.19 39.392 380.326 39.432 379.446 39.464C378.582 39.496 377.758 39.512 376.974 39.512Z" stroke="white" stroke-width="3" mask="url(#path-3-outside-2_1_2707)"/>
<path d="M393.162 39.392L393.161 21.632H400.145C401.905 21.632 403.185 22.04 403.985 22.856C404.801 23.656 405.209 24.8 405.209 26.288C405.209 26.992 405.105 27.616 404.897 28.16C404.705 28.688 404.425 29.128 404.057 29.48C403.689 29.816 403.249 30.048 402.737 30.176C403.121 30.272 403.489 30.424 403.841 30.632C404.209 30.84 404.537 31.12 404.825 31.472C405.129 31.824 405.361 32.256 405.521 32.768C405.697 33.264 405.785 33.84 405.785 34.496C405.785 35.696 405.577 36.656 405.161 37.376C404.761 38.096 404.162 38.616 403.362 38.936C402.578 39.24 401.61 39.392 400.458 39.392H393.162ZM396.713 36.2H400.361C400.777 36.2 401.137 36.12 401.441 35.96C401.745 35.8 401.977 35.552 402.137 35.216C402.313 34.88 402.401 34.432 402.401 33.872C402.401 33.408 402.313 33.016 402.137 32.696C401.961 32.376 401.721 32.128 401.417 31.952C401.113 31.776 400.761 31.688 400.361 31.688H396.713L396.713 36.2ZM396.713 28.952H400.169C400.681 28.952 401.081 28.768 401.369 28.4C401.673 28.016 401.825 27.52 401.825 26.912C401.841 26.128 401.681 25.584 401.345 25.28C401.009 24.976 400.601 24.824 400.121 24.824H396.713L396.713 28.952Z" stroke="white" stroke-width="3" mask="url(#path-3-outside-2_1_2707)"/>
<path d="M414.904 39.512C413.928 39.512 413.016 39.432 412.168 39.272C411.32 39.096 410.576 38.8 409.936 38.384C409.312 37.952 408.824 37.36 408.472 36.608C408.136 35.84 407.968 34.864 407.968 33.68L407.968 21.632H411.52L411.52 33.656C411.52 34.312 411.648 34.832 411.904 35.216C412.176 35.6 412.56 35.88 413.056 36.056C413.568 36.232 414.184 36.32 414.904 36.32C415.608 36.32 416.208 36.232 416.704 36.056C417.216 35.88 417.6 35.6 417.856 35.216C418.128 34.832 418.264 34.312 418.264 33.656L418.264 21.632H421.84L421.84 33.68C421.84 34.864 421.664 35.84 421.312 36.608C420.96 37.36 420.472 37.952 419.848 38.384C419.224 38.8 418.488 39.096 417.64 39.272C416.808 39.432 415.896 39.512 414.904 39.512Z" stroke="white" stroke-width="3" mask="url(#path-3-outside-2_1_2707)"/>
<path d="M428.886 39.392L428.885 34.016L423.533 21.632H427.229L430.733 30.392L434.213 21.632H437.765L432.437 34.016L432.438 39.392H428.886Z" stroke="white" stroke-width="3" mask="url(#path-3-outside-2_1_2707)"/>
<path d="M449.639 39.392L449.639 24.824H444.767L444.767 21.632H458.087L458.087 24.824H453.191L453.191 39.392H449.639Z" stroke="white" stroke-width="3" mask="url(#path-3-outside-2_1_2707)"/>
<path d="M460.005 39.392L460.005 21.632H467.349C468.053 21.632 468.709 21.72 469.317 21.896C469.925 22.056 470.461 22.344 470.925 22.76C471.389 23.176 471.749 23.752 472.005 24.488C472.277 25.224 472.413 26.168 472.413 27.32C472.413 28.136 472.333 28.832 472.173 29.408C472.013 29.984 471.797 30.456 471.525 30.824C471.269 31.192 470.973 31.488 470.637 31.712C470.301 31.936 469.957 32.12 469.605 32.264L472.917 39.392H469.293L466.437 32.816C466.245 32.816 466.021 32.816 465.765 32.816C465.525 32.8 465.277 32.792 465.021 32.792C464.765 32.792 464.509 32.792 464.253 32.792C463.997 32.792 463.765 32.784 463.557 32.768L463.557 39.392H460.005ZM463.557 29.96H466.725C467.045 29.96 467.333 29.92 467.589 29.84C467.845 29.76 468.069 29.624 468.261 29.432C468.453 29.224 468.597 28.952 468.693 28.616C468.805 28.28 468.861 27.848 468.861 27.32C468.861 26.824 468.805 26.416 468.693 26.096C468.597 25.76 468.453 25.504 468.261 25.328C468.069 25.136 467.845 25.008 467.589 24.944C467.333 24.864 467.045 24.824 466.725 24.824H463.557L463.557 29.96Z" stroke="white" stroke-width="3" mask="url(#path-3-outside-2_1_2707)"/>
<path d="M473.924 39.392L479.492 21.632H483.98L489.548 39.392H485.852L484.724 35.672H478.676L477.572 39.392H473.924ZM479.516 32.48H483.884L481.7 24.68L479.516 32.48Z" stroke="white" stroke-width="3" mask="url(#path-3-outside-2_1_2707)"/>
<path d="M491.013 39.392L491.013 25.688C491.013 24.904 491.133 24.248 491.373 23.72C491.613 23.192 491.933 22.776 492.333 22.472C492.733 22.168 493.173 21.952 493.653 21.824C494.133 21.696 494.605 21.632 495.069 21.632C495.645 21.632 496.357 21.64 497.205 21.656C498.069 21.656 498.981 21.68 499.941 21.728C500.917 21.776 501.853 21.848 502.749 21.944L502.749 24.92H496.053C495.557 24.92 495.181 25.056 494.925 25.328C494.685 25.584 494.565 25.928 494.565 26.36L494.565 29.384L501.597 29.576L501.597 32.384L494.565 32.576L494.565 39.392H491.013Z" stroke="white" stroke-width="3" mask="url(#path-3-outside-2_1_2707)"/>
<path d="M504.771 39.392L504.771 25.688C504.771 24.904 504.891 24.248 505.131 23.72C505.371 23.192 505.691 22.776 506.091 22.472C506.491 22.168 506.931 21.952 507.411 21.824C507.891 21.696 508.363 21.632 508.827 21.632C509.403 21.632 510.115 21.64 510.963 21.656C511.827 21.656 512.739 21.68 513.699 21.728C514.675 21.776 515.611 21.848 516.507 21.944L516.507 24.92H509.811C509.315 24.92 508.939 25.056 508.683 25.328C508.443 25.584 508.323 25.928 508.323 26.36L508.323 29.384L515.355 29.576L515.355 32.384L508.323 32.576L508.323 39.392H504.771Z" stroke="white" stroke-width="3" mask="url(#path-3-outside-2_1_2707)"/>
<path d="M518.763 39.392L518.763 21.632H522.315L522.315 39.392H518.763Z" stroke="white" stroke-width="3" mask="url(#path-3-outside-2_1_2707)"/>
<path d="M531.372 39.536C530.332 39.536 529.412 39.416 528.612 39.176C527.828 38.936 527.156 38.496 526.596 37.856C526.052 37.216 525.636 36.304 525.348 35.12C525.076 33.92 524.94 32.368 524.94 30.464C524.94 28.624 525.084 27.12 525.372 25.952C525.676 24.768 526.108 23.856 526.668 23.216C527.228 22.56 527.908 22.104 528.708 21.848C529.508 21.592 530.412 21.464 531.42 21.464C532.22 21.464 532.964 21.512 533.652 21.608C534.356 21.688 534.988 21.792 535.548 21.92C536.108 22.032 536.58 22.16 536.964 22.304L536.964 25.064C536.676 25 536.284 24.936 535.788 24.872C535.308 24.808 534.756 24.76 534.132 24.728C533.508 24.68 532.852 24.656 532.164 24.656C531.492 24.656 530.916 24.736 530.436 24.896C529.972 25.04 529.596 25.32 529.308 25.736C529.036 26.136 528.828 26.72 528.684 27.488C528.556 28.256 528.492 29.256 528.492 30.488C528.492 31.672 528.548 32.648 528.66 33.416C528.788 34.184 528.988 34.784 529.26 35.216C529.532 35.632 529.9 35.928 530.364 36.104C530.844 36.264 531.444 36.344 532.164 36.344C533.38 36.344 534.364 36.32 535.116 36.272C535.884 36.224 536.5 36.168 536.964 36.104L536.964 38.84C536.532 38.984 536.036 39.112 535.476 39.224C534.916 39.32 534.3 39.392 533.628 39.44C532.956 39.504 532.204 39.536 531.372 39.536Z" stroke="white" stroke-width="3" mask="url(#path-3-outside-2_1_2707)"/>
<path d="M581.62 39L577.372 21.24H581.044L583.9 33.768L587.236 21.24H590.5L593.812 33.768L596.668 21.24H600.34L596.092 39H592.468L588.868 26.472L585.244 39H581.62ZM606 39.12C605.616 39.12 605.176 39.08 604.68 39C604.184 38.936 603.704 38.776 603.24 38.52C602.792 38.264 602.416 37.88 602.112 37.368C601.824 36.84 601.68 36.12 601.68 35.208L601.679 25.296C601.679 24.512 601.799 23.856 602.039 23.328C602.279 22.8 602.599 22.384 602.999 22.08C603.399 21.776 603.839 21.56 604.319 21.432C604.799 21.304 605.271 21.24 605.735 21.24C606.935 21.24 607.991 21.256 608.903 21.288C609.831 21.32 610.663 21.36 611.399 21.408C612.135 21.44 612.807 21.488 613.415 21.552L613.415 24.528H606.791C606.295 24.528 605.911 24.648 605.639 24.888C605.367 25.128 605.231 25.496 605.231 25.992L605.231 28.56L612.263 28.752L612.263 31.56L605.231 31.752L605.232 34.2C605.232 34.616 605.296 34.944 605.424 35.184C605.568 35.408 605.752 35.568 605.976 35.664C606.216 35.744 606.464 35.784 606.72 35.784H613.416L613.416 38.76C612.712 38.84 611.928 38.904 611.064 38.952C610.216 39 609.352 39.04 608.472 39.072C607.608 39.104 606.784 39.12 606 39.12ZM622.187 39L622.187 21.24H629.171C630.931 21.24 632.211 21.648 633.011 22.464C633.827 23.264 634.235 24.408 634.235 25.896C634.235 26.6 634.131 27.224 633.923 27.768C633.731 28.296 633.451 28.736 633.083 29.088C632.715 29.424 632.275 29.656 631.763 29.784C632.147 29.88 632.515 30.032 632.867 30.24C633.235 30.448 633.563 30.728 633.851 31.08C634.155 31.432 634.387 31.864 634.547 32.376C634.723 32.872 634.811 33.448 634.811 34.104C634.811 35.304 634.603 36.264 634.187 36.984C633.787 37.704 633.187 38.224 632.387 38.544C631.603 38.848 630.635 39 629.483 39H622.187ZM625.739 35.808H629.387C629.803 35.808 630.163 35.728 630.467 35.568C630.771 35.408 631.003 35.16 631.163 34.824C631.339 34.488 631.427 34.04 631.427 33.48C631.427 33.016 631.339 32.624 631.163 32.304C630.987 31.984 630.747 31.736 630.443 31.56C630.139 31.384 629.787 31.296 629.387 31.296H625.739L625.739 35.808ZM625.739 28.56H629.195C629.707 28.56 630.107 28.376 630.395 28.008C630.699 27.624 630.851 27.128 630.851 26.52C630.867 25.736 630.707 25.192 630.371 24.888C630.035 24.584 629.627 24.432 629.147 24.432H625.739L625.739 28.56ZM643.93 39.12C642.954 39.12 642.042 39.04 641.194 38.88C640.346 38.704 639.602 38.408 638.962 37.992C638.338 37.56 637.85 36.968 637.498 36.216C637.162 35.448 636.994 34.472 636.994 33.288L636.994 21.24H640.546L640.546 33.264C640.546 33.92 640.674 34.44 640.93 34.824C641.202 35.208 641.586 35.488 642.082 35.664C642.594 35.84 643.21 35.928 643.93 35.928C644.634 35.928 645.234 35.84 645.73 35.664C646.242 35.488 646.626 35.208 646.882 34.824C647.154 34.44 647.29 33.92 647.29 33.264L647.29 21.24H650.866L650.866 33.288C650.866 34.472 650.69 35.448 650.338 36.216C649.986 36.968 649.498 37.56 648.874 37.992C648.25 38.408 647.514 38.704 646.666 38.88C645.834 39.04 644.922 39.12 643.93 39.12ZM657.911 39L657.911 33.624L652.559 21.24H656.255L659.759 30L663.239 21.24H666.791L661.463 33.624L661.463 39H657.911ZM678.665 39L678.665 24.432H673.793L673.793 21.24H687.113L687.113 24.432H682.217L682.217 39H678.665ZM689.031 39L689.031 21.24H696.375C697.079 21.24 697.735 21.328 698.343 21.504C698.951 21.664 699.487 21.952 699.951 22.368C700.415 22.784 700.775 23.36 701.031 24.096C701.303 24.832 701.439 25.776 701.439 26.928C701.439 27.744 701.359 28.44 701.199 29.016C701.039 29.592 700.823 30.064 700.551 30.432C700.295 30.8 699.999 31.096 699.663 31.32C699.327 31.544 698.983 31.728 698.631 31.872L701.943 39H698.319L695.463 32.424C695.271 32.424 695.047 32.424 694.791 32.424C694.551 32.408 694.303 32.4 694.047 32.4C693.791 32.4 693.535 32.4 693.279 32.4C693.023 32.4 692.791 32.392 692.583 32.376L692.583 39H689.031ZM692.583 29.568H695.751C696.071 29.568 696.359 29.528 696.615 29.448C696.871 29.368 697.095 29.232 697.287 29.04C697.479 28.832 697.623 28.56 697.719 28.224C697.831 27.888 697.887 27.456 697.887 26.928C697.887 26.432 697.831 26.024 697.719 25.704C697.623 25.368 697.479 25.112 697.287 24.936C697.095 24.744 696.871 24.616 696.615 24.552C696.359 24.472 696.071 24.432 695.751 24.432H692.583L692.583 29.568ZM702.95 39L708.518 21.24H713.006L718.574 39H714.878L713.75 35.28H707.702L706.598 39H702.95ZM708.542 32.088H712.91L710.726 24.288L708.542 32.088ZM720.039 39L720.039 25.296C720.039 24.512 720.159 23.856 720.399 23.328C720.639 22.8 720.959 22.384 721.359 22.08C721.759 21.776 722.199 21.56 722.679 21.432C723.159 21.304 723.631 21.24 724.095 21.24C724.671 21.24 725.383 21.248 726.231 21.264C727.095 21.264 728.007 21.288 728.967 21.336C729.943 21.384 730.879 21.456 731.775 21.552L731.775 24.528H725.079C724.583 24.528 724.207 24.664 723.951 24.936C723.711 25.192 723.591 25.536 723.591 25.968L723.591 28.992L730.623 29.184L730.623 31.992L723.591 32.184L723.591 39H720.039ZM733.797 39L733.797 25.296C733.797 24.512 733.917 23.856 734.157 23.328C734.397 22.8 734.716 22.384 735.116 22.08C735.516 21.776 735.956 21.56 736.436 21.432C736.916 21.304 737.388 21.24 737.852 21.24C738.428 21.24 739.14 21.248 739.988 21.264C740.852 21.264 741.764 21.288 742.724 21.336C743.7 21.384 744.636 21.456 745.532 21.552L745.533 24.528H738.837C738.341 24.528 737.965 24.664 737.709 24.936C737.469 25.192 737.349 25.536 737.349 25.968L737.349 28.992L744.381 29.184L744.381 31.992L737.349 32.184L737.349 39H733.797ZM747.789 39L747.789 21.24H751.341L751.341 39H747.789ZM760.398 39.144C759.358 39.144 758.438 39.024 757.638 38.784C756.854 38.544 756.182 38.104 755.622 37.464C755.078 36.824 754.662 35.912 754.374 34.728C754.102 33.528 753.966 31.976 753.966 30.072C753.966 28.232 754.11 26.728 754.398 25.56C754.702 24.376 755.134 23.464 755.694 22.824C756.253 22.168 756.933 21.712 757.733 21.456C758.533 21.2 759.437 21.072 760.445 21.072C761.245 21.072 761.989 21.12 762.677 21.216C763.381 21.296 764.013 21.4 764.573 21.528C765.133 21.64 765.605 21.768 765.989 21.912L765.99 24.672C765.702 24.608 765.31 24.544 764.814 24.48C764.334 24.416 763.782 24.368 763.158 24.336C762.534 24.288 761.878 24.264 761.19 24.264C760.518 24.264 759.942 24.344 759.462 24.504C758.998 24.648 758.622 24.928 758.334 25.344C758.062 25.744 757.854 26.328 757.71 27.096C757.582 27.864 757.518 28.864 757.518 30.096C757.518 31.28 757.574 32.256 757.686 33.024C757.814 33.792 758.014 34.392 758.286 34.824C758.558 35.24 758.926 35.536 759.39 35.712C759.87 35.872 760.47 35.952 761.19 35.952C762.406 35.952 763.39 35.928 764.142 35.88C764.91 35.832 765.526 35.776 765.99 35.712L765.99 38.448C765.558 38.592 765.062 38.72 764.502 38.832C763.942 38.928 763.326 39 762.654 39.048C761.982 39.112 761.23 39.144 760.398 39.144Z" fill="white"/>
<mask id="path-5-outside-3_1_2707" maskUnits="userSpaceOnUse" x="804.964" y="18.464" width="193" height="23" fill="black">
<rect fill="white" x="804.964" y="18.464" width="193" height="23"/>
<path d="M811.212 39.392L806.964 21.632H810.636L813.492 34.16L816.828 21.632H820.092L823.404 34.16L826.26 21.632H829.932L825.684 39.392H822.06L818.46 26.864L814.836 39.392H811.212Z"/>
<path d="M835.592 39.512C835.208 39.512 834.768 39.472 834.272 39.392C833.776 39.328 833.296 39.168 832.832 38.912C832.384 38.656 832.008 38.272 831.704 37.76C831.416 37.232 831.272 36.512 831.272 35.6L831.271 25.688C831.271 24.904 831.391 24.248 831.631 23.72C831.871 23.192 832.191 22.776 832.591 22.472C832.991 22.168 833.431 21.952 833.911 21.824C834.391 21.696 834.863 21.632 835.327 21.632C836.527 21.632 837.583 21.648 838.495 21.68C839.423 21.712 840.255 21.752 840.991 21.8C841.727 21.832 842.399 21.88 843.007 21.944L843.007 24.92H836.383C835.887 24.92 835.503 25.04 835.231 25.28C834.959 25.52 834.823 25.888 834.823 26.384L834.823 28.952L841.855 29.144L841.855 31.952L834.823 32.144L834.824 34.592C834.824 35.008 834.888 35.336 835.016 35.576C835.16 35.8 835.344 35.96 835.568 36.056C835.808 36.136 836.056 36.176 836.312 36.176H843.008L843.008 39.152C842.304 39.232 841.52 39.296 840.656 39.344C839.808 39.392 838.944 39.432 838.064 39.464C837.2 39.496 836.376 39.512 835.592 39.512Z"/>
<path d="M851.779 39.392L851.779 21.632H858.763C860.523 21.632 861.803 22.04 862.603 22.856C863.419 23.656 863.827 24.8 863.827 26.288C863.827 26.992 863.723 27.616 863.515 28.16C863.323 28.688 863.043 29.128 862.675 29.48C862.307 29.816 861.867 30.048 861.355 30.176C861.739 30.272 862.107 30.424 862.459 30.632C862.827 30.84 863.155 31.12 863.443 31.472C863.747 31.824 863.979 32.256 864.139 32.768C864.315 33.264 864.403 33.84 864.403 34.496C864.403 35.696 864.195 36.656 863.779 37.376C863.379 38.096 862.779 38.616 861.979 38.936C861.195 39.24 860.227 39.392 859.075 39.392H851.779ZM855.331 36.2H858.979C859.395 36.2 859.755 36.12 860.059 35.96C860.363 35.8 860.595 35.552 860.755 35.216C860.931 34.88 861.019 34.432 861.019 33.872C861.019 33.408 860.931 33.016 860.755 32.696C860.579 32.376 860.339 32.128 860.035 31.952C859.731 31.776 859.379 31.688 858.979 31.688H855.331L855.331 36.2ZM855.331 28.952H858.787C859.299 28.952 859.699 28.768 859.987 28.4C860.291 28.016 860.443 27.52 860.443 26.912C860.459 26.128 860.299 25.584 859.963 25.28C859.627 24.976 859.219 24.824 858.739 24.824H855.331L855.331 28.952Z"/>
<path d="M873.522 39.512C872.546 39.512 871.634 39.432 870.786 39.272C869.938 39.096 869.194 38.8 868.554 38.384C867.93 37.952 867.442 37.36 867.09 36.608C866.754 35.84 866.586 34.864 866.586 33.68L866.586 21.632H870.138L870.138 33.656C870.138 34.312 870.266 34.832 870.522 35.216C870.794 35.6 871.178 35.88 871.674 36.056C872.186 36.232 872.802 36.32 873.522 36.32C874.226 36.32 874.826 36.232 875.322 36.056C875.834 35.88 876.218 35.6 876.474 35.216C876.746 34.832 876.882 34.312 876.882 33.656L876.882 21.632H880.458L880.458 33.68C880.458 34.864 880.282 35.84 879.93 36.608C879.578 37.36 879.09 37.952 878.466 38.384C877.842 38.8 877.106 39.096 876.258 39.272C875.426 39.432 874.514 39.512 873.522 39.512Z"/>
<path d="M887.503 39.392L887.503 34.016L882.151 21.632H885.847L889.351 30.392L892.831 21.632H896.383L891.055 34.016L891.055 39.392H887.503Z"/>
<path d="M908.257 39.392L908.257 24.824H903.385L903.385 21.632H916.705L916.705 24.824H911.809L911.809 39.392H908.257Z"/>
<path d="M918.623 39.392L918.623 21.632H925.967C926.671 21.632 927.327 21.72 927.935 21.896C928.543 22.056 929.079 22.344 929.543 22.76C930.007 23.176 930.367 23.752 930.623 24.488C930.895 25.224 931.031 26.168 931.031 27.32C931.031 28.136 930.951 28.832 930.791 29.408C930.631 29.984 930.415 30.456 930.143 30.824C929.887 31.192 929.591 31.488 929.255 31.712C928.919 31.936 928.575 32.12 928.223 32.264L931.535 39.392H927.911L925.055 32.816C924.863 32.816 924.639 32.816 924.383 32.816C924.143 32.8 923.895 32.792 923.639 32.792C923.383 32.792 923.127 32.792 922.871 32.792C922.615 32.792 922.383 32.784 922.175 32.768L922.175 39.392H918.623ZM922.175 29.96H925.343C925.663 29.96 925.951 29.92 926.207 29.84C926.463 29.76 926.687 29.624 926.879 29.432C927.071 29.224 927.215 28.952 927.311 28.616C927.423 28.28 927.479 27.848 927.479 27.32C927.479 26.824 927.423 26.416 927.311 26.096C927.215 25.76 927.071 25.504 926.879 25.328C926.687 25.136 926.463 25.008 926.207 24.944C925.951 24.864 925.663 24.824 925.343 24.824H922.175L922.175 29.96Z"/>
<path d="M932.542 39.392L938.11 21.632H942.598L948.166 39.392H944.47L943.342 35.672H937.294L936.19 39.392H932.542ZM938.134 32.48H942.502L940.318 24.68L938.134 32.48Z"/>
<path d="M949.631 39.392L949.631 25.688C949.631 24.904 949.751 24.248 949.991 23.72C950.231 23.192 950.551 22.776 950.951 22.472C951.351 22.168 951.791 21.952 952.271 21.824C952.751 21.696 953.223 21.632 953.687 21.632C954.263 21.632 954.975 21.64 955.823 21.656C956.687 21.656 957.599 21.68 958.559 21.728C959.535 21.776 960.471 21.848 961.367 21.944L961.367 24.92H954.671C954.175 24.92 953.799 25.056 953.543 25.328C953.303 25.584 953.183 25.928 953.183 26.36L953.183 29.384L960.215 29.576L960.215 32.384L953.183 32.576L953.183 39.392H949.631Z"/>
<path d="M963.389 39.392L963.389 25.688C963.389 24.904 963.509 24.248 963.749 23.72C963.989 23.192 964.309 22.776 964.708 22.472C965.108 22.168 965.548 21.952 966.028 21.824C966.508 21.696 966.98 21.632 967.444 21.632C968.02 21.632 968.732 21.64 969.58 21.656C970.444 21.656 971.356 21.68 972.316 21.728C973.292 21.776 974.228 21.848 975.124 21.944L975.125 24.92H968.429C967.933 24.92 967.557 25.056 967.301 25.328C967.061 25.584 966.941 25.928 966.941 26.36L966.941 29.384L973.973 29.576L973.973 32.384L966.941 32.576L966.941 39.392H963.389Z"/>
<path d="M977.381 39.392L977.381 21.632H980.933L980.933 39.392H977.381Z"/>
<path d="M989.99 39.536C988.95 39.536 988.03 39.416 987.23 39.176C986.446 38.936 985.774 38.496 985.214 37.856C984.67 37.216 984.254 36.304 983.966 35.12C983.694 33.92 983.558 32.368 983.558 30.464C983.558 28.624 983.702 27.12 983.99 25.952C984.294 24.768 984.726 23.856 985.286 23.216C985.845 22.56 986.525 22.104 987.325 21.848C988.125 21.592 989.029 21.464 990.037 21.464C990.837 21.464 991.581 21.512 992.269 21.608C992.973 21.688 993.605 21.792 994.165 21.92C994.725 22.032 995.197 22.16 995.581 22.304L995.582 25.064C995.294 25 994.902 24.936 994.406 24.872C993.926 24.808 993.374 24.76 992.75 24.728C992.126 24.68 991.47 24.656 990.782 24.656C990.11 24.656 989.534 24.736 989.054 24.896C988.59 25.04 988.214 25.32 987.926 25.736C987.654 26.136 987.446 26.72 987.302 27.488C987.174 28.256 987.11 29.256 987.11 30.488C987.11 31.672 987.166 32.648 987.278 33.416C987.406 34.184 987.606 34.784 987.878 35.216C988.15 35.632 988.518 35.928 988.982 36.104C989.462 36.264 990.062 36.344 990.782 36.344C991.998 36.344 992.982 36.32 993.734 36.272C994.502 36.224 995.118 36.168 995.582 36.104L995.582 38.84C995.15 38.984 994.654 39.112 994.094 39.224C993.534 39.32 992.918 39.392 992.246 39.44C991.574 39.504 990.822 39.536 989.99 39.536Z"/>
</mask>
<path d="M811.212 39.392L806.964 21.632H810.636L813.492 34.16L816.828 21.632H820.092L823.404 34.16L826.26 21.632H829.932L825.684 39.392H822.06L818.46 26.864L814.836 39.392H811.212Z" stroke="white" stroke-width="3" mask="url(#path-5-outside-3_1_2707)"/>
<path d="M835.592 39.512C835.208 39.512 834.768 39.472 834.272 39.392C833.776 39.328 833.296 39.168 832.832 38.912C832.384 38.656 832.008 38.272 831.704 37.76C831.416 37.232 831.272 36.512 831.272 35.6L831.271 25.688C831.271 24.904 831.391 24.248 831.631 23.72C831.871 23.192 832.191 22.776 832.591 22.472C832.991 22.168 833.431 21.952 833.911 21.824C834.391 21.696 834.863 21.632 835.327 21.632C836.527 21.632 837.583 21.648 838.495 21.68C839.423 21.712 840.255 21.752 840.991 21.8C841.727 21.832 842.399 21.88 843.007 21.944L843.007 24.92H836.383C835.887 24.92 835.503 25.04 835.231 25.28C834.959 25.52 834.823 25.888 834.823 26.384L834.823 28.952L841.855 29.144L841.855 31.952L834.823 32.144L834.824 34.592C834.824 35.008 834.888 35.336 835.016 35.576C835.16 35.8 835.344 35.96 835.568 36.056C835.808 36.136 836.056 36.176 836.312 36.176H843.008L843.008 39.152C842.304 39.232 841.52 39.296 840.656 39.344C839.808 39.392 838.944 39.432 838.064 39.464C837.2 39.496 836.376 39.512 835.592 39.512Z" stroke="white" stroke-width="3" mask="url(#path-5-outside-3_1_2707)"/>
<path d="M851.779 39.392L851.779 21.632H858.763C860.523 21.632 861.803 22.04 862.603 22.856C863.419 23.656 863.827 24.8 863.827 26.288C863.827 26.992 863.723 27.616 863.515 28.16C863.323 28.688 863.043 29.128 862.675 29.48C862.307 29.816 861.867 30.048 861.355 30.176C861.739 30.272 862.107 30.424 862.459 30.632C862.827 30.84 863.155 31.12 863.443 31.472C863.747 31.824 863.979 32.256 864.139 32.768C864.315 33.264 864.403 33.84 864.403 34.496C864.403 35.696 864.195 36.656 863.779 37.376C863.379 38.096 862.779 38.616 861.979 38.936C861.195 39.24 860.227 39.392 859.075 39.392H851.779ZM855.331 36.2H858.979C859.395 36.2 859.755 36.12 860.059 35.96C860.363 35.8 860.595 35.552 860.755 35.216C860.931 34.88 861.019 34.432 861.019 33.872C861.019 33.408 860.931 33.016 860.755 32.696C860.579 32.376 860.339 32.128 860.035 31.952C859.731 31.776 859.379 31.688 858.979 31.688H855.331L855.331 36.2ZM855.331 28.952H858.787C859.299 28.952 859.699 28.768 859.987 28.4C860.291 28.016 860.443 27.52 860.443 26.912C860.459 26.128 860.299 25.584 859.963 25.28C859.627 24.976 859.219 24.824 858.739 24.824H855.331L855.331 28.952Z" stroke="white" stroke-width="3" mask="url(#path-5-outside-3_1_2707)"/>
<path d="M873.522 39.512C872.546 39.512 871.634 39.432 870.786 39.272C869.938 39.096 869.194 38.8 868.554 38.384C867.93 37.952 867.442 37.36 867.09 36.608C866.754 35.84 866.586 34.864 866.586 33.68L866.586 21.632H870.138L870.138 33.656C870.138 34.312 870.266 34.832 870.522 35.216C870.794 35.6 871.178 35.88 871.674 36.056C872.186 36.232 872.802 36.32 873.522 36.32C874.226 36.32 874.826 36.232 875.322 36.056C875.834 35.88 876.218 35.6 876.474 35.216C876.746 34.832 876.882 34.312 876.882 33.656L876.882 21.632H880.458L880.458 33.68C880.458 34.864 880.282 35.84 879.93 36.608C879.578 37.36 879.09 37.952 878.466 38.384C877.842 38.8 877.106 39.096 876.258 39.272C875.426 39.432 874.514 39.512 873.522 39.512Z" stroke="white" stroke-width="3" mask="url(#path-5-outside-3_1_2707)"/>
<path d="M887.503 39.392L887.503 34.016L882.151 21.632H885.847L889.351 30.392L892.831 21.632H896.383L891.055 34.016L891.055 39.392H887.503Z" stroke="white" stroke-width="3" mask="url(#path-5-outside-3_1_2707)"/>
<path d="M908.257 39.392L908.257 24.824H903.385L903.385 21.632H916.705L916.705 24.824H911.809L911.809 39.392H908.257Z" stroke="white" stroke-width="3" mask="url(#path-5-outside-3_1_2707)"/>
<path d="M918.623 39.392L918.623 21.632H925.967C926.671 21.632 927.327 21.72 927.935 21.896C928.543 22.056 929.079 22.344 929.543 22.76C930.007 23.176 930.367 23.752 930.623 24.488C930.895 25.224 931.031 26.168 931.031 27.32C931.031 28.136 930.951 28.832 930.791 29.408C930.631 29.984 930.415 30.456 930.143 30.824C929.887 31.192 929.591 31.488 929.255 31.712C928.919 31.936 928.575 32.12 928.223 32.264L931.535 39.392H927.911L925.055 32.816C924.863 32.816 924.639 32.816 924.383 32.816C924.143 32.8 923.895 32.792 923.639 32.792C923.383 32.792 923.127 32.792 922.871 32.792C922.615 32.792 922.383 32.784 922.175 32.768L922.175 39.392H918.623ZM922.175 29.96H925.343C925.663 29.96 925.951 29.92 926.207 29.84C926.463 29.76 926.687 29.624 926.879 29.432C927.071 29.224 927.215 28.952 927.311 28.616C927.423 28.28 927.479 27.848 927.479 27.32C927.479 26.824 927.423 26.416 927.311 26.096C927.215 25.76 927.071 25.504 926.879 25.328C926.687 25.136 926.463 25.008 926.207 24.944C925.951 24.864 925.663 24.824 925.343 24.824H922.175L922.175 29.96Z" stroke="white" stroke-width="3" mask="url(#path-5-outside-3_1_2707)"/>
<path d="M932.542 39.392L938.11 21.632H942.598L948.166 39.392H944.47L943.342 35.672H937.294L936.19 39.392H932.542ZM938.134 32.48H942.502L940.318 24.68L938.134 32.48Z" stroke="white" stroke-width="3" mask="url(#path-5-outside-3_1_2707)"/>
<path d="M949.631 39.392L949.631 25.688C949.631 24.904 949.751 24.248 949.991 23.72C950.231 23.192 950.551 22.776 950.951 22.472C951.351 22.168 951.791 21.952 952.271 21.824C952.751 21.696 953.223 21.632 953.687 21.632C954.263 21.632 954.975 21.64 955.823 21.656C956.687 21.656 957.599 21.68 958.559 21.728C959.535 21.776 960.471 21.848 961.367 21.944L961.367 24.92H954.671C954.175 24.92 953.799 25.056 953.543 25.328C953.303 25.584 953.183 25.928 953.183 26.36L953.183 29.384L960.215 29.576L960.215 32.384L953.183 32.576L953.183 39.392H949.631Z" stroke="white" stroke-width="3" mask="url(#path-5-outside-3_1_2707)"/>
<path d="M963.389 39.392L963.389 25.688C963.389 24.904 963.509 24.248 963.749 23.72C963.989 23.192 964.309 22.776 964.708 22.472C965.108 22.168 965.548 21.952 966.028 21.824C966.508 21.696 966.98 21.632 967.444 21.632C968.02 21.632 968.732 21.64 969.58 21.656C970.444 21.656 971.356 21.68 972.316 21.728C973.292 21.776 974.228 21.848 975.124 21.944L975.125 24.92H968.429C967.933 24.92 967.557 25.056 967.301 25.328C967.061 25.584 966.941 25.928 966.941 26.36L966.941 29.384L973.973 29.576L973.973 32.384L966.941 32.576L966.941 39.392H963.389Z" stroke="white" stroke-width="3" mask="url(#path-5-outside-3_1_2707)"/>
<path d="M977.381 39.392L977.381 21.632H980.933L980.933 39.392H977.381Z" stroke="white" stroke-width="3" mask="url(#path-5-outside-3_1_2707)"/>
<path d="M989.99 39.536C988.95 39.536 988.03 39.416 987.23 39.176C986.446 38.936 985.774 38.496 985.214 37.856C984.67 37.216 984.254 36.304 983.966 35.12C983.694 33.92 983.558 32.368 983.558 30.464C983.558 28.624 983.702 27.12 983.99 25.952C984.294 24.768 984.726 23.856 985.286 23.216C985.845 22.56 986.525 22.104 987.325 21.848C988.125 21.592 989.029 21.464 990.037 21.464C990.837 21.464 991.581 21.512 992.269 21.608C992.973 21.688 993.605 21.792 994.165 21.92C994.725 22.032 995.197 22.16 995.581 22.304L995.582 25.064C995.294 25 994.902 24.936 994.406 24.872C993.926 24.808 993.374 24.76 992.75 24.728C992.126 24.68 991.47 24.656 990.782 24.656C990.11 24.656 989.534 24.736 989.054 24.896C988.59 25.04 988.214 25.32 987.926 25.736C987.654 26.136 987.446 26.72 987.302 27.488C987.174 28.256 987.11 29.256 987.11 30.488C987.11 31.672 987.166 32.648 987.278 33.416C987.406 34.184 987.606 34.784 987.878 35.216C988.15 35.632 988.518 35.928 988.982 36.104C989.462 36.264 990.062 36.344 990.782 36.344C991.998 36.344 992.982 36.32 993.734 36.272C994.502 36.224 995.118 36.168 995.582 36.104L995.582 38.84C995.15 38.984 994.654 39.112 994.094 39.224C993.534 39.32 992.918 39.392 992.246 39.44C991.574 39.504 990.822 39.536 989.99 39.536Z" stroke="white" stroke-width="3" mask="url(#path-5-outside-3_1_2707)"/>
<path d="M1040.24 39L1035.99 21.24H1039.66L1042.52 33.768L1045.85 21.24H1049.12L1052.43 33.768L1055.29 21.24H1058.96L1054.71 39H1051.09L1047.49 26.472L1043.86 39H1040.24ZM1064.62 39.12C1064.23 39.12 1063.79 39.08 1063.3 39C1062.8 38.936 1062.32 38.776 1061.86 38.52C1061.41 38.264 1061.03 37.88 1060.73 37.368C1060.44 36.84 1060.3 36.12 1060.3 35.208L1060.3 25.296C1060.3 24.512 1060.42 23.856 1060.66 23.328C1060.9 22.8 1061.22 22.384 1061.62 22.08C1062.02 21.776 1062.46 21.56 1062.94 21.432C1063.42 21.304 1063.89 21.24 1064.35 21.24C1065.55 21.24 1066.61 21.256 1067.52 21.288C1068.45 21.32 1069.28 21.36 1070.02 21.408C1070.75 21.44 1071.43 21.488 1072.03 21.552L1072.03 24.528H1065.41C1064.91 24.528 1064.53 24.648 1064.26 24.888C1063.99 25.128 1063.85 25.496 1063.85 25.992L1063.85 28.56L1070.88 28.752L1070.88 31.56L1063.85 31.752L1063.85 34.2C1063.85 34.616 1063.91 34.944 1064.04 35.184C1064.19 35.408 1064.37 35.568 1064.59 35.664C1064.83 35.744 1065.08 35.784 1065.34 35.784H1072.03L1072.03 38.76C1071.33 38.84 1070.55 38.904 1069.68 38.952C1068.83 39 1067.97 39.04 1067.09 39.072C1066.23 39.104 1065.4 39.12 1064.62 39.12ZM1080.81 39L1080.81 21.24H1087.79C1089.55 21.24 1090.83 21.648 1091.63 22.464C1092.45 23.264 1092.85 24.408 1092.85 25.896C1092.85 26.6 1092.75 27.224 1092.54 27.768C1092.35 28.296 1092.07 28.736 1091.7 29.088C1091.33 29.424 1090.89 29.656 1090.38 29.784C1090.77 29.88 1091.13 30.032 1091.49 30.24C1091.85 30.448 1092.18 30.728 1092.47 31.08C1092.77 31.432 1093.01 31.864 1093.17 32.376C1093.34 32.872 1093.43 33.448 1093.43 34.104C1093.43 35.304 1093.22 36.264 1092.81 36.984C1092.41 37.704 1091.81 38.224 1091.01 38.544C1090.22 38.848 1089.25 39 1088.1 39H1080.81ZM1084.36 35.808H1088.01C1088.42 35.808 1088.78 35.728 1089.09 35.568C1089.39 35.408 1089.62 35.16 1089.78 34.824C1089.96 34.488 1090.05 34.04 1090.05 33.48C1090.05 33.016 1089.96 32.624 1089.78 32.304C1089.61 31.984 1089.37 31.736 1089.06 31.56C1088.76 31.384 1088.41 31.296 1088.01 31.296H1084.36L1084.36 35.808ZM1084.36 28.56H1087.81C1088.33 28.56 1088.73 28.376 1089.01 28.008C1089.32 27.624 1089.47 27.128 1089.47 26.52C1089.49 25.736 1089.33 25.192 1088.99 24.888C1088.65 24.584 1088.25 24.432 1087.77 24.432H1084.36L1084.36 28.56ZM1102.55 39.12C1101.57 39.12 1100.66 39.04 1099.81 38.88C1098.96 38.704 1098.22 38.408 1097.58 37.992C1096.96 37.56 1096.47 36.968 1096.12 36.216C1095.78 35.448 1095.61 34.472 1095.61 33.288L1095.61 21.24H1099.16L1099.16 33.264C1099.16 33.92 1099.29 34.44 1099.55 34.824C1099.82 35.208 1100.2 35.488 1100.7 35.664C1101.21 35.84 1101.83 35.928 1102.55 35.928C1103.25 35.928 1103.85 35.84 1104.35 35.664C1104.86 35.488 1105.24 35.208 1105.5 34.824C1105.77 34.44 1105.91 33.92 1105.91 33.264L1105.91 21.24H1109.48L1109.48 33.288C1109.48 34.472 1109.31 35.448 1108.96 36.216C1108.6 36.968 1108.12 37.56 1107.49 37.992C1106.87 38.408 1106.13 38.704 1105.28 38.88C1104.45 39.04 1103.54 39.12 1102.55 39.12ZM1116.53 39L1116.53 33.624L1111.18 21.24H1114.87L1118.38 30L1121.86 21.24H1125.41L1120.08 33.624L1120.08 39H1116.53ZM1137.28 39L1137.28 24.432H1132.41L1132.41 21.24H1145.73L1145.73 24.432H1140.83L1140.84 39H1137.28ZM1147.65 39L1147.65 21.24H1154.99C1155.7 21.24 1156.35 21.328 1156.96 21.504C1157.57 21.664 1158.1 21.952 1158.57 22.368C1159.03 22.784 1159.39 23.36 1159.65 24.096C1159.92 24.832 1160.06 25.776 1160.06 26.928C1160.06 27.744 1159.98 28.44 1159.82 29.016C1159.66 29.592 1159.44 30.064 1159.17 30.432C1158.91 30.8 1158.62 31.096 1158.28 31.32C1157.94 31.544 1157.6 31.728 1157.25 31.872L1160.56 39H1156.94L1154.08 32.424C1153.89 32.424 1153.66 32.424 1153.41 32.424C1153.17 32.408 1152.92 32.4 1152.66 32.4C1152.41 32.4 1152.15 32.4 1151.9 32.4C1151.64 32.4 1151.41 32.392 1151.2 32.376L1151.2 39H1147.65ZM1151.2 29.568H1154.37C1154.69 29.568 1154.98 29.528 1155.23 29.448C1155.49 29.368 1155.71 29.232 1155.9 29.04C1156.1 28.832 1156.24 28.56 1156.34 28.224C1156.45 27.888 1156.5 27.456 1156.5 26.928C1156.5 26.432 1156.45 26.024 1156.34 25.704C1156.24 25.368 1156.1 25.112 1155.9 24.936C1155.71 24.744 1155.49 24.616 1155.23 24.552C1154.98 24.472 1154.69 24.432 1154.37 24.432H1151.2L1151.2 29.568ZM1161.57 39L1167.14 21.24H1171.62L1177.19 39H1173.5L1172.37 35.28H1166.32L1165.22 39H1161.57ZM1167.16 32.088H1171.53L1169.34 24.288L1167.16 32.088ZM1178.66 39L1178.66 25.296C1178.66 24.512 1178.78 23.856 1179.02 23.328C1179.26 22.8 1179.58 22.384 1179.98 22.08C1180.38 21.776 1180.82 21.56 1181.3 21.432C1181.78 21.304 1182.25 21.24 1182.71 21.24C1183.29 21.24 1184 21.248 1184.85 21.264C1185.71 21.264 1186.62 21.288 1187.58 21.336C1188.56 21.384 1189.5 21.456 1190.39 21.552L1190.39 24.528H1183.7C1183.2 24.528 1182.82 24.664 1182.57 24.936C1182.33 25.192 1182.21 25.536 1182.21 25.968L1182.21 28.992L1189.24 29.184L1189.24 31.992L1182.21 32.184L1182.21 39H1178.66ZM1192.41 39L1192.41 25.296C1192.41 24.512 1192.53 23.856 1192.77 23.328C1193.01 22.8 1193.33 22.384 1193.73 22.08C1194.13 21.776 1194.57 21.56 1195.05 21.432C1195.53 21.304 1196.01 21.24 1196.47 21.24C1197.05 21.24 1197.76 21.248 1198.61 21.264C1199.47 21.264 1200.38 21.288 1201.34 21.336C1202.32 21.384 1203.25 21.456 1204.15 21.552L1204.15 24.528H1197.45C1196.96 24.528 1196.58 24.664 1196.33 24.936C1196.09 25.192 1195.97 25.536 1195.97 25.968L1195.97 28.992L1203 29.184L1203 31.992L1195.97 32.184L1195.97 39H1192.41ZM1206.41 39L1206.41 21.24H1209.96L1209.96 39H1206.41ZM1219.02 39.144C1217.98 39.144 1217.06 39.024 1216.26 38.784C1215.47 38.544 1214.8 38.104 1214.24 37.464C1213.7 36.824 1213.28 35.912 1212.99 34.728C1212.72 33.528 1212.58 31.976 1212.58 30.072C1212.58 28.232 1212.73 26.728 1213.02 25.56C1213.32 24.376 1213.75 23.464 1214.31 22.824C1214.87 22.168 1215.55 21.712 1216.35 21.456C1217.15 21.2 1218.06 21.072 1219.06 21.072C1219.86 21.072 1220.61 21.12 1221.3 21.216C1222 21.296 1222.63 21.4 1223.19 21.528C1223.75 21.64 1224.22 21.768 1224.61 21.912L1224.61 24.672C1224.32 24.608 1223.93 24.544 1223.43 24.48C1222.95 24.416 1222.4 24.368 1221.78 24.336C1221.15 24.288 1220.5 24.264 1219.81 24.264C1219.14 24.264 1218.56 24.344 1218.08 24.504C1217.62 24.648 1217.24 24.928 1216.95 25.344C1216.68 25.744 1216.47 26.328 1216.33 27.096C1216.2 27.864 1216.14 28.864 1216.14 30.096C1216.14 31.28 1216.19 32.256 1216.3 33.024C1216.43 33.792 1216.63 34.392 1216.9 34.824C1217.18 35.24 1217.54 35.536 1218.01 35.712C1218.49 35.872 1219.09 35.952 1219.81 35.952C1221.02 35.952 1222.01 35.928 1222.76 35.88C1223.53 35.832 1224.14 35.776 1224.61 35.712L1224.61 38.448C1224.18 38.592 1223.68 38.72 1223.12 38.832C1222.56 38.928 1221.94 39 1221.27 39.048C1220.6 39.112 1219.85 39.144 1219.02 39.144Z" fill="white"/>
<mask id="path-7-outside-4_1_2707" maskUnits="userSpaceOnUse" x="1263.58" y="18.464" width="193" height="23" fill="black">
<rect fill="white" x="1263.58" y="18.464" width="193" height="23"/>
<path d="M1269.83 39.392L1265.58 21.632H1269.25L1272.11 34.16L1275.45 21.632H1278.71L1282.02 34.16L1284.88 21.632H1288.55L1284.3 39.392H1280.68L1277.08 26.864L1273.45 39.392H1269.83Z"/>
<path d="M1294.21 39.512C1293.83 39.512 1293.39 39.472 1292.89 39.392C1292.39 39.328 1291.91 39.168 1291.45 38.912C1291 38.656 1290.63 38.272 1290.32 37.76C1290.03 37.232 1289.89 36.512 1289.89 35.6L1289.89 25.688C1289.89 24.904 1290.01 24.248 1290.25 23.72C1290.49 23.192 1290.81 22.776 1291.21 22.472C1291.61 22.168 1292.05 21.952 1292.53 21.824C1293.01 21.696 1293.48 21.632 1293.95 21.632C1295.15 21.632 1296.2 21.648 1297.11 21.68C1298.04 21.712 1298.87 21.752 1299.61 21.8C1300.35 21.832 1301.02 21.88 1301.63 21.944L1301.63 24.92H1295C1294.51 24.92 1294.12 25.04 1293.85 25.28C1293.58 25.52 1293.44 25.888 1293.44 26.384L1293.44 28.952L1300.47 29.144L1300.47 31.952L1293.44 32.144L1293.44 34.592C1293.44 35.008 1293.51 35.336 1293.63 35.576C1293.78 35.8 1293.96 35.96 1294.19 36.056C1294.43 36.136 1294.67 36.176 1294.93 36.176H1301.63L1301.63 39.152C1300.92 39.232 1300.14 39.296 1299.27 39.344C1298.43 39.392 1297.56 39.432 1296.68 39.464C1295.82 39.496 1294.99 39.512 1294.21 39.512Z"/>
<path d="M1310.4 39.392L1310.4 21.632H1317.38C1319.14 21.632 1320.42 22.04 1321.22 22.856C1322.04 23.656 1322.45 24.8 1322.45 26.288C1322.45 26.992 1322.34 27.616 1322.13 28.16C1321.94 28.688 1321.66 29.128 1321.29 29.48C1320.93 29.816 1320.49 30.048 1319.97 30.176C1320.36 30.272 1320.73 30.424 1321.08 30.632C1321.45 30.84 1321.77 31.12 1322.06 31.472C1322.37 31.824 1322.6 32.256 1322.76 32.768C1322.93 33.264 1323.02 33.84 1323.02 34.496C1323.02 35.696 1322.81 36.656 1322.4 37.376C1322 38.096 1321.4 38.616 1320.6 38.936C1319.81 39.24 1318.85 39.392 1317.69 39.392H1310.4ZM1313.95 36.2H1317.6C1318.01 36.2 1318.37 36.12 1318.68 35.96C1318.98 35.8 1319.21 35.552 1319.37 35.216C1319.55 34.88 1319.64 34.432 1319.64 33.872C1319.64 33.408 1319.55 33.016 1319.37 32.696C1319.2 32.376 1318.96 32.128 1318.65 31.952C1318.35 31.776 1318 31.688 1317.6 31.688H1313.95L1313.95 36.2ZM1313.95 28.952H1317.41C1317.92 28.952 1318.32 28.768 1318.61 28.4C1318.91 28.016 1319.06 27.52 1319.06 26.912C1319.08 26.128 1318.92 25.584 1318.58 25.28C1318.25 24.976 1317.84 24.824 1317.36 24.824H1313.95L1313.95 28.952Z"/>
<path d="M1332.14 39.512C1331.16 39.512 1330.25 39.432 1329.4 39.272C1328.56 39.096 1327.81 38.8 1327.17 38.384C1326.55 37.952 1326.06 37.36 1325.71 36.608C1325.37 35.84 1325.2 34.864 1325.2 33.68L1325.2 21.632H1328.76L1328.76 33.656C1328.76 34.312 1328.88 34.832 1329.14 35.216C1329.41 35.6 1329.8 35.88 1330.29 36.056C1330.8 36.232 1331.42 36.32 1332.14 36.32C1332.84 36.32 1333.44 36.232 1333.94 36.056C1334.45 35.88 1334.84 35.6 1335.09 35.216C1335.36 34.832 1335.5 34.312 1335.5 33.656L1335.5 21.632H1339.08L1339.08 33.68C1339.08 34.864 1338.9 35.84 1338.55 36.608C1338.2 37.36 1337.71 37.952 1337.08 38.384C1336.46 38.8 1335.72 39.096 1334.88 39.272C1334.04 39.432 1333.13 39.512 1332.14 39.512Z"/>
<path d="M1346.12 39.392L1346.12 34.016L1340.77 21.632H1344.47L1347.97 30.392L1351.45 21.632H1355L1349.67 34.016L1349.67 39.392H1346.12Z"/>
<path d="M1366.88 39.392L1366.88 24.824H1362L1362 21.632H1375.32L1375.32 24.824H1370.43L1370.43 39.392H1366.88Z"/>
<path d="M1377.24 39.392L1377.24 21.632H1384.58C1385.29 21.632 1385.94 21.72 1386.55 21.896C1387.16 22.056 1387.7 22.344 1388.16 22.76C1388.62 23.176 1388.98 23.752 1389.24 24.488C1389.51 25.224 1389.65 26.168 1389.65 27.32C1389.65 28.136 1389.57 28.832 1389.41 29.408C1389.25 29.984 1389.03 30.456 1388.76 30.824C1388.51 31.192 1388.21 31.488 1387.87 31.712C1387.54 31.936 1387.19 32.12 1386.84 32.264L1390.15 39.392H1386.53L1383.67 32.816C1383.48 32.816 1383.26 32.816 1383 32.816C1382.76 32.8 1382.51 32.792 1382.26 32.792C1382 32.792 1381.75 32.792 1381.49 32.792C1381.23 32.792 1381 32.784 1380.79 32.768L1380.79 39.392H1377.24ZM1380.79 29.96H1383.96C1384.28 29.96 1384.57 29.92 1384.83 29.84C1385.08 29.76 1385.31 29.624 1385.5 29.432C1385.69 29.224 1385.83 28.952 1385.93 28.616C1386.04 28.28 1386.1 27.848 1386.1 27.32C1386.1 26.824 1386.04 26.416 1385.93 26.096C1385.83 25.76 1385.69 25.504 1385.5 25.328C1385.3 25.136 1385.08 25.008 1384.82 24.944C1384.57 24.864 1384.28 24.824 1383.96 24.824H1380.79L1380.79 29.96Z"/>
<path d="M1391.16 39.392L1396.73 21.632H1401.22L1406.78 39.392H1403.09L1401.96 35.672H1395.91L1394.81 39.392H1391.16ZM1396.75 32.48H1401.12L1398.94 24.68L1396.75 32.48Z"/>
<path d="M1408.25 39.392L1408.25 25.688C1408.25 24.904 1408.37 24.248 1408.61 23.72C1408.85 23.192 1409.17 22.776 1409.57 22.472C1409.97 22.168 1410.41 21.952 1410.89 21.824C1411.37 21.696 1411.84 21.632 1412.3 21.632C1412.88 21.632 1413.59 21.64 1414.44 21.656C1415.3 21.656 1416.22 21.68 1417.18 21.728C1418.15 21.776 1419.09 21.848 1419.98 21.944L1419.98 24.92H1413.29C1412.79 24.92 1412.42 25.056 1412.16 25.328C1411.92 25.584 1411.8 25.928 1411.8 26.36L1411.8 29.384L1418.83 29.576L1418.83 32.384L1411.8 32.576L1411.8 39.392H1408.25Z"/>
<path d="M1422.01 39.392L1422.01 25.688C1422.01 24.904 1422.13 24.248 1422.37 23.72C1422.61 23.192 1422.93 22.776 1423.33 22.472C1423.73 22.168 1424.17 21.952 1424.65 21.824C1425.13 21.696 1425.6 21.632 1426.06 21.632C1426.64 21.632 1427.35 21.64 1428.2 21.656C1429.06 21.656 1429.97 21.68 1430.93 21.728C1431.91 21.776 1432.85 21.848 1433.74 21.944L1433.74 24.92H1427.05C1426.55 24.92 1426.17 25.056 1425.92 25.328C1425.68 25.584 1425.56 25.928 1425.56 26.36L1425.56 29.384L1432.59 29.576L1432.59 32.384L1425.56 32.576L1425.56 39.392H1422.01Z"/>
<path d="M1436 39.392L1436 21.632H1439.55L1439.55 39.392H1436Z"/>
<path d="M1448.61 39.536C1447.57 39.536 1446.65 39.416 1445.85 39.176C1445.06 38.936 1444.39 38.496 1443.83 37.856C1443.29 37.216 1442.87 36.304 1442.58 35.12C1442.31 33.92 1442.18 32.368 1442.18 30.464C1442.18 28.624 1442.32 27.12 1442.61 25.952C1442.91 24.768 1443.34 23.856 1443.9 23.216C1444.46 22.56 1445.14 22.104 1445.94 21.848C1446.74 21.592 1447.65 21.464 1448.66 21.464C1449.46 21.464 1450.2 21.512 1450.89 21.608C1451.59 21.688 1452.22 21.792 1452.78 21.92C1453.34 22.032 1453.82 22.16 1454.2 22.304L1454.2 25.064C1453.91 25 1453.52 24.936 1453.02 24.872C1452.54 24.808 1451.99 24.76 1451.37 24.728C1450.74 24.68 1450.09 24.656 1449.4 24.656C1448.73 24.656 1448.15 24.736 1447.67 24.896C1447.21 25.04 1446.83 25.32 1446.54 25.736C1446.27 26.136 1446.06 26.72 1445.92 27.488C1445.79 28.256 1445.73 29.256 1445.73 30.488C1445.73 31.672 1445.78 32.648 1445.9 33.416C1446.02 34.184 1446.22 34.784 1446.5 35.216C1446.77 35.632 1447.14 35.928 1447.6 36.104C1448.08 36.264 1448.68 36.344 1449.4 36.344C1450.62 36.344 1451.6 36.32 1452.35 36.272C1453.12 36.224 1453.74 36.168 1454.2 36.104L1454.2 38.84C1453.77 38.984 1453.27 39.112 1452.71 39.224C1452.15 39.32 1451.54 39.392 1450.86 39.44C1450.19 39.504 1449.44 39.536 1448.61 39.536Z"/>
</mask>
<path d="M1269.83 39.392L1265.58 21.632H1269.25L1272.11 34.16L1275.45 21.632H1278.71L1282.02 34.16L1284.88 21.632H1288.55L1284.3 39.392H1280.68L1277.08 26.864L1273.45 39.392H1269.83Z" stroke="white" stroke-width="3" mask="url(#path-7-outside-4_1_2707)"/>
<path d="M1294.21 39.512C1293.83 39.512 1293.39 39.472 1292.89 39.392C1292.39 39.328 1291.91 39.168 1291.45 38.912C1291 38.656 1290.63 38.272 1290.32 37.76C1290.03 37.232 1289.89 36.512 1289.89 35.6L1289.89 25.688C1289.89 24.904 1290.01 24.248 1290.25 23.72C1290.49 23.192 1290.81 22.776 1291.21 22.472C1291.61 22.168 1292.05 21.952 1292.53 21.824C1293.01 21.696 1293.48 21.632 1293.95 21.632C1295.15 21.632 1296.2 21.648 1297.11 21.68C1298.04 21.712 1298.87 21.752 1299.61 21.8C1300.35 21.832 1301.02 21.88 1301.63 21.944L1301.63 24.92H1295C1294.51 24.92 1294.12 25.04 1293.85 25.28C1293.58 25.52 1293.44 25.888 1293.44 26.384L1293.44 28.952L1300.47 29.144L1300.47 31.952L1293.44 32.144L1293.44 34.592C1293.44 35.008 1293.51 35.336 1293.63 35.576C1293.78 35.8 1293.96 35.96 1294.19 36.056C1294.43 36.136 1294.67 36.176 1294.93 36.176H1301.63L1301.63 39.152C1300.92 39.232 1300.14 39.296 1299.27 39.344C1298.43 39.392 1297.56 39.432 1296.68 39.464C1295.82 39.496 1294.99 39.512 1294.21 39.512Z" stroke="white" stroke-width="3" mask="url(#path-7-outside-4_1_2707)"/>
<path d="M1310.4 39.392L1310.4 21.632H1317.38C1319.14 21.632 1320.42 22.04 1321.22 22.856C1322.04 23.656 1322.45 24.8 1322.45 26.288C1322.45 26.992 1322.34 27.616 1322.13 28.16C1321.94 28.688 1321.66 29.128 1321.29 29.48C1320.93 29.816 1320.49 30.048 1319.97 30.176C1320.36 30.272 1320.73 30.424 1321.08 30.632C1321.45 30.84 1321.77 31.12 1322.06 31.472C1322.37 31.824 1322.6 32.256 1322.76 32.768C1322.93 33.264 1323.02 33.84 1323.02 34.496C1323.02 35.696 1322.81 36.656 1322.4 37.376C1322 38.096 1321.4 38.616 1320.6 38.936C1319.81 39.24 1318.85 39.392 1317.69 39.392H1310.4ZM1313.95 36.2H1317.6C1318.01 36.2 1318.37 36.12 1318.68 35.96C1318.98 35.8 1319.21 35.552 1319.37 35.216C1319.55 34.88 1319.64 34.432 1319.64 33.872C1319.64 33.408 1319.55 33.016 1319.37 32.696C1319.2 32.376 1318.96 32.128 1318.65 31.952C1318.35 31.776 1318 31.688 1317.6 31.688H1313.95L1313.95 36.2ZM1313.95 28.952H1317.41C1317.92 28.952 1318.32 28.768 1318.61 28.4C1318.91 28.016 1319.06 27.52 1319.06 26.912C1319.08 26.128 1318.92 25.584 1318.58 25.28C1318.25 24.976 1317.84 24.824 1317.36 24.824H1313.95L1313.95 28.952Z" stroke="white" stroke-width="3" mask="url(#path-7-outside-4_1_2707)"/>
<path d="M1332.14 39.512C1331.16 39.512 1330.25 39.432 1329.4 39.272C1328.56 39.096 1327.81 38.8 1327.17 38.384C1326.55 37.952 1326.06 37.36 1325.71 36.608C1325.37 35.84 1325.2 34.864 1325.2 33.68L1325.2 21.632H1328.76L1328.76 33.656C1328.76 34.312 1328.88 34.832 1329.14 35.216C1329.41 35.6 1329.8 35.88 1330.29 36.056C1330.8 36.232 1331.42 36.32 1332.14 36.32C1332.84 36.32 1333.44 36.232 1333.94 36.056C1334.45 35.88 1334.84 35.6 1335.09 35.216C1335.36 34.832 1335.5 34.312 1335.5 33.656L1335.5 21.632H1339.08L1339.08 33.68C1339.08 34.864 1338.9 35.84 1338.55 36.608C1338.2 37.36 1337.71 37.952 1337.08 38.384C1336.46 38.8 1335.72 39.096 1334.88 39.272C1334.04 39.432 1333.13 39.512 1332.14 39.512Z" stroke="white" stroke-width="3" mask="url(#path-7-outside-4_1_2707)"/>
<path d="M1346.12 39.392L1346.12 34.016L1340.77 21.632H1344.47L1347.97 30.392L1351.45 21.632H1355L1349.67 34.016L1349.67 39.392H1346.12Z" stroke="white" stroke-width="3" mask="url(#path-7-outside-4_1_2707)"/>
<path d="M1366.88 39.392L1366.88 24.824H1362L1362 21.632H1375.32L1375.32 24.824H1370.43L1370.43 39.392H1366.88Z" stroke="white" stroke-width="3" mask="url(#path-7-outside-4_1_2707)"/>
<path d="M1377.24 39.392L1377.24 21.632H1384.58C1385.29 21.632 1385.94 21.72 1386.55 21.896C1387.16 22.056 1387.7 22.344 1388.16 22.76C1388.62 23.176 1388.98 23.752 1389.24 24.488C1389.51 25.224 1389.65 26.168 1389.65 27.32C1389.65 28.136 1389.57 28.832 1389.41 29.408C1389.25 29.984 1389.03 30.456 1388.76 30.824C1388.51 31.192 1388.21 31.488 1387.87 31.712C1387.54 31.936 1387.19 32.12 1386.84 32.264L1390.15 39.392H1386.53L1383.67 32.816C1383.48 32.816 1383.26 32.816 1383 32.816C1382.76 32.8 1382.51 32.792 1382.26 32.792C1382 32.792 1381.75 32.792 1381.49 32.792C1381.23 32.792 1381 32.784 1380.79 32.768L1380.79 39.392H1377.24ZM1380.79 29.96H1383.96C1384.28 29.96 1384.57 29.92 1384.83 29.84C1385.08 29.76 1385.31 29.624 1385.5 29.432C1385.69 29.224 1385.83 28.952 1385.93 28.616C1386.04 28.28 1386.1 27.848 1386.1 27.32C1386.1 26.824 1386.04 26.416 1385.93 26.096C1385.83 25.76 1385.69 25.504 1385.5 25.328C1385.3 25.136 1385.08 25.008 1384.82 24.944C1384.57 24.864 1384.28 24.824 1383.96 24.824H1380.79L1380.79 29.96Z" stroke="white" stroke-width="3" mask="url(#path-7-outside-4_1_2707)"/>
<path d="M1391.16 39.392L1396.73 21.632H1401.22L1406.78 39.392H1403.09L1401.96 35.672H1395.91L1394.81 39.392H1391.16ZM1396.75 32.48H1401.12L1398.94 24.68L1396.75 32.48Z" stroke="white" stroke-width="3" mask="url(#path-7-outside-4_1_2707)"/>
<path d="M1408.25 39.392L1408.25 25.688C1408.25 24.904 1408.37 24.248 1408.61 23.72C1408.85 23.192 1409.17 22.776 1409.57 22.472C1409.97 22.168 1410.41 21.952 1410.89 21.824C1411.37 21.696 1411.84 21.632 1412.3 21.632C1412.88 21.632 1413.59 21.64 1414.44 21.656C1415.3 21.656 1416.22 21.68 1417.18 21.728C1418.15 21.776 1419.09 21.848 1419.98 21.944L1419.98 24.92H1413.29C1412.79 24.92 1412.42 25.056 1412.16 25.328C1411.92 25.584 1411.8 25.928 1411.8 26.36L1411.8 29.384L1418.83 29.576L1418.83 32.384L1411.8 32.576L1411.8 39.392H1408.25Z" stroke="white" stroke-width="3" mask="url(#path-7-outside-4_1_2707)"/>
<path d="M1422.01 39.392L1422.01 25.688C1422.01 24.904 1422.13 24.248 1422.37 23.72C1422.61 23.192 1422.93 22.776 1423.33 22.472C1423.73 22.168 1424.17 21.952 1424.65 21.824C1425.13 21.696 1425.6 21.632 1426.06 21.632C1426.64 21.632 1427.35 21.64 1428.2 21.656C1429.06 21.656 1429.97 21.68 1430.93 21.728C1431.91 21.776 1432.85 21.848 1433.74 21.944L1433.74 24.92H1427.05C1426.55 24.92 1426.17 25.056 1425.92 25.328C1425.68 25.584 1425.56 25.928 1425.56 26.36L1425.56 29.384L1432.59 29.576L1432.59 32.384L1425.56 32.576L1425.56 39.392H1422.01Z" stroke="white" stroke-width="3" mask="url(#path-7-outside-4_1_2707)"/>
<path d="M1436 39.392L1436 21.632H1439.55L1439.55 39.392H1436Z" stroke="white" stroke-width="3" mask="url(#path-7-outside-4_1_2707)"/>
<path d="M1448.61 39.536C1447.57 39.536 1446.65 39.416 1445.85 39.176C1445.06 38.936 1444.39 38.496 1443.83 37.856C1443.29 37.216 1442.87 36.304 1442.58 35.12C1442.31 33.92 1442.18 32.368 1442.18 30.464C1442.18 28.624 1442.32 27.12 1442.61 25.952C1442.91 24.768 1443.34 23.856 1443.9 23.216C1444.46 22.56 1445.14 22.104 1445.94 21.848C1446.74 21.592 1447.65 21.464 1448.66 21.464C1449.46 21.464 1450.2 21.512 1450.89 21.608C1451.59 21.688 1452.22 21.792 1452.78 21.92C1453.34 22.032 1453.82 22.16 1454.2 22.304L1454.2 25.064C1453.91 25 1453.52 24.936 1453.02 24.872C1452.54 24.808 1451.99 24.76 1451.37 24.728C1450.74 24.68 1450.09 24.656 1449.4 24.656C1448.73 24.656 1448.15 24.736 1447.67 24.896C1447.21 25.04 1446.83 25.32 1446.54 25.736C1446.27 26.136 1446.06 26.72 1445.92 27.488C1445.79 28.256 1445.73 29.256 1445.73 30.488C1445.73 31.672 1445.78 32.648 1445.9 33.416C1446.02 34.184 1446.22 34.784 1446.5 35.216C1446.77 35.632 1447.14 35.928 1447.6 36.104C1448.08 36.264 1448.68 36.344 1449.4 36.344C1450.62 36.344 1451.6 36.32 1452.35 36.272C1453.12 36.224 1453.74 36.168 1454.2 36.104L1454.2 38.84C1453.77 38.984 1453.27 39.112 1452.71 39.224C1452.15 39.32 1451.54 39.392 1450.86 39.44C1450.19 39.504 1449.44 39.536 1448.61 39.536Z" stroke="white" stroke-width="3" mask="url(#path-7-outside-4_1_2707)"/>
</g>
<defs>
<clipPath id="clip0_1_2707">
<rect width="1454.1" height="61" fill="white" transform="matrix(1 0 1.85081e-05 1 0 0)"/>
</clipPath>
</defs>
</svg>
